%TF.GenerationSoftware,KiCad,Pcbnew,9.0.5*%
%TF.CreationDate,2025-10-05T13:45:15-05:00*%
%TF.ProjectId,ATO-Encoder-PCB,41544f2d-456e-4636-9f64-65722d504342,rev?*%
%TF.SameCoordinates,Original*%
%TF.FileFunction,Legend,Bot*%
%TF.FilePolarity,Positive*%
%FSLAX46Y46*%
G04 Gerber Fmt 4.6, Leading zero omitted, Abs format (unit mm)*
G04 Created by KiCad (PCBNEW 9.0.5) date 2025-10-05 13:45:15*
%MOMM*%
%LPD*%
G01*
G04 APERTURE LIST*
%ADD10C,0.203200*%
%ADD11C,0.150000*%
%ADD12C,0.120000*%
G04 APERTURE END LIST*
D10*
X146625588Y-119729390D02*
X146625588Y-118713390D01*
X146625588Y-118713390D02*
X146867493Y-118713390D01*
X146867493Y-118713390D02*
X147012636Y-118761771D01*
X147012636Y-118761771D02*
X147109398Y-118858533D01*
X147109398Y-118858533D02*
X147157779Y-118955295D01*
X147157779Y-118955295D02*
X147206160Y-119148819D01*
X147206160Y-119148819D02*
X147206160Y-119293962D01*
X147206160Y-119293962D02*
X147157779Y-119487486D01*
X147157779Y-119487486D02*
X147109398Y-119584248D01*
X147109398Y-119584248D02*
X147012636Y-119681010D01*
X147012636Y-119681010D02*
X146867493Y-119729390D01*
X146867493Y-119729390D02*
X146625588Y-119729390D01*
X148028636Y-119681010D02*
X147931874Y-119729390D01*
X147931874Y-119729390D02*
X147738350Y-119729390D01*
X147738350Y-119729390D02*
X147641588Y-119681010D01*
X147641588Y-119681010D02*
X147593207Y-119584248D01*
X147593207Y-119584248D02*
X147593207Y-119197200D01*
X147593207Y-119197200D02*
X147641588Y-119100438D01*
X147641588Y-119100438D02*
X147738350Y-119052057D01*
X147738350Y-119052057D02*
X147931874Y-119052057D01*
X147931874Y-119052057D02*
X148028636Y-119100438D01*
X148028636Y-119100438D02*
X148077017Y-119197200D01*
X148077017Y-119197200D02*
X148077017Y-119293962D01*
X148077017Y-119293962D02*
X147593207Y-119390724D01*
X148464064Y-119681010D02*
X148560826Y-119729390D01*
X148560826Y-119729390D02*
X148754350Y-119729390D01*
X148754350Y-119729390D02*
X148851112Y-119681010D01*
X148851112Y-119681010D02*
X148899493Y-119584248D01*
X148899493Y-119584248D02*
X148899493Y-119535867D01*
X148899493Y-119535867D02*
X148851112Y-119439105D01*
X148851112Y-119439105D02*
X148754350Y-119390724D01*
X148754350Y-119390724D02*
X148609207Y-119390724D01*
X148609207Y-119390724D02*
X148512445Y-119342343D01*
X148512445Y-119342343D02*
X148464064Y-119245581D01*
X148464064Y-119245581D02*
X148464064Y-119197200D01*
X148464064Y-119197200D02*
X148512445Y-119100438D01*
X148512445Y-119100438D02*
X148609207Y-119052057D01*
X148609207Y-119052057D02*
X148754350Y-119052057D01*
X148754350Y-119052057D02*
X148851112Y-119100438D01*
X149334921Y-119729390D02*
X149334921Y-119052057D01*
X149334921Y-118713390D02*
X149286540Y-118761771D01*
X149286540Y-118761771D02*
X149334921Y-118810152D01*
X149334921Y-118810152D02*
X149383302Y-118761771D01*
X149383302Y-118761771D02*
X149334921Y-118713390D01*
X149334921Y-118713390D02*
X149334921Y-118810152D01*
X150254160Y-119052057D02*
X150254160Y-119874533D01*
X150254160Y-119874533D02*
X150205779Y-119971295D01*
X150205779Y-119971295D02*
X150157398Y-120019676D01*
X150157398Y-120019676D02*
X150060636Y-120068057D01*
X150060636Y-120068057D02*
X149915493Y-120068057D01*
X149915493Y-120068057D02*
X149818731Y-120019676D01*
X150254160Y-119681010D02*
X150157398Y-119729390D01*
X150157398Y-119729390D02*
X149963874Y-119729390D01*
X149963874Y-119729390D02*
X149867112Y-119681010D01*
X149867112Y-119681010D02*
X149818731Y-119632629D01*
X149818731Y-119632629D02*
X149770350Y-119535867D01*
X149770350Y-119535867D02*
X149770350Y-119245581D01*
X149770350Y-119245581D02*
X149818731Y-119148819D01*
X149818731Y-119148819D02*
X149867112Y-119100438D01*
X149867112Y-119100438D02*
X149963874Y-119052057D01*
X149963874Y-119052057D02*
X150157398Y-119052057D01*
X150157398Y-119052057D02*
X150254160Y-119100438D01*
X150737969Y-119052057D02*
X150737969Y-119729390D01*
X150737969Y-119148819D02*
X150786350Y-119100438D01*
X150786350Y-119100438D02*
X150883112Y-119052057D01*
X150883112Y-119052057D02*
X151028255Y-119052057D01*
X151028255Y-119052057D02*
X151125017Y-119100438D01*
X151125017Y-119100438D02*
X151173398Y-119197200D01*
X151173398Y-119197200D02*
X151173398Y-119729390D01*
X152044255Y-119681010D02*
X151947493Y-119729390D01*
X151947493Y-119729390D02*
X151753969Y-119729390D01*
X151753969Y-119729390D02*
X151657207Y-119681010D01*
X151657207Y-119681010D02*
X151608826Y-119584248D01*
X151608826Y-119584248D02*
X151608826Y-119197200D01*
X151608826Y-119197200D02*
X151657207Y-119100438D01*
X151657207Y-119100438D02*
X151753969Y-119052057D01*
X151753969Y-119052057D02*
X151947493Y-119052057D01*
X151947493Y-119052057D02*
X152044255Y-119100438D01*
X152044255Y-119100438D02*
X152092636Y-119197200D01*
X152092636Y-119197200D02*
X152092636Y-119293962D01*
X152092636Y-119293962D02*
X151608826Y-119390724D01*
X152963493Y-119729390D02*
X152963493Y-118713390D01*
X152963493Y-119681010D02*
X152866731Y-119729390D01*
X152866731Y-119729390D02*
X152673207Y-119729390D01*
X152673207Y-119729390D02*
X152576445Y-119681010D01*
X152576445Y-119681010D02*
X152528064Y-119632629D01*
X152528064Y-119632629D02*
X152479683Y-119535867D01*
X152479683Y-119535867D02*
X152479683Y-119245581D01*
X152479683Y-119245581D02*
X152528064Y-119148819D01*
X152528064Y-119148819D02*
X152576445Y-119100438D01*
X152576445Y-119100438D02*
X152673207Y-119052057D01*
X152673207Y-119052057D02*
X152866731Y-119052057D01*
X152866731Y-119052057D02*
X152963493Y-119100438D01*
X154560064Y-119197200D02*
X154705207Y-119245581D01*
X154705207Y-119245581D02*
X154753588Y-119293962D01*
X154753588Y-119293962D02*
X154801969Y-119390724D01*
X154801969Y-119390724D02*
X154801969Y-119535867D01*
X154801969Y-119535867D02*
X154753588Y-119632629D01*
X154753588Y-119632629D02*
X154705207Y-119681010D01*
X154705207Y-119681010D02*
X154608445Y-119729390D01*
X154608445Y-119729390D02*
X154221397Y-119729390D01*
X154221397Y-119729390D02*
X154221397Y-118713390D01*
X154221397Y-118713390D02*
X154560064Y-118713390D01*
X154560064Y-118713390D02*
X154656826Y-118761771D01*
X154656826Y-118761771D02*
X154705207Y-118810152D01*
X154705207Y-118810152D02*
X154753588Y-118906914D01*
X154753588Y-118906914D02*
X154753588Y-119003676D01*
X154753588Y-119003676D02*
X154705207Y-119100438D01*
X154705207Y-119100438D02*
X154656826Y-119148819D01*
X154656826Y-119148819D02*
X154560064Y-119197200D01*
X154560064Y-119197200D02*
X154221397Y-119197200D01*
X155140635Y-119052057D02*
X155382540Y-119729390D01*
X155624445Y-119052057D02*
X155382540Y-119729390D01*
X155382540Y-119729390D02*
X155285778Y-119971295D01*
X155285778Y-119971295D02*
X155237397Y-120019676D01*
X155237397Y-120019676D02*
X155140635Y-120068057D01*
X156011492Y-119632629D02*
X156059873Y-119681010D01*
X156059873Y-119681010D02*
X156011492Y-119729390D01*
X156011492Y-119729390D02*
X155963111Y-119681010D01*
X155963111Y-119681010D02*
X156011492Y-119632629D01*
X156011492Y-119632629D02*
X156011492Y-119729390D01*
X156011492Y-119100438D02*
X156059873Y-119148819D01*
X156059873Y-119148819D02*
X156011492Y-119197200D01*
X156011492Y-119197200D02*
X155963111Y-119148819D01*
X155963111Y-119148819D02*
X156011492Y-119100438D01*
X156011492Y-119100438D02*
X156011492Y-119197200D01*
X146480445Y-120349093D02*
X147061017Y-120349093D01*
X146770731Y-121365093D02*
X146770731Y-120349093D01*
X147544826Y-121365093D02*
X147448064Y-121316713D01*
X147448064Y-121316713D02*
X147399683Y-121268332D01*
X147399683Y-121268332D02*
X147351302Y-121171570D01*
X147351302Y-121171570D02*
X147351302Y-120881284D01*
X147351302Y-120881284D02*
X147399683Y-120784522D01*
X147399683Y-120784522D02*
X147448064Y-120736141D01*
X147448064Y-120736141D02*
X147544826Y-120687760D01*
X147544826Y-120687760D02*
X147689969Y-120687760D01*
X147689969Y-120687760D02*
X147786731Y-120736141D01*
X147786731Y-120736141D02*
X147835112Y-120784522D01*
X147835112Y-120784522D02*
X147883493Y-120881284D01*
X147883493Y-120881284D02*
X147883493Y-121171570D01*
X147883493Y-121171570D02*
X147835112Y-121268332D01*
X147835112Y-121268332D02*
X147786731Y-121316713D01*
X147786731Y-121316713D02*
X147689969Y-121365093D01*
X147689969Y-121365093D02*
X147544826Y-121365093D01*
X148318921Y-120687760D02*
X148318921Y-121365093D01*
X148318921Y-120784522D02*
X148367302Y-120736141D01*
X148367302Y-120736141D02*
X148464064Y-120687760D01*
X148464064Y-120687760D02*
X148609207Y-120687760D01*
X148609207Y-120687760D02*
X148705969Y-120736141D01*
X148705969Y-120736141D02*
X148754350Y-120832903D01*
X148754350Y-120832903D02*
X148754350Y-121365093D01*
X149141397Y-120687760D02*
X149383302Y-121365093D01*
X149625207Y-120687760D02*
X149383302Y-121365093D01*
X149383302Y-121365093D02*
X149286540Y-121606998D01*
X149286540Y-121606998D02*
X149238159Y-121655379D01*
X149238159Y-121655379D02*
X149141397Y-121703760D01*
X150737968Y-121316713D02*
X150883111Y-121365093D01*
X150883111Y-121365093D02*
X151125016Y-121365093D01*
X151125016Y-121365093D02*
X151221778Y-121316713D01*
X151221778Y-121316713D02*
X151270159Y-121268332D01*
X151270159Y-121268332D02*
X151318540Y-121171570D01*
X151318540Y-121171570D02*
X151318540Y-121074808D01*
X151318540Y-121074808D02*
X151270159Y-120978046D01*
X151270159Y-120978046D02*
X151221778Y-120929665D01*
X151221778Y-120929665D02*
X151125016Y-120881284D01*
X151125016Y-120881284D02*
X150931492Y-120832903D01*
X150931492Y-120832903D02*
X150834730Y-120784522D01*
X150834730Y-120784522D02*
X150786349Y-120736141D01*
X150786349Y-120736141D02*
X150737968Y-120639379D01*
X150737968Y-120639379D02*
X150737968Y-120542617D01*
X150737968Y-120542617D02*
X150786349Y-120445855D01*
X150786349Y-120445855D02*
X150834730Y-120397474D01*
X150834730Y-120397474D02*
X150931492Y-120349093D01*
X150931492Y-120349093D02*
X151173397Y-120349093D01*
X151173397Y-120349093D02*
X151318540Y-120397474D01*
X151753968Y-121365093D02*
X151753968Y-120349093D01*
X152189397Y-121365093D02*
X152189397Y-120832903D01*
X152189397Y-120832903D02*
X152141016Y-120736141D01*
X152141016Y-120736141D02*
X152044254Y-120687760D01*
X152044254Y-120687760D02*
X151899111Y-120687760D01*
X151899111Y-120687760D02*
X151802349Y-120736141D01*
X151802349Y-120736141D02*
X151753968Y-120784522D01*
X152673206Y-121365093D02*
X152673206Y-120687760D01*
X152673206Y-120349093D02*
X152624825Y-120397474D01*
X152624825Y-120397474D02*
X152673206Y-120445855D01*
X152673206Y-120445855D02*
X152721587Y-120397474D01*
X152721587Y-120397474D02*
X152673206Y-120349093D01*
X152673206Y-120349093D02*
X152673206Y-120445855D01*
X153302159Y-121365093D02*
X153205397Y-121316713D01*
X153205397Y-121316713D02*
X153157016Y-121219951D01*
X153157016Y-121219951D02*
X153157016Y-120349093D01*
X154124635Y-121365093D02*
X154124635Y-120832903D01*
X154124635Y-120832903D02*
X154076254Y-120736141D01*
X154076254Y-120736141D02*
X153979492Y-120687760D01*
X153979492Y-120687760D02*
X153785968Y-120687760D01*
X153785968Y-120687760D02*
X153689206Y-120736141D01*
X154124635Y-121316713D02*
X154027873Y-121365093D01*
X154027873Y-121365093D02*
X153785968Y-121365093D01*
X153785968Y-121365093D02*
X153689206Y-121316713D01*
X153689206Y-121316713D02*
X153640825Y-121219951D01*
X153640825Y-121219951D02*
X153640825Y-121123189D01*
X153640825Y-121123189D02*
X153689206Y-121026427D01*
X153689206Y-121026427D02*
X153785968Y-120978046D01*
X153785968Y-120978046D02*
X154027873Y-120978046D01*
X154027873Y-120978046D02*
X154124635Y-120929665D01*
X154463301Y-120687760D02*
X154850349Y-120687760D01*
X154608444Y-120349093D02*
X154608444Y-121219951D01*
X154608444Y-121219951D02*
X154656825Y-121316713D01*
X154656825Y-121316713D02*
X154753587Y-121365093D01*
X154753587Y-121365093D02*
X154850349Y-121365093D01*
X155189015Y-121365093D02*
X155189015Y-120687760D01*
X155189015Y-120349093D02*
X155140634Y-120397474D01*
X155140634Y-120397474D02*
X155189015Y-120445855D01*
X155189015Y-120445855D02*
X155237396Y-120397474D01*
X155237396Y-120397474D02*
X155189015Y-120349093D01*
X155189015Y-120349093D02*
X155189015Y-120445855D01*
D11*
X169666666Y-86929580D02*
X169714285Y-86977200D01*
X169714285Y-86977200D02*
X169857142Y-87024819D01*
X169857142Y-87024819D02*
X169952380Y-87024819D01*
X169952380Y-87024819D02*
X170095237Y-86977200D01*
X170095237Y-86977200D02*
X170190475Y-86881961D01*
X170190475Y-86881961D02*
X170238094Y-86786723D01*
X170238094Y-86786723D02*
X170285713Y-86596247D01*
X170285713Y-86596247D02*
X170285713Y-86453390D01*
X170285713Y-86453390D02*
X170238094Y-86262914D01*
X170238094Y-86262914D02*
X170190475Y-86167676D01*
X170190475Y-86167676D02*
X170095237Y-86072438D01*
X170095237Y-86072438D02*
X169952380Y-86024819D01*
X169952380Y-86024819D02*
X169857142Y-86024819D01*
X169857142Y-86024819D02*
X169714285Y-86072438D01*
X169714285Y-86072438D02*
X169666666Y-86120057D01*
X169333332Y-86024819D02*
X168714285Y-86024819D01*
X168714285Y-86024819D02*
X169047618Y-86405771D01*
X169047618Y-86405771D02*
X168904761Y-86405771D01*
X168904761Y-86405771D02*
X168809523Y-86453390D01*
X168809523Y-86453390D02*
X168761904Y-86501009D01*
X168761904Y-86501009D02*
X168714285Y-86596247D01*
X168714285Y-86596247D02*
X168714285Y-86834342D01*
X168714285Y-86834342D02*
X168761904Y-86929580D01*
X168761904Y-86929580D02*
X168809523Y-86977200D01*
X168809523Y-86977200D02*
X168904761Y-87024819D01*
X168904761Y-87024819D02*
X169190475Y-87024819D01*
X169190475Y-87024819D02*
X169285713Y-86977200D01*
X169285713Y-86977200D02*
X169333332Y-86929580D01*
X172216666Y-57789580D02*
X172264285Y-57837200D01*
X172264285Y-57837200D02*
X172407142Y-57884819D01*
X172407142Y-57884819D02*
X172502380Y-57884819D01*
X172502380Y-57884819D02*
X172645237Y-57837200D01*
X172645237Y-57837200D02*
X172740475Y-57741961D01*
X172740475Y-57741961D02*
X172788094Y-57646723D01*
X172788094Y-57646723D02*
X172835713Y-57456247D01*
X172835713Y-57456247D02*
X172835713Y-57313390D01*
X172835713Y-57313390D02*
X172788094Y-57122914D01*
X172788094Y-57122914D02*
X172740475Y-57027676D01*
X172740475Y-57027676D02*
X172645237Y-56932438D01*
X172645237Y-56932438D02*
X172502380Y-56884819D01*
X172502380Y-56884819D02*
X172407142Y-56884819D01*
X172407142Y-56884819D02*
X172264285Y-56932438D01*
X172264285Y-56932438D02*
X172216666Y-56980057D01*
X171359523Y-57218152D02*
X171359523Y-57884819D01*
X171597618Y-56837200D02*
X171835713Y-57551485D01*
X171835713Y-57551485D02*
X171216666Y-57551485D01*
X152079166Y-95604819D02*
X152412499Y-95128628D01*
X152650594Y-95604819D02*
X152650594Y-94604819D01*
X152650594Y-94604819D02*
X152269642Y-94604819D01*
X152269642Y-94604819D02*
X152174404Y-94652438D01*
X152174404Y-94652438D02*
X152126785Y-94700057D01*
X152126785Y-94700057D02*
X152079166Y-94795295D01*
X152079166Y-94795295D02*
X152079166Y-94938152D01*
X152079166Y-94938152D02*
X152126785Y-95033390D01*
X152126785Y-95033390D02*
X152174404Y-95081009D01*
X152174404Y-95081009D02*
X152269642Y-95128628D01*
X152269642Y-95128628D02*
X152650594Y-95128628D01*
X151602975Y-95604819D02*
X151412499Y-95604819D01*
X151412499Y-95604819D02*
X151317261Y-95557200D01*
X151317261Y-95557200D02*
X151269642Y-95509580D01*
X151269642Y-95509580D02*
X151174404Y-95366723D01*
X151174404Y-95366723D02*
X151126785Y-95176247D01*
X151126785Y-95176247D02*
X151126785Y-94795295D01*
X151126785Y-94795295D02*
X151174404Y-94700057D01*
X151174404Y-94700057D02*
X151222023Y-94652438D01*
X151222023Y-94652438D02*
X151317261Y-94604819D01*
X151317261Y-94604819D02*
X151507737Y-94604819D01*
X151507737Y-94604819D02*
X151602975Y-94652438D01*
X151602975Y-94652438D02*
X151650594Y-94700057D01*
X151650594Y-94700057D02*
X151698213Y-94795295D01*
X151698213Y-94795295D02*
X151698213Y-95033390D01*
X151698213Y-95033390D02*
X151650594Y-95128628D01*
X151650594Y-95128628D02*
X151602975Y-95176247D01*
X151602975Y-95176247D02*
X151507737Y-95223866D01*
X151507737Y-95223866D02*
X151317261Y-95223866D01*
X151317261Y-95223866D02*
X151222023Y-95176247D01*
X151222023Y-95176247D02*
X151174404Y-95128628D01*
X151174404Y-95128628D02*
X151126785Y-95033390D01*
X152079166Y-90204819D02*
X152412499Y-89728628D01*
X152650594Y-90204819D02*
X152650594Y-89204819D01*
X152650594Y-89204819D02*
X152269642Y-89204819D01*
X152269642Y-89204819D02*
X152174404Y-89252438D01*
X152174404Y-89252438D02*
X152126785Y-89300057D01*
X152126785Y-89300057D02*
X152079166Y-89395295D01*
X152079166Y-89395295D02*
X152079166Y-89538152D01*
X152079166Y-89538152D02*
X152126785Y-89633390D01*
X152126785Y-89633390D02*
X152174404Y-89681009D01*
X152174404Y-89681009D02*
X152269642Y-89728628D01*
X152269642Y-89728628D02*
X152650594Y-89728628D01*
X151222023Y-89204819D02*
X151412499Y-89204819D01*
X151412499Y-89204819D02*
X151507737Y-89252438D01*
X151507737Y-89252438D02*
X151555356Y-89300057D01*
X151555356Y-89300057D02*
X151650594Y-89442914D01*
X151650594Y-89442914D02*
X151698213Y-89633390D01*
X151698213Y-89633390D02*
X151698213Y-90014342D01*
X151698213Y-90014342D02*
X151650594Y-90109580D01*
X151650594Y-90109580D02*
X151602975Y-90157200D01*
X151602975Y-90157200D02*
X151507737Y-90204819D01*
X151507737Y-90204819D02*
X151317261Y-90204819D01*
X151317261Y-90204819D02*
X151222023Y-90157200D01*
X151222023Y-90157200D02*
X151174404Y-90109580D01*
X151174404Y-90109580D02*
X151126785Y-90014342D01*
X151126785Y-90014342D02*
X151126785Y-89776247D01*
X151126785Y-89776247D02*
X151174404Y-89681009D01*
X151174404Y-89681009D02*
X151222023Y-89633390D01*
X151222023Y-89633390D02*
X151317261Y-89585771D01*
X151317261Y-89585771D02*
X151507737Y-89585771D01*
X151507737Y-89585771D02*
X151602975Y-89633390D01*
X151602975Y-89633390D02*
X151650594Y-89681009D01*
X151650594Y-89681009D02*
X151698213Y-89776247D01*
X152099260Y-84797494D02*
X152432593Y-84321303D01*
X152670688Y-84797494D02*
X152670688Y-83797494D01*
X152670688Y-83797494D02*
X152289736Y-83797494D01*
X152289736Y-83797494D02*
X152194498Y-83845113D01*
X152194498Y-83845113D02*
X152146879Y-83892732D01*
X152146879Y-83892732D02*
X152099260Y-83987970D01*
X152099260Y-83987970D02*
X152099260Y-84130827D01*
X152099260Y-84130827D02*
X152146879Y-84226065D01*
X152146879Y-84226065D02*
X152194498Y-84273684D01*
X152194498Y-84273684D02*
X152289736Y-84321303D01*
X152289736Y-84321303D02*
X152670688Y-84321303D01*
X151242117Y-84130827D02*
X151242117Y-84797494D01*
X151480212Y-83749875D02*
X151718307Y-84464160D01*
X151718307Y-84464160D02*
X151099260Y-84464160D01*
X141279198Y-113333757D02*
X141326818Y-113286138D01*
X141326818Y-113286138D02*
X141374437Y-113143281D01*
X141374437Y-113143281D02*
X141374437Y-113048043D01*
X141374437Y-113048043D02*
X141326818Y-112905186D01*
X141326818Y-112905186D02*
X141231579Y-112809948D01*
X141231579Y-112809948D02*
X141136341Y-112762329D01*
X141136341Y-112762329D02*
X140945865Y-112714710D01*
X140945865Y-112714710D02*
X140803008Y-112714710D01*
X140803008Y-112714710D02*
X140612532Y-112762329D01*
X140612532Y-112762329D02*
X140517294Y-112809948D01*
X140517294Y-112809948D02*
X140422056Y-112905186D01*
X140422056Y-112905186D02*
X140374437Y-113048043D01*
X140374437Y-113048043D02*
X140374437Y-113143281D01*
X140374437Y-113143281D02*
X140422056Y-113286138D01*
X140422056Y-113286138D02*
X140469675Y-113333757D01*
X140469675Y-113714710D02*
X140422056Y-113762329D01*
X140422056Y-113762329D02*
X140374437Y-113857567D01*
X140374437Y-113857567D02*
X140374437Y-114095662D01*
X140374437Y-114095662D02*
X140422056Y-114190900D01*
X140422056Y-114190900D02*
X140469675Y-114238519D01*
X140469675Y-114238519D02*
X140564913Y-114286138D01*
X140564913Y-114286138D02*
X140660151Y-114286138D01*
X140660151Y-114286138D02*
X140803008Y-114238519D01*
X140803008Y-114238519D02*
X141374437Y-113667091D01*
X141374437Y-113667091D02*
X141374437Y-114286138D01*
X145937880Y-108067460D02*
X145985500Y-108019841D01*
X145985500Y-108019841D02*
X146033119Y-107876984D01*
X146033119Y-107876984D02*
X146033119Y-107781746D01*
X146033119Y-107781746D02*
X145985500Y-107638889D01*
X145985500Y-107638889D02*
X145890261Y-107543651D01*
X145890261Y-107543651D02*
X145795023Y-107496032D01*
X145795023Y-107496032D02*
X145604547Y-107448413D01*
X145604547Y-107448413D02*
X145461690Y-107448413D01*
X145461690Y-107448413D02*
X145271214Y-107496032D01*
X145271214Y-107496032D02*
X145175976Y-107543651D01*
X145175976Y-107543651D02*
X145080738Y-107638889D01*
X145080738Y-107638889D02*
X145033119Y-107781746D01*
X145033119Y-107781746D02*
X145033119Y-107876984D01*
X145033119Y-107876984D02*
X145080738Y-108019841D01*
X145080738Y-108019841D02*
X145128357Y-108067460D01*
X146033119Y-109019841D02*
X146033119Y-108448413D01*
X146033119Y-108734127D02*
X145033119Y-108734127D01*
X145033119Y-108734127D02*
X145175976Y-108638889D01*
X145175976Y-108638889D02*
X145271214Y-108543651D01*
X145271214Y-108543651D02*
X145318833Y-108448413D01*
X141463119Y-105854960D02*
X140986928Y-105521627D01*
X141463119Y-105283532D02*
X140463119Y-105283532D01*
X140463119Y-105283532D02*
X140463119Y-105664484D01*
X140463119Y-105664484D02*
X140510738Y-105759722D01*
X140510738Y-105759722D02*
X140558357Y-105807341D01*
X140558357Y-105807341D02*
X140653595Y-105854960D01*
X140653595Y-105854960D02*
X140796452Y-105854960D01*
X140796452Y-105854960D02*
X140891690Y-105807341D01*
X140891690Y-105807341D02*
X140939309Y-105759722D01*
X140939309Y-105759722D02*
X140986928Y-105664484D01*
X140986928Y-105664484D02*
X140986928Y-105283532D01*
X140891690Y-106426389D02*
X140844071Y-106331151D01*
X140844071Y-106331151D02*
X140796452Y-106283532D01*
X140796452Y-106283532D02*
X140701214Y-106235913D01*
X140701214Y-106235913D02*
X140653595Y-106235913D01*
X140653595Y-106235913D02*
X140558357Y-106283532D01*
X140558357Y-106283532D02*
X140510738Y-106331151D01*
X140510738Y-106331151D02*
X140463119Y-106426389D01*
X140463119Y-106426389D02*
X140463119Y-106616865D01*
X140463119Y-106616865D02*
X140510738Y-106712103D01*
X140510738Y-106712103D02*
X140558357Y-106759722D01*
X140558357Y-106759722D02*
X140653595Y-106807341D01*
X140653595Y-106807341D02*
X140701214Y-106807341D01*
X140701214Y-106807341D02*
X140796452Y-106759722D01*
X140796452Y-106759722D02*
X140844071Y-106712103D01*
X140844071Y-106712103D02*
X140891690Y-106616865D01*
X140891690Y-106616865D02*
X140891690Y-106426389D01*
X140891690Y-106426389D02*
X140939309Y-106331151D01*
X140939309Y-106331151D02*
X140986928Y-106283532D01*
X140986928Y-106283532D02*
X141082166Y-106235913D01*
X141082166Y-106235913D02*
X141272642Y-106235913D01*
X141272642Y-106235913D02*
X141367880Y-106283532D01*
X141367880Y-106283532D02*
X141415500Y-106331151D01*
X141415500Y-106331151D02*
X141463119Y-106426389D01*
X141463119Y-106426389D02*
X141463119Y-106616865D01*
X141463119Y-106616865D02*
X141415500Y-106712103D01*
X141415500Y-106712103D02*
X141367880Y-106759722D01*
X141367880Y-106759722D02*
X141272642Y-106807341D01*
X141272642Y-106807341D02*
X141082166Y-106807341D01*
X141082166Y-106807341D02*
X140986928Y-106759722D01*
X140986928Y-106759722D02*
X140939309Y-106712103D01*
X140939309Y-106712103D02*
X140891690Y-106616865D01*
X144452141Y-77828751D02*
X143975950Y-77495418D01*
X144452141Y-77257323D02*
X143452141Y-77257323D01*
X143452141Y-77257323D02*
X143452141Y-77638275D01*
X143452141Y-77638275D02*
X143499760Y-77733513D01*
X143499760Y-77733513D02*
X143547379Y-77781132D01*
X143547379Y-77781132D02*
X143642617Y-77828751D01*
X143642617Y-77828751D02*
X143785474Y-77828751D01*
X143785474Y-77828751D02*
X143880712Y-77781132D01*
X143880712Y-77781132D02*
X143928331Y-77733513D01*
X143928331Y-77733513D02*
X143975950Y-77638275D01*
X143975950Y-77638275D02*
X143975950Y-77257323D01*
X143547379Y-78209704D02*
X143499760Y-78257323D01*
X143499760Y-78257323D02*
X143452141Y-78352561D01*
X143452141Y-78352561D02*
X143452141Y-78590656D01*
X143452141Y-78590656D02*
X143499760Y-78685894D01*
X143499760Y-78685894D02*
X143547379Y-78733513D01*
X143547379Y-78733513D02*
X143642617Y-78781132D01*
X143642617Y-78781132D02*
X143737855Y-78781132D01*
X143737855Y-78781132D02*
X143880712Y-78733513D01*
X143880712Y-78733513D02*
X144452141Y-78162085D01*
X144452141Y-78162085D02*
X144452141Y-78781132D01*
X141712466Y-100288946D02*
X142045799Y-99812755D01*
X142283894Y-100288946D02*
X142283894Y-99288946D01*
X142283894Y-99288946D02*
X141902942Y-99288946D01*
X141902942Y-99288946D02*
X141807704Y-99336565D01*
X141807704Y-99336565D02*
X141760085Y-99384184D01*
X141760085Y-99384184D02*
X141712466Y-99479422D01*
X141712466Y-99479422D02*
X141712466Y-99622279D01*
X141712466Y-99622279D02*
X141760085Y-99717517D01*
X141760085Y-99717517D02*
X141807704Y-99765136D01*
X141807704Y-99765136D02*
X141902942Y-99812755D01*
X141902942Y-99812755D02*
X142283894Y-99812755D01*
X140807704Y-99288946D02*
X141283894Y-99288946D01*
X141283894Y-99288946D02*
X141331513Y-99765136D01*
X141331513Y-99765136D02*
X141283894Y-99717517D01*
X141283894Y-99717517D02*
X141188656Y-99669898D01*
X141188656Y-99669898D02*
X140950561Y-99669898D01*
X140950561Y-99669898D02*
X140855323Y-99717517D01*
X140855323Y-99717517D02*
X140807704Y-99765136D01*
X140807704Y-99765136D02*
X140760085Y-99860374D01*
X140760085Y-99860374D02*
X140760085Y-100098469D01*
X140760085Y-100098469D02*
X140807704Y-100193707D01*
X140807704Y-100193707D02*
X140855323Y-100241327D01*
X140855323Y-100241327D02*
X140950561Y-100288946D01*
X140950561Y-100288946D02*
X141188656Y-100288946D01*
X141188656Y-100288946D02*
X141283894Y-100241327D01*
X141283894Y-100241327D02*
X141331513Y-100193707D01*
X147817512Y-82579146D02*
X147341321Y-82245813D01*
X147817512Y-82007718D02*
X146817512Y-82007718D01*
X146817512Y-82007718D02*
X146817512Y-82388670D01*
X146817512Y-82388670D02*
X146865131Y-82483908D01*
X146865131Y-82483908D02*
X146912750Y-82531527D01*
X146912750Y-82531527D02*
X147007988Y-82579146D01*
X147007988Y-82579146D02*
X147150845Y-82579146D01*
X147150845Y-82579146D02*
X147246083Y-82531527D01*
X147246083Y-82531527D02*
X147293702Y-82483908D01*
X147293702Y-82483908D02*
X147341321Y-82388670D01*
X147341321Y-82388670D02*
X147341321Y-82007718D01*
X147817512Y-83531527D02*
X147817512Y-82960099D01*
X147817512Y-83245813D02*
X146817512Y-83245813D01*
X146817512Y-83245813D02*
X146960369Y-83150575D01*
X146960369Y-83150575D02*
X147055607Y-83055337D01*
X147055607Y-83055337D02*
X147103226Y-82960099D01*
X138762466Y-111588946D02*
X139095799Y-111112755D01*
X139333894Y-111588946D02*
X139333894Y-110588946D01*
X139333894Y-110588946D02*
X138952942Y-110588946D01*
X138952942Y-110588946D02*
X138857704Y-110636565D01*
X138857704Y-110636565D02*
X138810085Y-110684184D01*
X138810085Y-110684184D02*
X138762466Y-110779422D01*
X138762466Y-110779422D02*
X138762466Y-110922279D01*
X138762466Y-110922279D02*
X138810085Y-111017517D01*
X138810085Y-111017517D02*
X138857704Y-111065136D01*
X138857704Y-111065136D02*
X138952942Y-111112755D01*
X138952942Y-111112755D02*
X139333894Y-111112755D01*
X138429132Y-110588946D02*
X137762466Y-110588946D01*
X137762466Y-110588946D02*
X138191037Y-111588946D01*
X144367454Y-73662258D02*
X143891263Y-73328925D01*
X144367454Y-73090830D02*
X143367454Y-73090830D01*
X143367454Y-73090830D02*
X143367454Y-73471782D01*
X143367454Y-73471782D02*
X143415073Y-73567020D01*
X143415073Y-73567020D02*
X143462692Y-73614639D01*
X143462692Y-73614639D02*
X143557930Y-73662258D01*
X143557930Y-73662258D02*
X143700787Y-73662258D01*
X143700787Y-73662258D02*
X143796025Y-73614639D01*
X143796025Y-73614639D02*
X143843644Y-73567020D01*
X143843644Y-73567020D02*
X143891263Y-73471782D01*
X143891263Y-73471782D02*
X143891263Y-73090830D01*
X143367454Y-73995592D02*
X143367454Y-74614639D01*
X143367454Y-74614639D02*
X143748406Y-74281306D01*
X143748406Y-74281306D02*
X143748406Y-74424163D01*
X143748406Y-74424163D02*
X143796025Y-74519401D01*
X143796025Y-74519401D02*
X143843644Y-74567020D01*
X143843644Y-74567020D02*
X143938882Y-74614639D01*
X143938882Y-74614639D02*
X144176977Y-74614639D01*
X144176977Y-74614639D02*
X144272215Y-74567020D01*
X144272215Y-74567020D02*
X144319835Y-74519401D01*
X144319835Y-74519401D02*
X144367454Y-74424163D01*
X144367454Y-74424163D02*
X144367454Y-74138449D01*
X144367454Y-74138449D02*
X144319835Y-74043211D01*
X144319835Y-74043211D02*
X144272215Y-73995592D01*
D12*
%TO.C,C3*%
X169761252Y-87515000D02*
X169238748Y-87515000D01*
X169761252Y-88985000D02*
X169238748Y-88985000D01*
%TO.C,C4*%
X171788748Y-56485000D02*
X172311252Y-56485000D01*
X171788748Y-55015000D02*
X172311252Y-55015000D01*
%TO.C,R9*%
X152139564Y-96065000D02*
X151685436Y-96065000D01*
X152139564Y-97535000D02*
X151685436Y-97535000D01*
%TO.C,R6*%
X152139564Y-90665000D02*
X151685436Y-90665000D01*
X152139564Y-92135000D02*
X151685436Y-92135000D01*
%TO.C,R4*%
X152139564Y-85265000D02*
X151685436Y-85265000D01*
X152139564Y-86735000D02*
X151685436Y-86735000D01*
%TO.C,U1*%
X149962927Y-76318453D02*
X149722927Y-75988453D01*
X150202927Y-75988453D01*
X149962927Y-76318453D01*
G36*
X149962927Y-76318453D02*
G01*
X149722927Y-75988453D01*
X150202927Y-75988453D01*
X149962927Y-76318453D01*
G37*
X149102927Y-82038453D02*
X149577927Y-82038453D01*
X153847927Y-82038453D02*
X154322927Y-82038453D01*
X154322927Y-82038453D02*
X154322927Y-81563453D01*
X149102927Y-81563453D02*
X149102927Y-82038453D01*
X154322927Y-77293453D02*
X154322927Y-76818453D01*
X149102927Y-76818453D02*
X149102927Y-77293453D01*
X149577927Y-76818453D02*
X149102927Y-76818453D01*
X154322927Y-76818453D02*
X153847927Y-76818453D01*
%TO.C,C2*%
X138504618Y-113761676D02*
X138504618Y-113239172D01*
X139974618Y-113761676D02*
X139974618Y-113239172D01*
%TO.C,C1*%
X146523300Y-107972875D02*
X146523300Y-108495379D01*
X147993300Y-107972875D02*
X147993300Y-108495379D01*
%TO.C,R8*%
X138623300Y-106248691D02*
X138623300Y-105794563D01*
X140093300Y-106248691D02*
X140093300Y-105794563D01*
%TO.C,R2*%
X146297635Y-78280989D02*
X146297635Y-77826861D01*
X144827635Y-78280989D02*
X144827635Y-77826861D01*
%TO.C,R5*%
X141772864Y-100749127D02*
X141318736Y-100749127D01*
X141772864Y-102219127D02*
X141318736Y-102219127D01*
%TO.C,R1*%
X144802380Y-82472742D02*
X144802380Y-82926870D01*
X146272380Y-82472742D02*
X146272380Y-82926870D01*
%TO.C,R7*%
X138368736Y-108749127D02*
X138822864Y-108749127D01*
X138368736Y-110219127D02*
X138822864Y-110219127D01*
%TO.C,R3*%
X146297635Y-73601861D02*
X146297635Y-74055989D01*
X144827635Y-73601861D02*
X144827635Y-74055989D01*
%TD*%
M02*
