M48
; DRILL file {KiCad 9.0.5} date 2025-10-05T20:42:40-0500
; FORMAT={-:-/ absolute / inch / decimal}
; #@! TF.CreationDate,2025-10-05T20:42:40-05:00
; #@! TF.GenerationSoftware,Kicad,Pcbnew,9.0.5
; #@! TF.FileFunction,Plated,1,2,PTH
FMAT,2
INCH
; #@! TA.AperFunction,Plated,PTH,ViaDrill
T1C0.0118
; #@! TA.AperFunction,Plated,PTH,ComponentDrill
T2C0.0315
; #@! TA.AperFunction,Plated,PTH,ComponentDrill
T3C0.0354
; #@! TA.AperFunction,Plated,PTH,ComponentDrill
T4C0.0394
; #@! TA.AperFunction,Plated,PTH,ComponentDrill
T5C0.0413
; #@! TA.AperFunction,Plated,PTH,ComponentDrill
T6C0.0512
; #@! TA.AperFunction,Plated,PTH,ComponentDrill
T7C0.1260
%
G90
G05
T1
X5.4117Y-4.212
X5.4925Y-4.3478
X5.6299Y-3.2677
X5.7087Y-3.1102
X5.7308Y-3.0371
X5.7885Y-3.1527
X5.8071Y-3.3071
X5.8268Y-3.1102
X5.8465Y-3.3366
X5.9154Y-3.2835
X6.1024Y-3.0315
X6.126Y-3.0031
X6.1417Y-3.0315
X6.1417Y-3.0709
X6.1992Y-2.9535
X6.2047Y-3.2283
X6.5748Y-2.9921
X6.5748Y-3.8189
T2
X5.6086Y-4.1116
X5.6086Y-4.2116
X5.6086Y-4.3116
X5.6086Y-4.4116
X5.9086Y-4.1116
X5.9086Y-4.2116
X5.9086Y-4.3116
X5.9086Y-4.4116
T3
X5.9233Y-3.4831
X5.9233Y-3.6957
X5.9233Y-3.9083
X6.0231Y-2.2334
X6.0233Y-3.4831
X6.0233Y-3.6957
X6.0233Y-3.9083
X6.1231Y-2.2334
T4
X5.4153Y-2.8862
X5.4153Y-2.9953
X5.4153Y-3.1043
X5.4153Y-3.2134
X5.5271Y-2.8317
X5.5271Y-2.9407
X5.5271Y-3.0498
X5.5271Y-3.1589
X5.5271Y-3.2679
X6.2565Y-2.0771
X6.2565Y-2.1771
X6.2565Y-2.2771
X6.2565Y-2.3771
X6.2565Y-2.4771
X6.2565Y-2.5771
X6.2565Y-2.6771
X6.2565Y-2.7771
X6.2565Y-2.8771
X6.2565Y-2.9771
X6.2565Y-3.0771
X6.2565Y-3.1771
X6.2565Y-3.2771
X6.2565Y-3.3771
X6.2565Y-3.4771
X6.2565Y-3.5771
X6.2565Y-3.6771
X6.2565Y-3.7771
X6.2565Y-3.8771
X6.2565Y-3.9771
X6.2565Y-4.0771
X6.2565Y-4.1771
X6.2565Y-4.2771
X6.2565Y-4.3771
X6.4783Y-2.0771
X6.4783Y-2.1771
X6.4783Y-2.2771
X6.4783Y-2.3771
X6.4783Y-2.4771
X6.4783Y-2.5771
X6.4783Y-2.6771
X6.4783Y-2.7771
X6.4783Y-2.8771
X6.4783Y-2.9771
X6.4783Y-3.0771
X6.4783Y-3.1771
X6.4783Y-3.2771
X6.4783Y-3.3771
X6.4783Y-3.4771
X6.4783Y-3.5771
X6.4783Y-3.6771
X6.4783Y-3.7771
X6.4783Y-3.8771
X6.4783Y-3.9771
X6.4783Y-4.0771
X6.4783Y-4.1771
X6.4783Y-4.2771
X6.4783Y-4.3771
X7.0783Y-2.0771
X7.0783Y-2.1771
X7.0783Y-2.2771
X7.0783Y-2.3771
X7.0783Y-2.4771
X7.0783Y-2.5771
X7.0783Y-2.6771
X7.0783Y-2.7771
X7.0783Y-2.8771
X7.0783Y-2.9771
X7.0783Y-3.0771
X7.0783Y-3.1771
X7.0783Y-3.2771
X7.0783Y-3.3771
X7.0783Y-3.4771
X7.0783Y-3.5771
X7.0783Y-3.6771
X7.0783Y-3.7771
X7.0783Y-3.8771
X7.0783Y-3.9771
X7.0783Y-4.0771
X7.0783Y-4.1771
X7.0783Y-4.2771
X7.0783Y-4.3771
X7.2997Y-2.0771
X7.2997Y-2.1771
X7.2997Y-2.2771
X7.2997Y-2.3771
X7.2997Y-2.4771
X7.2997Y-2.5771
X7.2997Y-2.6771
X7.2997Y-2.7771
X7.2997Y-2.8771
X7.2997Y-2.9771
X7.2997Y-3.0771
X7.2997Y-3.1771
X7.2997Y-3.2771
X7.2997Y-3.3771
X7.2997Y-3.4771
X7.2997Y-3.5771
X7.2997Y-3.6771
X7.2997Y-3.7771
X7.2997Y-3.8771
X7.2997Y-3.9771
X7.2997Y-4.0771
X7.2997Y-4.1771
X7.2997Y-4.2771
X7.2997Y-4.3771
X7.4994Y-2.9354
X7.4994Y-3.0354
X7.4994Y-3.1354
X7.4994Y-3.2354
X7.4994Y-3.3354
X7.4994Y-3.4354
T5
X5.2934Y-3.8551
X5.2934Y-3.9535
X5.2934Y-4.2442
X5.2934Y-4.3426
T6
X5.6299Y-2.1747
X5.8268Y-2.1747
T7
X5.4712Y-2.5577
X5.4712Y-3.5419
M30
