%TF.GenerationSoftware,KiCad,Pcbnew,9.0.5*%
%TF.CreationDate,2025-10-05T20:42:35-05:00*%
%TF.ProjectId,ATO-Encoder-PCB,41544f2d-456e-4636-9f64-65722d504342,rev?*%
%TF.SameCoordinates,Original*%
%TF.FileFunction,Soldermask,Top*%
%TF.FilePolarity,Negative*%
%FSLAX46Y46*%
G04 Gerber Fmt 4.6, Leading zero omitted, Abs format (unit mm)*
G04 Created by KiCad (PCBNEW 9.0.5) date 2025-10-05 20:42:35*
%MOMM*%
%LPD*%
G01*
G04 APERTURE LIST*
G04 Aperture macros list*
%AMRoundRect*
0 Rectangle with rounded corners*
0 $1 Rounding radius*
0 $2 $3 $4 $5 $6 $7 $8 $9 X,Y pos of 4 corners*
0 Add a 4 corners polygon primitive as box body*
4,1,4,$2,$3,$4,$5,$6,$7,$8,$9,$2,$3,0*
0 Add four circle primitives for the rounded corners*
1,1,$1+$1,$2,$3*
1,1,$1+$1,$4,$5*
1,1,$1+$1,$6,$7*
1,1,$1+$1,$8,$9*
0 Add four rect primitives between the rounded corners*
20,1,$1+$1,$2,$3,$4,$5,0*
20,1,$1+$1,$4,$5,$6,$7,0*
20,1,$1+$1,$6,$7,$8,$9,0*
20,1,$1+$1,$8,$9,$2,$3,0*%
G04 Aperture macros list end*
%ADD10RoundRect,0.050800X0.900000X0.900000X-0.900000X0.900000X-0.900000X-0.900000X0.900000X-0.900000X0*%
%ADD11C,1.901600*%
%ADD12RoundRect,0.050800X-0.900000X-0.900000X0.900000X-0.900000X0.900000X0.900000X-0.900000X0.900000X0*%
%ADD13RoundRect,0.274780X-0.288520X-0.476020X0.288520X-0.476020X0.288520X0.476020X-0.288520X0.476020X0*%
%ADD14RoundRect,0.259072X1.191728X1.191728X-1.191728X1.191728X-1.191728X-1.191728X1.191728X-1.191728X0*%
%ADD15C,2.901600*%
%ADD16RoundRect,0.265875X0.584925X0.584925X-0.584925X0.584925X-0.584925X-0.584925X0.584925X-0.584925X0*%
%ADD17C,1.701600*%
%ADD18RoundRect,0.102000X-0.787500X0.787500X-0.787500X-0.787500X0.787500X-0.787500X0.787500X0.787500X0*%
%ADD19C,1.779000*%
%ADD20C,1.801600*%
%ADD21RoundRect,0.050800X-0.850000X-0.850000X0.850000X-0.850000X0.850000X0.850000X-0.850000X0.850000X0*%
%ADD22RoundRect,0.050800X0.850000X0.850000X-0.850000X0.850000X-0.850000X-0.850000X0.850000X-0.850000X0*%
%ADD23RoundRect,0.050800X-0.800000X0.800000X-0.800000X-0.800000X0.800000X-0.800000X0.800000X0.800000X0*%
%ADD24C,4.101600*%
G04 APERTURE END LIST*
D10*
%TO.C,D4*%
X155526326Y-56729615D03*
D11*
X152986326Y-56729615D03*
%TD*%
D12*
%TO.C,D3*%
X150450996Y-99271292D03*
D11*
X152990996Y-99271292D03*
%TD*%
D12*
%TO.C,D2*%
X150450996Y-93871292D03*
D11*
X152990996Y-93871292D03*
%TD*%
D12*
%TO.C,D1*%
X150450996Y-88471292D03*
D11*
X152990996Y-88471292D03*
%TD*%
D13*
%TO.C,R10*%
X153675000Y-53000000D03*
X155500000Y-53000000D03*
%TD*%
D14*
%TO.C,J5*%
X147999999Y-55237433D03*
D15*
X142999999Y-55237433D03*
%TD*%
D16*
%TO.C,IC1*%
X150078300Y-112054127D03*
D17*
X150078300Y-109514127D03*
X150078300Y-106974127D03*
X150078300Y-104434127D03*
X142458300Y-104434127D03*
X142458300Y-106974127D03*
X142458300Y-109514127D03*
X142458300Y-112054127D03*
%TD*%
D18*
%TO.C,J3*%
X134453300Y-100419127D03*
D19*
X134453300Y-97919127D03*
%TD*%
D20*
%TO.C,JP1*%
X158915663Y-111177632D03*
X158915663Y-108637632D03*
X158915663Y-106097632D03*
X158915663Y-103557632D03*
X158915663Y-101017632D03*
X158915663Y-98477632D03*
X158915663Y-95937632D03*
X158915663Y-93397632D03*
X158915663Y-90857632D03*
X158915663Y-88317632D03*
X158915663Y-85777632D03*
X158915663Y-83237632D03*
X158915663Y-80697632D03*
X158915663Y-78157632D03*
X158915663Y-75617632D03*
X158915663Y-73077632D03*
X158915663Y-70537632D03*
X158915663Y-67997632D03*
X158915663Y-65457632D03*
X158915663Y-62917632D03*
X158915663Y-60377632D03*
X158915663Y-57837632D03*
X158915663Y-55297632D03*
D21*
X158915663Y-52757632D03*
%TD*%
D20*
%TO.C,JP2*%
X185412783Y-111177632D03*
X185412783Y-108637632D03*
X185412783Y-106097632D03*
X185412783Y-103557632D03*
X185412783Y-101017632D03*
X185412783Y-98477632D03*
X185412783Y-95937632D03*
X185412783Y-93397632D03*
X185412783Y-90857632D03*
X185412783Y-88317632D03*
X185412783Y-85777632D03*
X185412783Y-83237632D03*
X185412783Y-80697632D03*
X185412783Y-78157632D03*
X185412783Y-75617632D03*
X185412783Y-73077632D03*
X185412783Y-70537632D03*
X185412783Y-67997632D03*
X185412783Y-65457632D03*
X185412783Y-62917632D03*
X185412783Y-60377632D03*
X185412783Y-57837632D03*
X185412783Y-55297632D03*
D21*
X185412783Y-52757632D03*
%TD*%
D18*
%TO.C,J2*%
X134453300Y-110301627D03*
D19*
X134453300Y-107801627D03*
%TD*%
D21*
%TO.C,U$1*%
X179789223Y-52757632D03*
D20*
X179789223Y-55297632D03*
X179789223Y-57837632D03*
X179789223Y-60377632D03*
X179789223Y-62917632D03*
X179789223Y-65457632D03*
X179789223Y-67997632D03*
X179789223Y-70537632D03*
X179789223Y-73077632D03*
X179789223Y-75617632D03*
X179789223Y-78157632D03*
X179789223Y-80697632D03*
X179789223Y-83237632D03*
X179789223Y-85777632D03*
X179789223Y-88317632D03*
X179789223Y-90857632D03*
X179789223Y-93397632D03*
X179789223Y-95937632D03*
X179789223Y-98477632D03*
X179789223Y-101017632D03*
X179789223Y-103557632D03*
X179789223Y-106097632D03*
X179789223Y-108637632D03*
X179789223Y-111177632D03*
X164549223Y-111177632D03*
X164549223Y-108637632D03*
X164549223Y-106097632D03*
X164549223Y-103557632D03*
X164549223Y-101017632D03*
X164549223Y-98477632D03*
X164549223Y-95937632D03*
X164549223Y-93397632D03*
X164549223Y-90857632D03*
X164549223Y-88317632D03*
X164549223Y-85777632D03*
X164549223Y-83237632D03*
X164549223Y-80697632D03*
X164549223Y-78157632D03*
X164549223Y-75617632D03*
X164549223Y-73077632D03*
X164549223Y-70537632D03*
X164549223Y-67997632D03*
X164549223Y-65457632D03*
X164549223Y-62917632D03*
X164549223Y-60377632D03*
X164549223Y-57837632D03*
X164549223Y-55297632D03*
D21*
X164549223Y-52757632D03*
%TD*%
D20*
%TO.C,J4*%
X190483771Y-74559001D03*
X190483771Y-77099001D03*
X190483771Y-79639001D03*
X190483771Y-82179001D03*
X190483771Y-84719001D03*
D22*
X190483771Y-87259001D03*
%TD*%
D17*
%TO.C,J1*%
X137547520Y-73310021D03*
X137547520Y-76080021D03*
X137547520Y-78850021D03*
X137547520Y-81620021D03*
X140387520Y-71925021D03*
X140387520Y-74695021D03*
X140387520Y-77465021D03*
X140387520Y-80235021D03*
D23*
X140387520Y-83005021D03*
D24*
X138967520Y-89965021D03*
X138967520Y-64965021D03*
%TD*%
M02*
