%TF.GenerationSoftware,KiCad,Pcbnew,9.0.5*%
%TF.CreationDate,2025-10-06T18:32:33-05:00*%
%TF.ProjectId,ATO-Encoder-PCB,41544f2d-456e-4636-9f64-65722d504342,rev?*%
%TF.SameCoordinates,Original*%
%TF.FileFunction,Soldermask,Bot*%
%TF.FilePolarity,Negative*%
%FSLAX46Y46*%
G04 Gerber Fmt 4.6, Leading zero omitted, Abs format (unit mm)*
G04 Created by KiCad (PCBNEW 9.0.5) date 2025-10-06 18:32:33*
%MOMM*%
%LPD*%
G01*
G04 APERTURE LIST*
G04 Aperture macros list*
%AMRoundRect*
0 Rectangle with rounded corners*
0 $1 Rounding radius*
0 $2 $3 $4 $5 $6 $7 $8 $9 X,Y pos of 4 corners*
0 Add a 4 corners polygon primitive as box body*
4,1,4,$2,$3,$4,$5,$6,$7,$8,$9,$2,$3,0*
0 Add four circle primitives for the rounded corners*
1,1,$1+$1,$2,$3*
1,1,$1+$1,$4,$5*
1,1,$1+$1,$6,$7*
1,1,$1+$1,$8,$9*
0 Add four rect primitives between the rounded corners*
20,1,$1+$1,$2,$3,$4,$5,0*
20,1,$1+$1,$4,$5,$6,$7,0*
20,1,$1+$1,$6,$7,$8,$9,0*
20,1,$1+$1,$8,$9,$2,$3,0*%
%AMFreePoly0*
4,1,27,0.369441,0.171933,0.413635,0.153627,0.441127,0.126135,0.459433,0.081941,0.463300,0.062500,0.463300,-0.009112,0.459433,-0.028553,0.441127,-0.072747,0.430115,-0.089227,0.376727,-0.142615,0.360247,-0.153627,0.316053,-0.171933,0.296612,-0.175800,-0.350000,-0.175800,-0.369441,-0.171933,-0.413635,-0.153627,-0.441127,-0.126135,-0.459433,-0.081941,-0.463300,-0.062500,-0.463300,0.062500,
-0.459433,0.081941,-0.441127,0.126135,-0.413635,0.153627,-0.369441,0.171933,-0.350000,0.175800,0.350000,0.175800,0.369441,0.171933,0.369441,0.171933,$1*%
%AMFreePoly1*
4,1,27,0.316053,0.171933,0.360247,0.153627,0.376727,0.142615,0.430115,0.089227,0.441127,0.072747,0.459433,0.028553,0.463300,0.009112,0.463300,-0.062500,0.459433,-0.081941,0.441127,-0.126135,0.413635,-0.153627,0.369441,-0.171933,0.350000,-0.175800,-0.350000,-0.175800,-0.369441,-0.171933,-0.413635,-0.153627,-0.441127,-0.126135,-0.459433,-0.081941,-0.463300,-0.062500,-0.463300,0.062500,
-0.459433,0.081941,-0.441127,0.126135,-0.413635,0.153627,-0.369441,0.171933,-0.350000,0.175800,0.296612,0.175800,0.316053,0.171933,0.316053,0.171933,$1*%
%AMFreePoly2*
4,1,27,0.081941,0.459433,0.126135,0.441127,0.153627,0.413635,0.171933,0.369441,0.175800,0.350000,0.175800,-0.350000,0.171933,-0.369441,0.153627,-0.413635,0.126135,-0.441127,0.081941,-0.459433,0.062500,-0.463300,-0.009112,-0.463300,-0.028553,-0.459433,-0.072747,-0.441127,-0.089227,-0.430115,-0.142615,-0.376727,-0.153627,-0.360247,-0.171933,-0.316053,-0.175800,-0.296612,-0.175800,0.350000,
-0.171933,0.369441,-0.153627,0.413635,-0.126135,0.441127,-0.081941,0.459433,-0.062500,0.463300,0.062500,0.463300,0.081941,0.459433,0.081941,0.459433,$1*%
%AMFreePoly3*
4,1,27,0.081941,0.459433,0.126135,0.441127,0.153627,0.413635,0.171933,0.369441,0.175800,0.350000,0.175800,-0.296612,0.171933,-0.316053,0.153627,-0.360247,0.142615,-0.376727,0.089227,-0.430115,0.072747,-0.441127,0.028553,-0.459433,0.009112,-0.463300,-0.062500,-0.463300,-0.081941,-0.459433,-0.126135,-0.441127,-0.153627,-0.413635,-0.171933,-0.369441,-0.175800,-0.350000,-0.175800,0.350000,
-0.171933,0.369441,-0.153627,0.413635,-0.126135,0.441127,-0.081941,0.459433,-0.062500,0.463300,0.062500,0.463300,0.081941,0.459433,0.081941,0.459433,$1*%
%AMFreePoly4*
4,1,27,0.369441,0.171933,0.413635,0.153627,0.441127,0.126135,0.459433,0.081941,0.463300,0.062500,0.463300,-0.062500,0.459433,-0.081941,0.441127,-0.126135,0.413635,-0.153627,0.369441,-0.171933,0.350000,-0.175800,-0.350000,-0.175800,-0.369441,-0.171933,-0.413635,-0.153627,-0.441127,-0.126135,-0.459433,-0.081941,-0.463300,-0.062500,-0.463300,0.009112,-0.459433,0.028553,-0.441127,0.072747,
-0.430115,0.089227,-0.376727,0.142615,-0.360247,0.153627,-0.316053,0.171933,-0.296612,0.175800,0.350000,0.175800,0.369441,0.171933,0.369441,0.171933,$1*%
%AMFreePoly5*
4,1,27,0.369441,0.171933,0.413635,0.153627,0.441127,0.126135,0.459433,0.081941,0.463300,0.062500,0.463300,-0.062500,0.459433,-0.081941,0.441127,-0.126135,0.413635,-0.153627,0.369441,-0.171933,0.350000,-0.175800,-0.296612,-0.175800,-0.316053,-0.171933,-0.360247,-0.153627,-0.376727,-0.142615,-0.430115,-0.089227,-0.441127,-0.072747,-0.459433,-0.028553,-0.463300,-0.009112,-0.463300,0.062500,
-0.459433,0.081941,-0.441127,0.126135,-0.413635,0.153627,-0.369441,0.171933,-0.350000,0.175800,0.350000,0.175800,0.369441,0.171933,0.369441,0.171933,$1*%
%AMFreePoly6*
4,1,27,0.028553,0.459433,0.072747,0.441127,0.089227,0.430115,0.142615,0.376727,0.153627,0.360247,0.171933,0.316053,0.175800,0.296612,0.175800,-0.350000,0.171933,-0.369441,0.153627,-0.413635,0.126135,-0.441127,0.081941,-0.459433,0.062500,-0.463300,-0.062500,-0.463300,-0.081941,-0.459433,-0.126135,-0.441127,-0.153627,-0.413635,-0.171933,-0.369441,-0.175800,-0.350000,-0.175800,0.350000,
-0.171933,0.369441,-0.153627,0.413635,-0.126135,0.441127,-0.081941,0.459433,-0.062500,0.463300,0.009112,0.463300,0.028553,0.459433,0.028553,0.459433,$1*%
%AMFreePoly7*
4,1,27,0.081941,0.459433,0.126135,0.441127,0.153627,0.413635,0.171933,0.369441,0.175800,0.350000,0.175800,-0.350000,0.171933,-0.369441,0.153627,-0.413635,0.126135,-0.441127,0.081941,-0.459433,0.062500,-0.463300,-0.062500,-0.463300,-0.081941,-0.459433,-0.126135,-0.441127,-0.153627,-0.413635,-0.171933,-0.369441,-0.175800,-0.350000,-0.175800,0.296612,-0.171933,0.316053,-0.153627,0.360247,
-0.142615,0.376727,-0.089227,0.430115,-0.072747,0.441127,-0.028553,0.459433,-0.009112,0.463300,0.062500,0.463300,0.081941,0.459433,0.081941,0.459433,$1*%
G04 Aperture macros list end*
%ADD10RoundRect,0.050800X0.850000X0.850000X-0.850000X0.850000X-0.850000X-0.850000X0.850000X-0.850000X0*%
%ADD11C,1.801600*%
%ADD12C,4.101600*%
%ADD13RoundRect,0.050800X-0.800000X0.800000X-0.800000X-0.800000X0.800000X-0.800000X0.800000X0.800000X0*%
%ADD14C,1.701600*%
%ADD15RoundRect,0.265875X0.584925X0.584925X-0.584925X0.584925X-0.584925X-0.584925X0.584925X-0.584925X0*%
%ADD16RoundRect,0.102000X-0.787500X0.787500X-0.787500X-0.787500X0.787500X-0.787500X0.787500X0.787500X0*%
%ADD17C,1.779000*%
%ADD18RoundRect,0.050800X-0.850000X-0.850000X0.850000X-0.850000X0.850000X0.850000X-0.850000X0.850000X0*%
%ADD19RoundRect,0.050800X0.900000X0.900000X-0.900000X0.900000X-0.900000X-0.900000X0.900000X-0.900000X0*%
%ADD20C,1.901600*%
%ADD21RoundRect,0.050800X-0.900000X-0.900000X0.900000X-0.900000X0.900000X0.900000X-0.900000X0.900000X0*%
%ADD22RoundRect,0.274780X0.288520X0.476020X-0.288520X0.476020X-0.288520X-0.476020X0.288520X-0.476020X0*%
%ADD23RoundRect,0.275400X0.500400X-0.275400X0.500400X0.275400X-0.500400X0.275400X-0.500400X-0.275400X0*%
%ADD24RoundRect,0.275400X-0.500400X0.275400X-0.500400X-0.275400X0.500400X-0.275400X0.500400X0.275400X0*%
%ADD25RoundRect,0.274780X0.476020X-0.288520X0.476020X0.288520X-0.476020X0.288520X-0.476020X-0.288520X0*%
%ADD26RoundRect,0.275400X0.275400X0.500400X-0.275400X0.500400X-0.275400X-0.500400X0.275400X-0.500400X0*%
%ADD27RoundRect,0.275400X-0.275400X-0.500400X0.275400X-0.500400X0.275400X0.500400X-0.275400X0.500400X0*%
%ADD28RoundRect,0.274780X-0.476020X0.288520X-0.476020X-0.288520X0.476020X-0.288520X0.476020X0.288520X0*%
%ADD29RoundRect,0.274780X-0.288520X-0.476020X0.288520X-0.476020X0.288520X0.476020X-0.288520X0.476020X0*%
%ADD30FreePoly0,270.000000*%
%ADD31RoundRect,0.087900X-0.087900X0.375400X-0.087900X-0.375400X0.087900X-0.375400X0.087900X0.375400X0*%
%ADD32FreePoly1,270.000000*%
%ADD33FreePoly2,270.000000*%
%ADD34RoundRect,0.087900X-0.375400X0.087900X-0.375400X-0.087900X0.375400X-0.087900X0.375400X0.087900X0*%
%ADD35FreePoly3,270.000000*%
%ADD36FreePoly4,270.000000*%
%ADD37FreePoly5,270.000000*%
%ADD38FreePoly6,270.000000*%
%ADD39FreePoly7,270.000000*%
%ADD40RoundRect,0.050800X-1.550000X1.550000X-1.550000X-1.550000X1.550000X-1.550000X1.550000X1.550000X0*%
%ADD41RoundRect,0.259072X1.191728X1.191728X-1.191728X1.191728X-1.191728X-1.191728X1.191728X-1.191728X0*%
%ADD42C,2.901600*%
G04 APERTURE END LIST*
D10*
%TO.C,J4*%
X190483771Y-87259001D03*
D11*
X190483771Y-84719001D03*
X190483771Y-82179001D03*
X190483771Y-79639001D03*
X190483771Y-77099001D03*
X190483771Y-74559001D03*
%TD*%
D12*
%TO.C,J1*%
X138967520Y-64965021D03*
X138967520Y-89965021D03*
D13*
X140387520Y-83005021D03*
D14*
X140387520Y-80235021D03*
X140387520Y-77465021D03*
X140387520Y-74695021D03*
X140387520Y-71925021D03*
X137547520Y-81620021D03*
X137547520Y-78850021D03*
X137547520Y-76080021D03*
X137547520Y-73310021D03*
%TD*%
D15*
%TO.C,IC1*%
X150078300Y-112054127D03*
D14*
X150078300Y-109514127D03*
X150078300Y-106974127D03*
X150078300Y-104434127D03*
X142458300Y-104434127D03*
X142458300Y-106974127D03*
X142458300Y-109514127D03*
X142458300Y-112054127D03*
%TD*%
D16*
%TO.C,J3*%
X134453300Y-100419127D03*
D17*
X134453300Y-97919127D03*
%TD*%
D18*
%TO.C,JP1*%
X158915663Y-52757632D03*
D11*
X158915663Y-55297632D03*
X158915663Y-57837632D03*
X158915663Y-60377632D03*
X158915663Y-62917632D03*
X158915663Y-65457632D03*
X158915663Y-67997632D03*
X158915663Y-70537632D03*
X158915663Y-73077632D03*
X158915663Y-75617632D03*
X158915663Y-78157632D03*
X158915663Y-80697632D03*
X158915663Y-83237632D03*
X158915663Y-85777632D03*
X158915663Y-88317632D03*
X158915663Y-90857632D03*
X158915663Y-93397632D03*
X158915663Y-95937632D03*
X158915663Y-98477632D03*
X158915663Y-101017632D03*
X158915663Y-103557632D03*
X158915663Y-106097632D03*
X158915663Y-108637632D03*
X158915663Y-111177632D03*
%TD*%
D19*
%TO.C,D4*%
X155526326Y-56729615D03*
D20*
X152986326Y-56729615D03*
%TD*%
D21*
%TO.C,D1*%
X150450996Y-88471292D03*
D20*
X152990996Y-88471292D03*
%TD*%
D21*
%TO.C,D2*%
X150450996Y-93871292D03*
D20*
X152990996Y-93871292D03*
%TD*%
D18*
%TO.C,JP2*%
X185412783Y-52757632D03*
D11*
X185412783Y-55297632D03*
X185412783Y-57837632D03*
X185412783Y-60377632D03*
X185412783Y-62917632D03*
X185412783Y-65457632D03*
X185412783Y-67997632D03*
X185412783Y-70537632D03*
X185412783Y-73077632D03*
X185412783Y-75617632D03*
X185412783Y-78157632D03*
X185412783Y-80697632D03*
X185412783Y-83237632D03*
X185412783Y-85777632D03*
X185412783Y-88317632D03*
X185412783Y-90857632D03*
X185412783Y-93397632D03*
X185412783Y-95937632D03*
X185412783Y-98477632D03*
X185412783Y-101017632D03*
X185412783Y-103557632D03*
X185412783Y-106097632D03*
X185412783Y-108637632D03*
X185412783Y-111177632D03*
%TD*%
D16*
%TO.C,J2*%
X134453300Y-110301627D03*
D17*
X134453300Y-107801627D03*
%TD*%
D21*
%TO.C,D3*%
X150450996Y-99271292D03*
D20*
X152990996Y-99271292D03*
%TD*%
D22*
%TO.C,R6*%
X152825000Y-91400000D03*
X151000000Y-91400000D03*
%TD*%
D23*
%TO.C,C2*%
X139239618Y-114450424D03*
X139239618Y-112550424D03*
%TD*%
D24*
%TO.C,C1*%
X147258300Y-107284127D03*
X147258300Y-109184127D03*
%TD*%
D25*
%TO.C,R8*%
X139358300Y-106934127D03*
X139358300Y-105109127D03*
%TD*%
D26*
%TO.C,C4*%
X170450000Y-88250000D03*
X168550000Y-88250000D03*
%TD*%
D27*
%TO.C,C3*%
X171100000Y-55750000D03*
X173000000Y-55750000D03*
%TD*%
D22*
%TO.C,R9*%
X152825000Y-96800000D03*
X151000000Y-96800000D03*
%TD*%
D25*
%TO.C,R2*%
X145562635Y-78966425D03*
X145562635Y-77141425D03*
%TD*%
D22*
%TO.C,R4*%
X152825000Y-86000000D03*
X151000000Y-86000000D03*
%TD*%
%TO.C,R5*%
X142458300Y-101484127D03*
X140633300Y-101484127D03*
%TD*%
D28*
%TO.C,R1*%
X145537380Y-81787306D03*
X145537380Y-83612306D03*
%TD*%
D29*
%TO.C,R7*%
X137683300Y-109484127D03*
X139508300Y-109484127D03*
%TD*%
D30*
%TO.C,U1*%
X149962927Y-76990953D03*
D31*
X150462927Y-76990953D03*
X150962927Y-76990953D03*
X151462927Y-76990953D03*
X151962927Y-76990953D03*
X152462927Y-76990953D03*
X152962927Y-76990953D03*
D32*
X153462927Y-76990953D03*
D33*
X154150427Y-77678453D03*
D34*
X154150427Y-78178453D03*
X154150427Y-78678453D03*
X154150427Y-79178453D03*
X154150427Y-79678453D03*
X154150427Y-80178453D03*
X154150427Y-80678453D03*
D35*
X154150427Y-81178453D03*
D36*
X153462927Y-81865953D03*
D31*
X152962927Y-81865953D03*
X152462927Y-81865953D03*
X151962927Y-81865953D03*
X151462927Y-81865953D03*
X150962927Y-81865953D03*
X150462927Y-81865953D03*
D37*
X149962927Y-81865953D03*
D38*
X149275427Y-81178453D03*
D34*
X149275427Y-80678453D03*
X149275427Y-80178453D03*
X149275427Y-79678453D03*
X149275427Y-79178453D03*
X149275427Y-78678453D03*
X149275427Y-78178453D03*
D39*
X149275427Y-77678453D03*
D40*
X151712927Y-79428453D03*
%TD*%
D28*
%TO.C,R3*%
X145562635Y-72916425D03*
X145562635Y-74741425D03*
%TD*%
D18*
%TO.C,U$1*%
X164549223Y-52757632D03*
D11*
X164549223Y-55297632D03*
X164549223Y-57837632D03*
X164549223Y-60377632D03*
X164549223Y-62917632D03*
X164549223Y-65457632D03*
X164549223Y-67997632D03*
X164549223Y-70537632D03*
X164549223Y-73077632D03*
X164549223Y-75617632D03*
X164549223Y-78157632D03*
X164549223Y-80697632D03*
X164549223Y-83237632D03*
X164549223Y-85777632D03*
X164549223Y-88317632D03*
X164549223Y-90857632D03*
X164549223Y-93397632D03*
X164549223Y-95937632D03*
X164549223Y-98477632D03*
X164549223Y-101017632D03*
X164549223Y-103557632D03*
X164549223Y-106097632D03*
X164549223Y-108637632D03*
X164549223Y-111177632D03*
X179789223Y-111177632D03*
X179789223Y-108637632D03*
X179789223Y-106097632D03*
X179789223Y-103557632D03*
X179789223Y-101017632D03*
X179789223Y-98477632D03*
X179789223Y-95937632D03*
X179789223Y-93397632D03*
X179789223Y-90857632D03*
X179789223Y-88317632D03*
X179789223Y-85777632D03*
X179789223Y-83237632D03*
X179789223Y-80697632D03*
X179789223Y-78157632D03*
X179789223Y-75617632D03*
X179789223Y-73077632D03*
X179789223Y-70537632D03*
X179789223Y-67997632D03*
X179789223Y-65457632D03*
X179789223Y-62917632D03*
X179789223Y-60377632D03*
X179789223Y-57837632D03*
X179789223Y-55297632D03*
D18*
X179789223Y-52757632D03*
%TD*%
D41*
%TO.C,J5*%
X147999999Y-55237433D03*
D42*
X142999999Y-55237433D03*
%TD*%
M02*
