%TF.GenerationSoftware,KiCad,Pcbnew,9.0.5*%
%TF.CreationDate,2025-10-05T20:42:34-05:00*%
%TF.ProjectId,ATO-Encoder-PCB,41544f2d-456e-4636-9f64-65722d504342,rev?*%
%TF.SameCoordinates,Original*%
%TF.FileFunction,Copper,L1,Top*%
%TF.FilePolarity,Positive*%
%FSLAX46Y46*%
G04 Gerber Fmt 4.6, Leading zero omitted, Abs format (unit mm)*
G04 Created by KiCad (PCBNEW 9.0.5) date 2025-10-05 20:42:34*
%MOMM*%
%LPD*%
G01*
G04 APERTURE LIST*
G04 Aperture macros list*
%AMRoundRect*
0 Rectangle with rounded corners*
0 $1 Rounding radius*
0 $2 $3 $4 $5 $6 $7 $8 $9 X,Y pos of 4 corners*
0 Add a 4 corners polygon primitive as box body*
4,1,4,$2,$3,$4,$5,$6,$7,$8,$9,$2,$3,0*
0 Add four circle primitives for the rounded corners*
1,1,$1+$1,$2,$3*
1,1,$1+$1,$4,$5*
1,1,$1+$1,$6,$7*
1,1,$1+$1,$8,$9*
0 Add four rect primitives between the rounded corners*
20,1,$1+$1,$2,$3,$4,$5,0*
20,1,$1+$1,$4,$5,$6,$7,0*
20,1,$1+$1,$6,$7,$8,$9,0*
20,1,$1+$1,$8,$9,$2,$3,0*%
G04 Aperture macros list end*
%TA.AperFunction,ComponentPad*%
%ADD10R,1.800000X1.800000*%
%TD*%
%TA.AperFunction,ComponentPad*%
%ADD11C,1.800000*%
%TD*%
%TA.AperFunction,SMDPad,CuDef*%
%ADD12RoundRect,0.250000X-0.262500X-0.450000X0.262500X-0.450000X0.262500X0.450000X-0.262500X0.450000X0*%
%TD*%
%TA.AperFunction,ComponentPad*%
%ADD13RoundRect,0.250001X1.149999X1.149999X-1.149999X1.149999X-1.149999X-1.149999X1.149999X-1.149999X0*%
%TD*%
%TA.AperFunction,ComponentPad*%
%ADD14C,2.800000*%
%TD*%
%TA.AperFunction,ComponentPad*%
%ADD15RoundRect,0.250000X0.550000X0.550000X-0.550000X0.550000X-0.550000X-0.550000X0.550000X-0.550000X0*%
%TD*%
%TA.AperFunction,ComponentPad*%
%ADD16C,1.600000*%
%TD*%
%TA.AperFunction,ComponentPad*%
%ADD17R,1.575000X1.575000*%
%TD*%
%TA.AperFunction,ComponentPad*%
%ADD18C,1.575000*%
%TD*%
%TA.AperFunction,ComponentPad*%
%ADD19C,1.700000*%
%TD*%
%TA.AperFunction,ComponentPad*%
%ADD20R,1.700000X1.700000*%
%TD*%
%TA.AperFunction,ComponentPad*%
%ADD21R,1.600000X1.600000*%
%TD*%
%TA.AperFunction,ComponentPad*%
%ADD22C,4.000000*%
%TD*%
%TA.AperFunction,ViaPad*%
%ADD23C,0.600000*%
%TD*%
%TA.AperFunction,Conductor*%
%ADD24C,0.200000*%
%TD*%
G04 APERTURE END LIST*
D10*
%TO.P,D4,1,K*%
%TO.N,Net-(D4-K)*%
X155526326Y-56729615D03*
D11*
%TO.P,D4,2,A*%
%TO.N,+5V*%
X152986326Y-56729615D03*
%TD*%
D10*
%TO.P,D3,1,K*%
%TO.N,Net-(D3-K)*%
X150450996Y-99271292D03*
D11*
%TO.P,D3,2,A*%
%TO.N,+5V*%
X152990996Y-99271292D03*
%TD*%
D10*
%TO.P,D2,1,K*%
%TO.N,Net-(D2-K)*%
X150450996Y-93871292D03*
D11*
%TO.P,D2,2,A*%
%TO.N,+5V*%
X152990996Y-93871292D03*
%TD*%
D10*
%TO.P,D1,1,K*%
%TO.N,Net-(D1-K)*%
X150450996Y-88471292D03*
D11*
%TO.P,D1,2,A*%
%TO.N,+5V*%
X152990996Y-88471292D03*
%TD*%
D12*
%TO.P,R10,1*%
%TO.N,Net-(D4-K)*%
X153675000Y-53000000D03*
%TO.P,R10,2*%
%TO.N,GND*%
X155500000Y-53000000D03*
%TD*%
D13*
%TO.P,J5,1,Pin_1*%
%TO.N,+5V*%
X147999999Y-55237433D03*
D14*
%TO.P,J5,2,Pin_2*%
%TO.N,GND*%
X142999999Y-55237433D03*
%TD*%
D15*
%TO.P,IC1,1,TXD*%
%TO.N,/CTX3*%
X150078300Y-112054127D03*
D16*
%TO.P,IC1,2,VSS*%
%TO.N,GND*%
X150078300Y-109514127D03*
%TO.P,IC1,3,VDD*%
%TO.N,+5V*%
X150078300Y-106974127D03*
%TO.P,IC1,4,RXD*%
%TO.N,/CRX3*%
X150078300Y-104434127D03*
%TO.P,IC1,5,SPLIT*%
%TO.N,Net-(IC1-SPLIT)*%
X142458300Y-104434127D03*
%TO.P,IC1,6,CANL*%
%TO.N,/CANL3*%
X142458300Y-106974127D03*
%TO.P,IC1,7,CANH*%
%TO.N,/CANH3*%
X142458300Y-109514127D03*
%TO.P,IC1,8,STBY*%
%TO.N,GND*%
X142458300Y-112054127D03*
%TD*%
D17*
%TO.P,J3,1,1*%
%TO.N,/CANH3*%
X134453300Y-100419127D03*
D18*
%TO.P,J3,2,2*%
%TO.N,/CANL3*%
X134453300Y-97919127D03*
%TD*%
D19*
%TO.P,JP1,24,24*%
%TO.N,Net-(U$1-P32{slash}OUT1B)*%
X158915663Y-111177632D03*
%TO.P,JP1,23,23*%
%TO.N,/CTX3*%
X158915663Y-108637632D03*
%TO.P,JP1,22,22*%
%TO.N,/CRX3*%
X158915663Y-106097632D03*
%TO.P,JP1,21,21*%
%TO.N,Net-(U$1-P29{slash}PWM{slash}TX7)*%
X158915663Y-103557632D03*
%TO.P,JP1,20,20*%
%TO.N,Net-(U$1-P28{slash}PWM{slash}RX7)*%
X158915663Y-101017632D03*
%TO.P,JP1,19,19*%
%TO.N,Net-(U$1-P27{slash}SCK1{slash}A13)*%
X158915663Y-98477632D03*
%TO.P,JP1,18,18*%
%TO.N,SPI*%
X158915663Y-95937632D03*
%TO.P,JP1,17,17*%
%TO.N,ZO*%
X158915663Y-93397632D03*
%TO.P,JP1,16,16*%
%TO.N,Net-(U$1-P24{slash}PWM{slash}SCL2{slash}TX6{slash}A10)*%
X158915663Y-90857632D03*
%TO.P,JP1,15,15*%
%TO.N,/3v3*%
X158915663Y-88317632D03*
%TO.P,JP1,14,14*%
%TO.N,SDO*%
X158915663Y-85777632D03*
%TO.P,JP1,13,13*%
%TO.N,SDI*%
X158915663Y-83237632D03*
%TO.P,JP1,12,12*%
%TO.N,CS*%
X158915663Y-80697632D03*
%TO.P,JP1,11,11*%
%TO.N,Net-(U$1-P9{slash}PWM{slash}OUT1C)*%
X158915663Y-78157632D03*
%TO.P,JP1,10,10*%
%TO.N,Encoder Fault*%
X158915663Y-75617632D03*
%TO.P,JP1,9,9*%
%TO.N,BO*%
X158915663Y-73077632D03*
%TO.P,JP1,8,8*%
%TO.N,AO*%
X158915663Y-70537632D03*
%TO.P,JP1,7,7*%
%TO.N,Net-(U$1-P5{slash}PWM{slash}IN2)*%
X158915663Y-67997632D03*
%TO.P,JP1,6,6*%
%TO.N,Net-(U$1-P4{slash}PWM{slash}BCLK2)*%
X158915663Y-65457632D03*
%TO.P,JP1,5,5*%
%TO.N,Net-(U$1-P3{slash}PWM{slash}LRCLK2)*%
X158915663Y-62917632D03*
%TO.P,JP1,4,4*%
%TO.N,Net-(U$1-P2{slash}PWM{slash}OUT2)*%
X158915663Y-60377632D03*
%TO.P,JP1,3,3*%
%TO.N,/CTX2*%
X158915663Y-57837632D03*
%TO.P,JP1,2,2*%
%TO.N,/CRX2*%
X158915663Y-55297632D03*
D20*
%TO.P,JP1,1,1*%
%TO.N,GND*%
X158915663Y-52757632D03*
%TD*%
D19*
%TO.P,JP2,24,24*%
%TO.N,Net-(U$1-MCLK2{slash}PWM{slash}P33)*%
X185412783Y-111177632D03*
%TO.P,JP2,23,23*%
%TO.N,Net-(U$1-RX8{slash}P34)*%
X185412783Y-108637632D03*
%TO.P,JP2,22,22*%
%TO.N,Net-(U$1-TX8{slash}P35)*%
X185412783Y-106097632D03*
%TO.P,JP2,21,21*%
%TO.N,Net-(U$1-CS{slash}PWM{slash}P36)*%
X185412783Y-103557632D03*
%TO.P,JP2,20,20*%
%TO.N,Net-(U$1-CS{slash}PWM{slash}P37)*%
X185412783Y-101017632D03*
%TO.P,JP2,19,19*%
%TO.N,Net-(U$1-IN1{slash}CS1{slash}A14{slash}P38)*%
X185412783Y-98477632D03*
%TO.P,JP2,18,18*%
%TO.N,Net-(U$1-OUT1A{slash}MISO1{slash}A15{slash}P39)*%
X185412783Y-95937632D03*
%TO.P,JP2,17,17*%
%TO.N,Net-(U$1-A16{slash}P40)*%
X185412783Y-93397632D03*
%TO.P,JP2,16,16*%
%TO.N,Net-(U$1-A17{slash}P41)*%
X185412783Y-90857632D03*
%TO.P,JP2,15,15*%
%TO.N,GND*%
X185412783Y-88317632D03*
%TO.P,JP2,14,14*%
%TO.N,CLK*%
X185412783Y-85777632D03*
%TO.P,JP2,13,13*%
%TO.N,Net-(U$1-PWM{slash}S{slash}PDIF-OUT{slash}TX3{slash}A0{slash}P14)*%
X185412783Y-83237632D03*
%TO.P,JP2,12,12*%
%TO.N,Net-(U$1-PWM{slash}S{slash}PDIF-IN{slash}RX3{slash}A1{slash}P15)*%
X185412783Y-80697632D03*
%TO.P,JP2,11,11*%
%TO.N,Net-(U$1-SCL1{slash}RX4{slash}A2{slash}P16)*%
X185412783Y-78157632D03*
%TO.P,JP2,10,10*%
%TO.N,Net-(U$1-SDA1{slash}TX4{slash}A3{slash}P17)*%
X185412783Y-75617632D03*
%TO.P,JP2,9,9*%
%TO.N,SDA*%
X185412783Y-73077632D03*
%TO.P,JP2,8,8*%
%TO.N,SCL*%
X185412783Y-70537632D03*
%TO.P,JP2,7,7*%
%TO.N,Net-(U$1-LRCLK1{slash}TX5{slash}A6{slash}P20)*%
X185412783Y-67997632D03*
%TO.P,JP2,6,6*%
%TO.N,Net-(U$1-BLCK1{slash}RX5{slash}A7{slash}P21)*%
X185412783Y-65457632D03*
%TO.P,JP2,5,5*%
%TO.N,Net-(U$1-PWM{slash}CTX1{slash}A8{slash}P22)*%
X185412783Y-62917632D03*
%TO.P,JP2,4,4*%
%TO.N,Net-(U$1-PWM{slash}MCLK1{slash}CRX1{slash}A9{slash}P23)*%
X185412783Y-60377632D03*
%TO.P,JP2,3,3*%
%TO.N,/3v3*%
X185412783Y-57837632D03*
%TO.P,JP2,2,2*%
%TO.N,GND*%
X185412783Y-55297632D03*
D20*
%TO.P,JP2,1,1*%
%TO.N,+5V*%
X185412783Y-52757632D03*
%TD*%
D17*
%TO.P,J2,1,1*%
%TO.N,/CANH3*%
X134453300Y-110301627D03*
D18*
%TO.P,J2,2,2*%
%TO.N,/CANL3*%
X134453300Y-107801627D03*
%TD*%
D20*
%TO.P,U$1,P47,VIN*%
%TO.N,+5V*%
X179789223Y-52757632D03*
D19*
%TO.P,U$1,P46,GND@3*%
%TO.N,GND*%
X179789223Y-55297632D03*
%TO.P,U$1,P45,3V3@2*%
%TO.N,/3v3*%
X179789223Y-57837632D03*
%TO.P,U$1,P44,PWM/MCLK1/CRX1/A9/P23*%
%TO.N,Net-(U$1-PWM{slash}MCLK1{slash}CRX1{slash}A9{slash}P23)*%
X179789223Y-60377632D03*
%TO.P,U$1,P43,PWM/CTX1/A8/P22*%
%TO.N,Net-(U$1-PWM{slash}CTX1{slash}A8{slash}P22)*%
X179789223Y-62917632D03*
%TO.P,U$1,P42,BLCK1/RX5/A7/P21*%
%TO.N,Net-(U$1-BLCK1{slash}RX5{slash}A7{slash}P21)*%
X179789223Y-65457632D03*
%TO.P,U$1,P41,LRCLK1/TX5/A6/P20*%
%TO.N,Net-(U$1-LRCLK1{slash}TX5{slash}A6{slash}P20)*%
X179789223Y-67997632D03*
%TO.P,U$1,P40,PWM/SCL/A5/P19*%
%TO.N,SCL*%
X179789223Y-70537632D03*
%TO.P,U$1,P39,PWM/SDA/A4/P18*%
%TO.N,SDA*%
X179789223Y-73077632D03*
%TO.P,U$1,P38,SDA1/TX4/A3/P17*%
%TO.N,Net-(U$1-SDA1{slash}TX4{slash}A3{slash}P17)*%
X179789223Y-75617632D03*
%TO.P,U$1,P37,SCL1/RX4/A2/P16*%
%TO.N,Net-(U$1-SCL1{slash}RX4{slash}A2{slash}P16)*%
X179789223Y-78157632D03*
%TO.P,U$1,P36,PWM/S/PDIF-IN/RX3/A1/P15*%
%TO.N,Net-(U$1-PWM{slash}S{slash}PDIF-IN{slash}RX3{slash}A1{slash}P15)*%
X179789223Y-80697632D03*
%TO.P,U$1,P35,PWM/S/PDIF-OUT/TX3/A0/P14*%
%TO.N,Net-(U$1-PWM{slash}S{slash}PDIF-OUT{slash}TX3{slash}A0{slash}P14)*%
X179789223Y-83237632D03*
%TO.P,U$1,P34,PWM/SCK/(LED)P13*%
%TO.N,CLK*%
X179789223Y-85777632D03*
%TO.P,U$1,P33,GND@2*%
%TO.N,GND*%
X179789223Y-88317632D03*
%TO.P,U$1,P32,A17/P41*%
%TO.N,Net-(U$1-A17{slash}P41)*%
X179789223Y-90857632D03*
%TO.P,U$1,P31,A16/P40*%
%TO.N,Net-(U$1-A16{slash}P40)*%
X179789223Y-93397632D03*
%TO.P,U$1,P30,OUT1A/MISO1/A15/P39*%
%TO.N,Net-(U$1-OUT1A{slash}MISO1{slash}A15{slash}P39)*%
X179789223Y-95937632D03*
%TO.P,U$1,P29,IN1/CS1/A14/P38*%
%TO.N,Net-(U$1-IN1{slash}CS1{slash}A14{slash}P38)*%
X179789223Y-98477632D03*
%TO.P,U$1,P28,CS/PWM/P37*%
%TO.N,Net-(U$1-CS{slash}PWM{slash}P37)*%
X179789223Y-101017632D03*
%TO.P,U$1,P27,CS/PWM/P36*%
%TO.N,Net-(U$1-CS{slash}PWM{slash}P36)*%
X179789223Y-103557632D03*
%TO.P,U$1,P26,TX8/P35*%
%TO.N,Net-(U$1-TX8{slash}P35)*%
X179789223Y-106097632D03*
%TO.P,U$1,P25,RX8/P34*%
%TO.N,Net-(U$1-RX8{slash}P34)*%
X179789223Y-108637632D03*
%TO.P,U$1,P24,MCLK2/PWM/P33*%
%TO.N,Net-(U$1-MCLK2{slash}PWM{slash}P33)*%
X179789223Y-111177632D03*
%TO.P,U$1,P23,P32/OUT1B*%
%TO.N,Net-(U$1-P32{slash}OUT1B)*%
X164549223Y-111177632D03*
%TO.P,U$1,P22,P31/CTX3*%
%TO.N,/CTX3*%
X164549223Y-108637632D03*
%TO.P,U$1,P21,P30/CRX3*%
%TO.N,/CRX3*%
X164549223Y-106097632D03*
%TO.P,U$1,P20,P29/PWM/TX7*%
%TO.N,Net-(U$1-P29{slash}PWM{slash}TX7)*%
X164549223Y-103557632D03*
%TO.P,U$1,P19,P28/PWM/RX7*%
%TO.N,Net-(U$1-P28{slash}PWM{slash}RX7)*%
X164549223Y-101017632D03*
%TO.P,U$1,P18,P27/SCK1/A13*%
%TO.N,Net-(U$1-P27{slash}SCK1{slash}A13)*%
X164549223Y-98477632D03*
%TO.P,U$1,P17,P26/MOSI1/A12*%
%TO.N,SPI*%
X164549223Y-95937632D03*
%TO.P,U$1,P16,P25/PWM/SDA2/RX6/A11*%
%TO.N,ZO*%
X164549223Y-93397632D03*
%TO.P,U$1,P15,P24/PWM/SCL2/TX6/A10*%
%TO.N,Net-(U$1-P24{slash}PWM{slash}SCL2{slash}TX6{slash}A10)*%
X164549223Y-90857632D03*
%TO.P,U$1,P14,3V3@1*%
%TO.N,/3v3*%
X164549223Y-88317632D03*
%TO.P,U$1,P13,P12/PWM/MQSL/MISO*%
%TO.N,SDO*%
X164549223Y-85777632D03*
%TO.P,U$1,P12,P11/PWM/CTX1/MOSI*%
%TO.N,SDI*%
X164549223Y-83237632D03*
%TO.P,U$1,P11,P10/PWM/MQSR/CS*%
%TO.N,CS*%
X164549223Y-80697632D03*
%TO.P,U$1,P10,P9/PWM/OUT1C*%
%TO.N,Net-(U$1-P9{slash}PWM{slash}OUT1C)*%
X164549223Y-78157632D03*
%TO.P,U$1,P9,P8/PWM/IN1/TX2*%
%TO.N,Encoder Fault*%
X164549223Y-75617632D03*
%TO.P,U$1,P8,P7/PWM/OUT1A/RX2*%
%TO.N,BO*%
X164549223Y-73077632D03*
%TO.P,U$1,P7,P6/PWM/OUT1D*%
%TO.N,AO*%
X164549223Y-70537632D03*
%TO.P,U$1,P6,P5/PWM/IN2*%
%TO.N,Net-(U$1-P5{slash}PWM{slash}IN2)*%
X164549223Y-67997632D03*
%TO.P,U$1,P5,P4/PWM/BCLK2*%
%TO.N,Net-(U$1-P4{slash}PWM{slash}BCLK2)*%
X164549223Y-65457632D03*
%TO.P,U$1,P4,P3/PWM/LRCLK2*%
%TO.N,Net-(U$1-P3{slash}PWM{slash}LRCLK2)*%
X164549223Y-62917632D03*
%TO.P,U$1,P3,P2/PWM/OUT2*%
%TO.N,Net-(U$1-P2{slash}PWM{slash}OUT2)*%
X164549223Y-60377632D03*
%TO.P,U$1,P2,P1/PWM/CTX2/MISO1/TX1*%
%TO.N,/CTX2*%
X164549223Y-57837632D03*
%TO.P,U$1,P1,P0/PWM/CRX2/CS1/RX1*%
%TO.N,/CRX2*%
X164549223Y-55297632D03*
D20*
%TO.P,U$1,P0,GND@1*%
%TO.N,GND*%
X164549223Y-52757632D03*
%TD*%
D19*
%TO.P,J4,6,Pin_6*%
%TO.N,/3v3*%
X190483771Y-74559001D03*
%TO.P,J4,5,Pin_5*%
%TO.N,unconnected-(J4-Pin_5-Pad5)*%
X190483771Y-77099001D03*
%TO.P,J4,4,Pin_4*%
%TO.N,GND*%
X190483771Y-79639001D03*
%TO.P,J4,3,Pin_3*%
%TO.N,SCL*%
X190483771Y-82179001D03*
%TO.P,J4,2,Pin_2*%
%TO.N,SDA*%
X190483771Y-84719001D03*
D20*
%TO.P,J4,1,Pin_1*%
%TO.N,unconnected-(J4-Pin_1-Pad1)*%
X190483771Y-87259001D03*
%TD*%
D16*
%TO.P,J1,9,9*%
%TO.N,GND*%
X137547520Y-73310021D03*
%TO.P,J1,8,8*%
%TO.N,Net-(U1-~{A})*%
X137547520Y-76080021D03*
%TO.P,J1,7,7*%
%TO.N,Net-(U1-~{B})*%
X137547520Y-78850021D03*
%TO.P,J1,6,6*%
%TO.N,Net-(U1-~{Z})*%
X137547520Y-81620021D03*
%TO.P,J1,5,5*%
%TO.N,+5V*%
X140387520Y-71925021D03*
%TO.P,J1,4,4*%
%TO.N,Net-(U1-A)*%
X140387520Y-74695021D03*
%TO.P,J1,3,3*%
%TO.N,Net-(U1-B)*%
X140387520Y-77465021D03*
%TO.P,J1,2,2*%
%TO.N,Net-(U1-Z)*%
X140387520Y-80235021D03*
D21*
%TO.P,J1,1,1*%
%TO.N,GND*%
X140387520Y-83005021D03*
D22*
%TO.P,J1,0*%
%TO.N,N/C*%
X138967520Y-89965021D03*
X138967520Y-64965021D03*
%TD*%
D23*
%TO.N,+5V*%
X147028252Y-80078453D03*
%TO.N,CS*%
X157459070Y-75017632D03*
%TO.N,Encoder Fault*%
X155600000Y-76279788D03*
%TO.N,SPI*%
X148500000Y-84750000D03*
%TO.N,/3v3*%
X150250000Y-83400000D03*
%TO.N,ZO*%
X147500000Y-84000000D03*
%TO.N,Net-(U1-~{AFAULT})*%
X167000000Y-97000000D03*
X167000000Y-76000000D03*
%TO.N,BO*%
X155000000Y-77000000D03*
%TO.N,SDO*%
X157600000Y-82000000D03*
%TO.N,Net-(U1-~{B})*%
X156000000Y-78000000D03*
%TO.N,Net-(U1-B)*%
X148000000Y-79000000D03*
%TO.N,Net-(U1-~{B})*%
X145562635Y-77141425D03*
%TO.N,Net-(U1-B)*%
X156000000Y-77000000D03*
%TO.N,Net-(U1-Z)*%
X143000000Y-83000000D03*
%TO.N,Net-(U1-B)*%
X145000000Y-79000000D03*
%TO.N,/CANH3*%
X139508300Y-110434127D03*
%TO.N,/CANL3*%
X137458300Y-106984127D03*
%TD*%
D24*
%TO.N,+5V*%
X140387520Y-71925021D02*
X147999999Y-64312542D01*
X166900057Y-75250000D02*
X169500000Y-75250000D01*
X166399000Y-80475615D02*
X166399000Y-75751057D01*
X165025983Y-81848632D02*
X166399000Y-80475615D01*
X156668724Y-80078453D02*
X158438903Y-81848632D01*
X147028252Y-80078453D02*
X156668724Y-80078453D01*
X158438903Y-81848632D02*
X165025983Y-81848632D01*
X166399000Y-75751057D02*
X166900057Y-75250000D01*
X150354173Y-107250000D02*
X169500000Y-107250000D01*
X150078300Y-106974127D02*
X150354173Y-107250000D01*
X152990996Y-99271292D02*
X153348336Y-99628632D01*
X153348336Y-99628632D02*
X169621368Y-99628632D01*
%TO.N,CS*%
X157459070Y-79241040D02*
X157734015Y-79515985D01*
X157459070Y-75017632D02*
X157459070Y-79241040D01*
%TO.N,Encoder Fault*%
X156262156Y-75617632D02*
X156262156Y-75364603D01*
X157714663Y-74416632D02*
X158915663Y-75617632D01*
X156262156Y-75364603D02*
X157210127Y-74416632D01*
X157210127Y-74416632D02*
X157714663Y-74416632D01*
X155600000Y-76279788D02*
X156262156Y-75617632D01*
%TO.N,SPI*%
X148500000Y-84750000D02*
X150968175Y-84750000D01*
X150968175Y-84750000D02*
X157250000Y-91031825D01*
X157250000Y-94271969D02*
X158915663Y-95937632D01*
X157250000Y-91031825D02*
X157250000Y-94271969D01*
%TO.N,/3v3*%
X150250000Y-83400000D02*
X153998031Y-83400000D01*
X153998031Y-83400000D02*
X158915663Y-88317632D01*
%TO.N,ZO*%
X157764663Y-88764663D02*
X157764663Y-92246632D01*
X153000000Y-84000000D02*
X157764663Y-88764663D01*
X147500000Y-84000000D02*
X153000000Y-84000000D01*
X157764663Y-92246632D02*
X158915663Y-93397632D01*
%TO.N,/3v3*%
X185412783Y-57837632D02*
X190483771Y-62908620D01*
X190483771Y-62908620D02*
X190483771Y-74559001D01*
%TO.N,+5V*%
X185412783Y-52757632D02*
X185412783Y-48662783D01*
X147999999Y-55237433D02*
X148000000Y-49250000D01*
%TO.N,Net-(D4-K)*%
X155526326Y-56729615D02*
X155526326Y-54851326D01*
X155526326Y-54851326D02*
X153675000Y-53000000D01*
%TO.N,+5V*%
X152986326Y-56729615D02*
X149492181Y-56729615D01*
X149492181Y-56729615D02*
X147999999Y-55237433D01*
X152990996Y-93871292D02*
X152990996Y-88471292D01*
X152990996Y-99271292D02*
X152990996Y-93871292D01*
X147999999Y-64312542D02*
X147999999Y-55237433D01*
%TO.N,GND*%
X155500000Y-53000000D02*
X158673295Y-53000000D01*
X158673295Y-53000000D02*
X158915663Y-52757632D01*
%TO.N,Net-(D4-K)*%
X153500000Y-53175000D02*
X153675000Y-53000000D01*
%TO.N,Net-(U1-~{AFAULT})*%
X167000000Y-76000000D02*
X167000000Y-97000000D01*
%TO.N,BO*%
X155000000Y-77000000D02*
X155000000Y-75791214D01*
X157713582Y-73077632D02*
X158915663Y-73077632D01*
X155000000Y-75791214D02*
X157713582Y-73077632D01*
%TO.N,CS*%
X157734015Y-79515985D02*
X158915663Y-80697632D01*
%TO.N,SDO*%
X157600000Y-84461969D02*
X158915663Y-85777632D01*
X157600000Y-82000000D02*
X157600000Y-84461969D01*
%TO.N,Net-(U1-~{B})*%
X147509710Y-79601000D02*
X154399000Y-79601000D01*
X154399000Y-79601000D02*
X156000000Y-78000000D01*
X145562635Y-77653925D02*
X147509710Y-79601000D01*
X145562635Y-77141425D02*
X145562635Y-77653925D01*
%TO.N,Net-(U1-B)*%
X148000000Y-78000000D02*
X148000000Y-79000000D01*
X155000000Y-78000000D02*
X148000000Y-78000000D01*
X156000000Y-77000000D02*
X155000000Y-78000000D01*
%TO.N,Net-(U1-Z)*%
X143000000Y-83000000D02*
X143000000Y-82847501D01*
X143000000Y-82847501D02*
X140387520Y-80235021D01*
%TO.N,Net-(U1-B)*%
X145000000Y-79000000D02*
X143465021Y-77465021D01*
X143465021Y-77465021D02*
X140387520Y-77465021D01*
%TO.N,GND*%
X179789223Y-55297632D02*
X185412783Y-55297632D01*
X158915663Y-52757632D02*
X164549223Y-52757632D01*
X179789223Y-88317632D02*
X185412783Y-88317632D01*
%TO.N,+5V*%
X179789223Y-52757632D02*
X185412783Y-52757632D01*
%TO.N,SDA*%
X179789223Y-73077632D02*
X185412783Y-73077632D01*
%TO.N,SCL*%
X179789223Y-70537632D02*
X185412783Y-70537632D01*
%TO.N,/3v3*%
X158915663Y-88317632D02*
X164549223Y-88317632D01*
X179789223Y-57837632D02*
X185412783Y-57837632D01*
%TO.N,Net-(U$1-P29{slash}PWM{slash}TX7)*%
X158915663Y-103557632D02*
X164549223Y-103557632D01*
%TO.N,BO*%
X158915663Y-73077632D02*
X164549223Y-73077632D01*
%TO.N,SDI*%
X158915663Y-83237632D02*
X164549223Y-83237632D01*
%TO.N,Net-(U$1-P28{slash}PWM{slash}RX7)*%
X158915663Y-101017632D02*
X164549223Y-101017632D01*
%TO.N,Net-(U$1-P32{slash}OUT1B)*%
X158915663Y-111177632D02*
X164549223Y-111177632D01*
%TO.N,Net-(U$1-P3{slash}PWM{slash}LRCLK2)*%
X158915663Y-62917632D02*
X164549223Y-62917632D01*
%TO.N,SPI*%
X158915663Y-95937632D02*
X164549223Y-95937632D01*
%TO.N,Net-(U$1-P4{slash}PWM{slash}BCLK2)*%
X158915663Y-65457632D02*
X164549223Y-65457632D01*
%TO.N,CS*%
X158915663Y-80697632D02*
X164549223Y-80697632D01*
%TO.N,Net-(U$1-LRCLK1{slash}TX5{slash}A6{slash}P20)*%
X179789223Y-67997632D02*
X185412783Y-67997632D01*
%TO.N,SDO*%
X158915663Y-85777632D02*
X164549223Y-85777632D01*
%TO.N,Net-(U$1-P27{slash}SCK1{slash}A13)*%
X158915663Y-98477632D02*
X164549223Y-98477632D01*
%TO.N,ZO*%
X158915663Y-93397632D02*
X164549223Y-93397632D01*
%TO.N,Encoder Fault*%
X158915663Y-75617632D02*
X164549223Y-75617632D01*
%TO.N,Net-(U$1-P2{slash}PWM{slash}OUT2)*%
X158915663Y-60377632D02*
X164549223Y-60377632D01*
%TO.N,Net-(U$1-P24{slash}PWM{slash}SCL2{slash}TX6{slash}A10)*%
X158915663Y-90857632D02*
X164549223Y-90857632D01*
%TO.N,Net-(U$1-TX8{slash}P35)*%
X179789223Y-106097632D02*
X185412783Y-106097632D01*
%TO.N,Net-(U$1-CS{slash}PWM{slash}P36)*%
X179789223Y-103557632D02*
X185412783Y-103557632D01*
%TO.N,Net-(U$1-BLCK1{slash}RX5{slash}A7{slash}P21)*%
X179789223Y-65457632D02*
X185412783Y-65457632D01*
%TO.N,Net-(U$1-SDA1{slash}TX4{slash}A3{slash}P17)*%
X179789223Y-75617632D02*
X185412783Y-75617632D01*
%TO.N,Net-(U$1-MCLK2{slash}PWM{slash}P33)*%
X179789223Y-111177632D02*
X185412783Y-111177632D01*
%TO.N,Net-(U$1-A17{slash}P41)*%
X179789223Y-90857632D02*
X185412783Y-90857632D01*
%TO.N,Net-(U$1-PWM{slash}CTX1{slash}A8{slash}P22)*%
X179789223Y-62917632D02*
X185412783Y-62917632D01*
%TO.N,Net-(U$1-IN1{slash}CS1{slash}A14{slash}P38)*%
X179789223Y-98477632D02*
X185412783Y-98477632D01*
%TO.N,Net-(U$1-PWM{slash}S{slash}PDIF-OUT{slash}TX3{slash}A0{slash}P14)*%
X179789223Y-83237632D02*
X185412783Y-83237632D01*
%TO.N,Net-(U$1-A16{slash}P40)*%
X179789223Y-93397632D02*
X185412783Y-93397632D01*
%TO.N,Net-(U$1-OUT1A{slash}MISO1{slash}A15{slash}P39)*%
X179789223Y-95937632D02*
X185412783Y-95937632D01*
%TO.N,Net-(U$1-SCL1{slash}RX4{slash}A2{slash}P16)*%
X179789223Y-78157632D02*
X185412783Y-78157632D01*
%TO.N,Net-(U$1-RX8{slash}P34)*%
X179789223Y-108637632D02*
X185412783Y-108637632D01*
%TO.N,CLK*%
X179789223Y-85777632D02*
X185412783Y-85777632D01*
%TO.N,Net-(U$1-PWM{slash}MCLK1{slash}CRX1{slash}A9{slash}P23)*%
X179789223Y-60377632D02*
X185412783Y-60377632D01*
%TO.N,Net-(U$1-PWM{slash}S{slash}PDIF-IN{slash}RX3{slash}A1{slash}P15)*%
X179789223Y-80697632D02*
X185412783Y-80697632D01*
%TO.N,Net-(U$1-CS{slash}PWM{slash}P37)*%
X179789223Y-101017632D02*
X185412783Y-101017632D01*
%TO.N,/CANL3*%
X137458300Y-106984127D02*
X137458300Y-100924127D01*
X137458300Y-100924127D02*
X134453300Y-97919127D01*
X137458300Y-106984127D02*
X135270800Y-106984127D01*
X135270800Y-106984127D02*
X134453300Y-107801627D01*
%TO.N,/CANH3*%
X133364800Y-109213127D02*
X133364800Y-101507627D01*
X134453300Y-110301627D02*
X133364800Y-109213127D01*
X133364800Y-101507627D02*
X134453300Y-100419127D01*
X139508300Y-110434127D02*
X139375800Y-110301627D01*
X139375800Y-110301627D02*
X134453300Y-110301627D01*
%TO.N,Net-(U$1-P5{slash}PWM{slash}IN2)*%
X158915663Y-67997632D02*
X164549223Y-67997632D01*
%TO.N,AO*%
X158915663Y-70537632D02*
X164549223Y-70537632D01*
%TO.N,Net-(U$1-P9{slash}PWM{slash}OUT1C)*%
X158915663Y-78157632D02*
X164549223Y-78157632D01*
%TO.N,/CTX2*%
X158915663Y-57837632D02*
X164549223Y-57837632D01*
%TO.N,/CRX2*%
X158915663Y-55297632D02*
X164549223Y-55297632D01*
%TO.N,/CRX3*%
X158915663Y-106097632D02*
X164549223Y-106097632D01*
%TO.N,/CTX3*%
X158915663Y-108637632D02*
X164549223Y-108637632D01*
%TO.N,SDA*%
X187497367Y-75162216D02*
X185412783Y-73077632D01*
X187497367Y-81732597D02*
X187497367Y-75162216D01*
X190483771Y-84719001D02*
X187497367Y-81732597D01*
%TO.N,SCL*%
X190483771Y-82179001D02*
X188497367Y-80192597D01*
X188497367Y-80192597D02*
X188497367Y-73622216D01*
X188497367Y-73622216D02*
X185412783Y-70537632D01*
%TD*%
%TA.AperFunction,Conductor*%
%TO.N,+5V*%
G36*
X169250000Y-50500000D02*
G01*
X131894500Y-50500000D01*
X131827461Y-50480315D01*
X131781706Y-50427511D01*
X131770500Y-50376000D01*
X131770500Y-45894500D01*
X131790185Y-45827461D01*
X131842989Y-45781706D01*
X131894500Y-45770500D01*
X169250000Y-45770500D01*
X169250000Y-50500000D01*
G37*
%TD.AperFunction*%
%TA.AperFunction,Conductor*%
G36*
X191943039Y-45790185D02*
G01*
X191988794Y-45842989D01*
X192000000Y-45894500D01*
X192000000Y-50376000D01*
X191980315Y-50443039D01*
X191927511Y-50488794D01*
X191876000Y-50500000D01*
X177000000Y-50500000D01*
X177000000Y-45770500D01*
X191876000Y-45770500D01*
X191943039Y-45790185D01*
G37*
%TD.AperFunction*%
%TD*%
%TA.AperFunction,Conductor*%
%TO.N,+5V*%
G36*
X177000000Y-50500000D02*
G01*
X177000000Y-112876000D01*
X176980315Y-112943039D01*
X176927511Y-112988794D01*
X176876000Y-113000000D01*
X169374000Y-113000000D01*
X169306961Y-112980315D01*
X169261206Y-112927511D01*
X169250000Y-112876000D01*
X169250000Y-50500000D01*
X169250000Y-45770500D01*
X177000000Y-45770500D01*
X177000000Y-50500000D01*
G37*
%TD.AperFunction*%
%TD*%
M02*
