%TF.GenerationSoftware,KiCad,Pcbnew,9.0.5*%
%TF.CreationDate,2025-10-05T20:42:35-05:00*%
%TF.ProjectId,ATO-Encoder-PCB,41544f2d-456e-4636-9f64-65722d504342,rev?*%
%TF.SameCoordinates,Original*%
%TF.FileFunction,Legend,Top*%
%TF.FilePolarity,Positive*%
%FSLAX46Y46*%
G04 Gerber Fmt 4.6, Leading zero omitted, Abs format (unit mm)*
G04 Created by KiCad (PCBNEW 9.0.5) date 2025-10-05 20:42:35*
%MOMM*%
%LPD*%
G01*
G04 APERTURE LIST*
%ADD10C,0.228600*%
%ADD11C,0.203200*%
%ADD12C,0.300000*%
%ADD13C,0.127000*%
%ADD14C,0.150000*%
%ADD15C,0.000000*%
%ADD16C,0.120000*%
%ADD17C,0.200000*%
G04 APERTURE END LIST*
D10*
X151914891Y-120758064D02*
X151914891Y-119615064D01*
X151914891Y-120159350D02*
X152568034Y-120159350D01*
X152568034Y-120758064D02*
X152568034Y-119615064D01*
X153057892Y-120431493D02*
X153602178Y-120431493D01*
X152949035Y-120758064D02*
X153330035Y-119615064D01*
X153330035Y-119615064D02*
X153711035Y-120758064D01*
X154092034Y-120758064D02*
X154092034Y-119615064D01*
X154092034Y-119615064D02*
X154745177Y-120758064D01*
X154745177Y-120758064D02*
X154745177Y-119615064D01*
X155289463Y-120758064D02*
X155289463Y-119615064D01*
X155289463Y-119615064D02*
X155561606Y-119615064D01*
X155561606Y-119615064D02*
X155724892Y-119669493D01*
X155724892Y-119669493D02*
X155833749Y-119778350D01*
X155833749Y-119778350D02*
X155888178Y-119887207D01*
X155888178Y-119887207D02*
X155942606Y-120104921D01*
X155942606Y-120104921D02*
X155942606Y-120268207D01*
X155942606Y-120268207D02*
X155888178Y-120485921D01*
X155888178Y-120485921D02*
X155833749Y-120594778D01*
X155833749Y-120594778D02*
X155724892Y-120703636D01*
X155724892Y-120703636D02*
X155561606Y-120758064D01*
X155561606Y-120758064D02*
X155289463Y-120758064D01*
X157303320Y-120159350D02*
X157684320Y-120159350D01*
X157847606Y-120758064D02*
X157303320Y-120758064D01*
X157303320Y-120758064D02*
X157303320Y-119615064D01*
X157303320Y-119615064D02*
X157847606Y-119615064D01*
X158990606Y-120758064D02*
X158609606Y-120213778D01*
X158337463Y-120758064D02*
X158337463Y-119615064D01*
X158337463Y-119615064D02*
X158772892Y-119615064D01*
X158772892Y-119615064D02*
X158881749Y-119669493D01*
X158881749Y-119669493D02*
X158936178Y-119723921D01*
X158936178Y-119723921D02*
X158990606Y-119832778D01*
X158990606Y-119832778D02*
X158990606Y-119996064D01*
X158990606Y-119996064D02*
X158936178Y-120104921D01*
X158936178Y-120104921D02*
X158881749Y-120159350D01*
X158881749Y-120159350D02*
X158772892Y-120213778D01*
X158772892Y-120213778D02*
X158337463Y-120213778D01*
X160133606Y-120649207D02*
X160079178Y-120703636D01*
X160079178Y-120703636D02*
X159915892Y-120758064D01*
X159915892Y-120758064D02*
X159807035Y-120758064D01*
X159807035Y-120758064D02*
X159643749Y-120703636D01*
X159643749Y-120703636D02*
X159534892Y-120594778D01*
X159534892Y-120594778D02*
X159480463Y-120485921D01*
X159480463Y-120485921D02*
X159426035Y-120268207D01*
X159426035Y-120268207D02*
X159426035Y-120104921D01*
X159426035Y-120104921D02*
X159480463Y-119887207D01*
X159480463Y-119887207D02*
X159534892Y-119778350D01*
X159534892Y-119778350D02*
X159643749Y-119669493D01*
X159643749Y-119669493D02*
X159807035Y-119615064D01*
X159807035Y-119615064D02*
X159915892Y-119615064D01*
X159915892Y-119615064D02*
X160079178Y-119669493D01*
X160079178Y-119669493D02*
X160133606Y-119723921D01*
X161875320Y-120159350D02*
X161494320Y-120159350D01*
X161494320Y-120758064D02*
X161494320Y-119615064D01*
X161494320Y-119615064D02*
X162038606Y-119615064D01*
X162474034Y-120758064D02*
X162474034Y-119996064D01*
X162474034Y-119615064D02*
X162419606Y-119669493D01*
X162419606Y-119669493D02*
X162474034Y-119723921D01*
X162474034Y-119723921D02*
X162528463Y-119669493D01*
X162528463Y-119669493D02*
X162474034Y-119615064D01*
X162474034Y-119615064D02*
X162474034Y-119723921D01*
X163018320Y-119996064D02*
X163018320Y-120758064D01*
X163018320Y-120104921D02*
X163072749Y-120050493D01*
X163072749Y-120050493D02*
X163181606Y-119996064D01*
X163181606Y-119996064D02*
X163344892Y-119996064D01*
X163344892Y-119996064D02*
X163453749Y-120050493D01*
X163453749Y-120050493D02*
X163508178Y-120159350D01*
X163508178Y-120159350D02*
X163508178Y-120758064D01*
X164542321Y-119996064D02*
X164542321Y-120921350D01*
X164542321Y-120921350D02*
X164487892Y-121030207D01*
X164487892Y-121030207D02*
X164433463Y-121084636D01*
X164433463Y-121084636D02*
X164324606Y-121139064D01*
X164324606Y-121139064D02*
X164161321Y-121139064D01*
X164161321Y-121139064D02*
X164052463Y-121084636D01*
X164542321Y-120703636D02*
X164433463Y-120758064D01*
X164433463Y-120758064D02*
X164215749Y-120758064D01*
X164215749Y-120758064D02*
X164106892Y-120703636D01*
X164106892Y-120703636D02*
X164052463Y-120649207D01*
X164052463Y-120649207D02*
X163998035Y-120540350D01*
X163998035Y-120540350D02*
X163998035Y-120213778D01*
X163998035Y-120213778D02*
X164052463Y-120104921D01*
X164052463Y-120104921D02*
X164106892Y-120050493D01*
X164106892Y-120050493D02*
X164215749Y-119996064D01*
X164215749Y-119996064D02*
X164433463Y-119996064D01*
X164433463Y-119996064D02*
X164542321Y-120050493D01*
X165522035Y-120703636D02*
X165413178Y-120758064D01*
X165413178Y-120758064D02*
X165195464Y-120758064D01*
X165195464Y-120758064D02*
X165086606Y-120703636D01*
X165086606Y-120703636D02*
X165032178Y-120594778D01*
X165032178Y-120594778D02*
X165032178Y-120159350D01*
X165032178Y-120159350D02*
X165086606Y-120050493D01*
X165086606Y-120050493D02*
X165195464Y-119996064D01*
X165195464Y-119996064D02*
X165413178Y-119996064D01*
X165413178Y-119996064D02*
X165522035Y-120050493D01*
X165522035Y-120050493D02*
X165576464Y-120159350D01*
X165576464Y-120159350D02*
X165576464Y-120268207D01*
X165576464Y-120268207D02*
X165032178Y-120377064D01*
X166066320Y-120758064D02*
X166066320Y-119996064D01*
X166066320Y-120213778D02*
X166120749Y-120104921D01*
X166120749Y-120104921D02*
X166175178Y-120050493D01*
X166175178Y-120050493D02*
X166284035Y-119996064D01*
X166284035Y-119996064D02*
X166392892Y-119996064D01*
X167481463Y-119615064D02*
X168134606Y-119615064D01*
X167808034Y-120758064D02*
X167808034Y-119615064D01*
X168951034Y-120703636D02*
X168842177Y-120758064D01*
X168842177Y-120758064D02*
X168624463Y-120758064D01*
X168624463Y-120758064D02*
X168515605Y-120703636D01*
X168515605Y-120703636D02*
X168461177Y-120594778D01*
X168461177Y-120594778D02*
X168461177Y-120159350D01*
X168461177Y-120159350D02*
X168515605Y-120050493D01*
X168515605Y-120050493D02*
X168624463Y-119996064D01*
X168624463Y-119996064D02*
X168842177Y-119996064D01*
X168842177Y-119996064D02*
X168951034Y-120050493D01*
X168951034Y-120050493D02*
X169005463Y-120159350D01*
X169005463Y-120159350D02*
X169005463Y-120268207D01*
X169005463Y-120268207D02*
X168461177Y-120377064D01*
X169440891Y-120703636D02*
X169549748Y-120758064D01*
X169549748Y-120758064D02*
X169767462Y-120758064D01*
X169767462Y-120758064D02*
X169876319Y-120703636D01*
X169876319Y-120703636D02*
X169930748Y-120594778D01*
X169930748Y-120594778D02*
X169930748Y-120540350D01*
X169930748Y-120540350D02*
X169876319Y-120431493D01*
X169876319Y-120431493D02*
X169767462Y-120377064D01*
X169767462Y-120377064D02*
X169604177Y-120377064D01*
X169604177Y-120377064D02*
X169495319Y-120322636D01*
X169495319Y-120322636D02*
X169440891Y-120213778D01*
X169440891Y-120213778D02*
X169440891Y-120159350D01*
X169440891Y-120159350D02*
X169495319Y-120050493D01*
X169495319Y-120050493D02*
X169604177Y-119996064D01*
X169604177Y-119996064D02*
X169767462Y-119996064D01*
X169767462Y-119996064D02*
X169876319Y-120050493D01*
X170257320Y-119996064D02*
X170692748Y-119996064D01*
X170420605Y-119615064D02*
X170420605Y-120594778D01*
X170420605Y-120594778D02*
X170475034Y-120703636D01*
X170475034Y-120703636D02*
X170583891Y-120758064D01*
X170583891Y-120758064D02*
X170692748Y-120758064D01*
X171073748Y-120758064D02*
X171073748Y-119615064D01*
X171073748Y-120050493D02*
X171182606Y-119996064D01*
X171182606Y-119996064D02*
X171400320Y-119996064D01*
X171400320Y-119996064D02*
X171509177Y-120050493D01*
X171509177Y-120050493D02*
X171563606Y-120104921D01*
X171563606Y-120104921D02*
X171618034Y-120213778D01*
X171618034Y-120213778D02*
X171618034Y-120540350D01*
X171618034Y-120540350D02*
X171563606Y-120649207D01*
X171563606Y-120649207D02*
X171509177Y-120703636D01*
X171509177Y-120703636D02*
X171400320Y-120758064D01*
X171400320Y-120758064D02*
X171182606Y-120758064D01*
X171182606Y-120758064D02*
X171073748Y-120703636D01*
X172543320Y-120703636D02*
X172434463Y-120758064D01*
X172434463Y-120758064D02*
X172216749Y-120758064D01*
X172216749Y-120758064D02*
X172107891Y-120703636D01*
X172107891Y-120703636D02*
X172053463Y-120594778D01*
X172053463Y-120594778D02*
X172053463Y-120159350D01*
X172053463Y-120159350D02*
X172107891Y-120050493D01*
X172107891Y-120050493D02*
X172216749Y-119996064D01*
X172216749Y-119996064D02*
X172434463Y-119996064D01*
X172434463Y-119996064D02*
X172543320Y-120050493D01*
X172543320Y-120050493D02*
X172597749Y-120159350D01*
X172597749Y-120159350D02*
X172597749Y-120268207D01*
X172597749Y-120268207D02*
X172053463Y-120377064D01*
X173577463Y-120758064D02*
X173577463Y-119615064D01*
X173577463Y-120703636D02*
X173468605Y-120758064D01*
X173468605Y-120758064D02*
X173250891Y-120758064D01*
X173250891Y-120758064D02*
X173142034Y-120703636D01*
X173142034Y-120703636D02*
X173087605Y-120649207D01*
X173087605Y-120649207D02*
X173033177Y-120540350D01*
X173033177Y-120540350D02*
X173033177Y-120213778D01*
X173033177Y-120213778D02*
X173087605Y-120104921D01*
X173087605Y-120104921D02*
X173142034Y-120050493D01*
X173142034Y-120050493D02*
X173250891Y-119996064D01*
X173250891Y-119996064D02*
X173468605Y-119996064D01*
X173468605Y-119996064D02*
X173577463Y-120050493D01*
X142063318Y-121999516D02*
X141682318Y-121999516D01*
X141682318Y-122598230D02*
X141682318Y-121455230D01*
X141682318Y-121455230D02*
X142226604Y-121455230D01*
X142662032Y-122598230D02*
X142662032Y-121836230D01*
X142662032Y-121455230D02*
X142607604Y-121509659D01*
X142607604Y-121509659D02*
X142662032Y-121564087D01*
X142662032Y-121564087D02*
X142716461Y-121509659D01*
X142716461Y-121509659D02*
X142662032Y-121455230D01*
X142662032Y-121455230D02*
X142662032Y-121564087D01*
X143206318Y-121836230D02*
X143206318Y-122598230D01*
X143206318Y-121945087D02*
X143260747Y-121890659D01*
X143260747Y-121890659D02*
X143369604Y-121836230D01*
X143369604Y-121836230D02*
X143532890Y-121836230D01*
X143532890Y-121836230D02*
X143641747Y-121890659D01*
X143641747Y-121890659D02*
X143696176Y-121999516D01*
X143696176Y-121999516D02*
X143696176Y-122598230D01*
X144730319Y-121836230D02*
X144730319Y-122761516D01*
X144730319Y-122761516D02*
X144675890Y-122870373D01*
X144675890Y-122870373D02*
X144621461Y-122924802D01*
X144621461Y-122924802D02*
X144512604Y-122979230D01*
X144512604Y-122979230D02*
X144349319Y-122979230D01*
X144349319Y-122979230D02*
X144240461Y-122924802D01*
X144730319Y-122543802D02*
X144621461Y-122598230D01*
X144621461Y-122598230D02*
X144403747Y-122598230D01*
X144403747Y-122598230D02*
X144294890Y-122543802D01*
X144294890Y-122543802D02*
X144240461Y-122489373D01*
X144240461Y-122489373D02*
X144186033Y-122380516D01*
X144186033Y-122380516D02*
X144186033Y-122053944D01*
X144186033Y-122053944D02*
X144240461Y-121945087D01*
X144240461Y-121945087D02*
X144294890Y-121890659D01*
X144294890Y-121890659D02*
X144403747Y-121836230D01*
X144403747Y-121836230D02*
X144621461Y-121836230D01*
X144621461Y-121836230D02*
X144730319Y-121890659D01*
X145710033Y-122543802D02*
X145601176Y-122598230D01*
X145601176Y-122598230D02*
X145383462Y-122598230D01*
X145383462Y-122598230D02*
X145274604Y-122543802D01*
X145274604Y-122543802D02*
X145220176Y-122434944D01*
X145220176Y-122434944D02*
X145220176Y-121999516D01*
X145220176Y-121999516D02*
X145274604Y-121890659D01*
X145274604Y-121890659D02*
X145383462Y-121836230D01*
X145383462Y-121836230D02*
X145601176Y-121836230D01*
X145601176Y-121836230D02*
X145710033Y-121890659D01*
X145710033Y-121890659D02*
X145764462Y-121999516D01*
X145764462Y-121999516D02*
X145764462Y-122108373D01*
X145764462Y-122108373D02*
X145220176Y-122217230D01*
X146254318Y-122598230D02*
X146254318Y-121836230D01*
X146254318Y-122053944D02*
X146308747Y-121945087D01*
X146308747Y-121945087D02*
X146363176Y-121890659D01*
X146363176Y-121890659D02*
X146472033Y-121836230D01*
X146472033Y-121836230D02*
X146580890Y-121836230D01*
X146798604Y-121836230D02*
X147234032Y-121836230D01*
X146961889Y-121455230D02*
X146961889Y-122434944D01*
X146961889Y-122434944D02*
X147016318Y-122543802D01*
X147016318Y-122543802D02*
X147125175Y-122598230D01*
X147125175Y-122598230D02*
X147234032Y-122598230D01*
X147615032Y-122598230D02*
X147615032Y-121836230D01*
X147615032Y-121455230D02*
X147560604Y-121509659D01*
X147560604Y-121509659D02*
X147615032Y-121564087D01*
X147615032Y-121564087D02*
X147669461Y-121509659D01*
X147669461Y-121509659D02*
X147615032Y-121455230D01*
X147615032Y-121455230D02*
X147615032Y-121564087D01*
X148159318Y-121836230D02*
X148159318Y-122979230D01*
X148159318Y-121890659D02*
X148268176Y-121836230D01*
X148268176Y-121836230D02*
X148485890Y-121836230D01*
X148485890Y-121836230D02*
X148594747Y-121890659D01*
X148594747Y-121890659D02*
X148649176Y-121945087D01*
X148649176Y-121945087D02*
X148703604Y-122053944D01*
X148703604Y-122053944D02*
X148703604Y-122380516D01*
X148703604Y-122380516D02*
X148649176Y-122489373D01*
X148649176Y-122489373D02*
X148594747Y-122543802D01*
X148594747Y-122543802D02*
X148485890Y-122598230D01*
X148485890Y-122598230D02*
X148268176Y-122598230D01*
X148268176Y-122598230D02*
X148159318Y-122543802D01*
X150064318Y-122598230D02*
X150064318Y-121455230D01*
X150608604Y-122598230D02*
X150608604Y-121836230D01*
X150608604Y-121945087D02*
X150663033Y-121890659D01*
X150663033Y-121890659D02*
X150771890Y-121836230D01*
X150771890Y-121836230D02*
X150935176Y-121836230D01*
X150935176Y-121836230D02*
X151044033Y-121890659D01*
X151044033Y-121890659D02*
X151098462Y-121999516D01*
X151098462Y-121999516D02*
X151098462Y-122598230D01*
X151098462Y-121999516D02*
X151152890Y-121890659D01*
X151152890Y-121890659D02*
X151261747Y-121836230D01*
X151261747Y-121836230D02*
X151425033Y-121836230D01*
X151425033Y-121836230D02*
X151533890Y-121890659D01*
X151533890Y-121890659D02*
X151588319Y-121999516D01*
X151588319Y-121999516D02*
X151588319Y-122598230D01*
X152132604Y-121836230D02*
X152132604Y-122979230D01*
X152132604Y-121890659D02*
X152241462Y-121836230D01*
X152241462Y-121836230D02*
X152459176Y-121836230D01*
X152459176Y-121836230D02*
X152568033Y-121890659D01*
X152568033Y-121890659D02*
X152622462Y-121945087D01*
X152622462Y-121945087D02*
X152676890Y-122053944D01*
X152676890Y-122053944D02*
X152676890Y-122380516D01*
X152676890Y-122380516D02*
X152622462Y-122489373D01*
X152622462Y-122489373D02*
X152568033Y-122543802D01*
X152568033Y-122543802D02*
X152459176Y-122598230D01*
X152459176Y-122598230D02*
X152241462Y-122598230D01*
X152241462Y-122598230D02*
X152132604Y-122543802D01*
X153602176Y-122543802D02*
X153493319Y-122598230D01*
X153493319Y-122598230D02*
X153275605Y-122598230D01*
X153275605Y-122598230D02*
X153166747Y-122543802D01*
X153166747Y-122543802D02*
X153112319Y-122434944D01*
X153112319Y-122434944D02*
X153112319Y-121999516D01*
X153112319Y-121999516D02*
X153166747Y-121890659D01*
X153166747Y-121890659D02*
X153275605Y-121836230D01*
X153275605Y-121836230D02*
X153493319Y-121836230D01*
X153493319Y-121836230D02*
X153602176Y-121890659D01*
X153602176Y-121890659D02*
X153656605Y-121999516D01*
X153656605Y-121999516D02*
X153656605Y-122108373D01*
X153656605Y-122108373D02*
X153112319Y-122217230D01*
X154636319Y-122598230D02*
X154636319Y-121455230D01*
X154636319Y-122543802D02*
X154527461Y-122598230D01*
X154527461Y-122598230D02*
X154309747Y-122598230D01*
X154309747Y-122598230D02*
X154200890Y-122543802D01*
X154200890Y-122543802D02*
X154146461Y-122489373D01*
X154146461Y-122489373D02*
X154092033Y-122380516D01*
X154092033Y-122380516D02*
X154092033Y-122053944D01*
X154092033Y-122053944D02*
X154146461Y-121945087D01*
X154146461Y-121945087D02*
X154200890Y-121890659D01*
X154200890Y-121890659D02*
X154309747Y-121836230D01*
X154309747Y-121836230D02*
X154527461Y-121836230D01*
X154527461Y-121836230D02*
X154636319Y-121890659D01*
X155670462Y-122598230D02*
X155670462Y-121999516D01*
X155670462Y-121999516D02*
X155616033Y-121890659D01*
X155616033Y-121890659D02*
X155507176Y-121836230D01*
X155507176Y-121836230D02*
X155289462Y-121836230D01*
X155289462Y-121836230D02*
X155180604Y-121890659D01*
X155670462Y-122543802D02*
X155561604Y-122598230D01*
X155561604Y-122598230D02*
X155289462Y-122598230D01*
X155289462Y-122598230D02*
X155180604Y-122543802D01*
X155180604Y-122543802D02*
X155126176Y-122434944D01*
X155126176Y-122434944D02*
X155126176Y-122326087D01*
X155126176Y-122326087D02*
X155180604Y-122217230D01*
X155180604Y-122217230D02*
X155289462Y-122162802D01*
X155289462Y-122162802D02*
X155561604Y-122162802D01*
X155561604Y-122162802D02*
X155670462Y-122108373D01*
X156214747Y-121836230D02*
X156214747Y-122598230D01*
X156214747Y-121945087D02*
X156269176Y-121890659D01*
X156269176Y-121890659D02*
X156378033Y-121836230D01*
X156378033Y-121836230D02*
X156541319Y-121836230D01*
X156541319Y-121836230D02*
X156650176Y-121890659D01*
X156650176Y-121890659D02*
X156704605Y-121999516D01*
X156704605Y-121999516D02*
X156704605Y-122598230D01*
X157738748Y-122543802D02*
X157629890Y-122598230D01*
X157629890Y-122598230D02*
X157412176Y-122598230D01*
X157412176Y-122598230D02*
X157303319Y-122543802D01*
X157303319Y-122543802D02*
X157248890Y-122489373D01*
X157248890Y-122489373D02*
X157194462Y-122380516D01*
X157194462Y-122380516D02*
X157194462Y-122053944D01*
X157194462Y-122053944D02*
X157248890Y-121945087D01*
X157248890Y-121945087D02*
X157303319Y-121890659D01*
X157303319Y-121890659D02*
X157412176Y-121836230D01*
X157412176Y-121836230D02*
X157629890Y-121836230D01*
X157629890Y-121836230D02*
X157738748Y-121890659D01*
X158664033Y-122543802D02*
X158555176Y-122598230D01*
X158555176Y-122598230D02*
X158337462Y-122598230D01*
X158337462Y-122598230D02*
X158228604Y-122543802D01*
X158228604Y-122543802D02*
X158174176Y-122434944D01*
X158174176Y-122434944D02*
X158174176Y-121999516D01*
X158174176Y-121999516D02*
X158228604Y-121890659D01*
X158228604Y-121890659D02*
X158337462Y-121836230D01*
X158337462Y-121836230D02*
X158555176Y-121836230D01*
X158555176Y-121836230D02*
X158664033Y-121890659D01*
X158664033Y-121890659D02*
X158718462Y-121999516D01*
X158718462Y-121999516D02*
X158718462Y-122108373D01*
X158718462Y-122108373D02*
X158174176Y-122217230D01*
X160079175Y-122598230D02*
X160079175Y-121455230D01*
X160079175Y-121455230D02*
X160351318Y-121455230D01*
X160351318Y-121455230D02*
X160514604Y-121509659D01*
X160514604Y-121509659D02*
X160623461Y-121618516D01*
X160623461Y-121618516D02*
X160677890Y-121727373D01*
X160677890Y-121727373D02*
X160732318Y-121945087D01*
X160732318Y-121945087D02*
X160732318Y-122108373D01*
X160732318Y-122108373D02*
X160677890Y-122326087D01*
X160677890Y-122326087D02*
X160623461Y-122434944D01*
X160623461Y-122434944D02*
X160514604Y-122543802D01*
X160514604Y-122543802D02*
X160351318Y-122598230D01*
X160351318Y-122598230D02*
X160079175Y-122598230D01*
X161712033Y-122598230D02*
X161712033Y-121999516D01*
X161712033Y-121999516D02*
X161657604Y-121890659D01*
X161657604Y-121890659D02*
X161548747Y-121836230D01*
X161548747Y-121836230D02*
X161331033Y-121836230D01*
X161331033Y-121836230D02*
X161222175Y-121890659D01*
X161712033Y-122543802D02*
X161603175Y-122598230D01*
X161603175Y-122598230D02*
X161331033Y-122598230D01*
X161331033Y-122598230D02*
X161222175Y-122543802D01*
X161222175Y-122543802D02*
X161167747Y-122434944D01*
X161167747Y-122434944D02*
X161167747Y-122326087D01*
X161167747Y-122326087D02*
X161222175Y-122217230D01*
X161222175Y-122217230D02*
X161331033Y-122162802D01*
X161331033Y-122162802D02*
X161603175Y-122162802D01*
X161603175Y-122162802D02*
X161712033Y-122108373D01*
X162093033Y-121836230D02*
X162528461Y-121836230D01*
X162256318Y-121455230D02*
X162256318Y-122434944D01*
X162256318Y-122434944D02*
X162310747Y-122543802D01*
X162310747Y-122543802D02*
X162419604Y-122598230D01*
X162419604Y-122598230D02*
X162528461Y-122598230D01*
X163399319Y-122598230D02*
X163399319Y-121999516D01*
X163399319Y-121999516D02*
X163344890Y-121890659D01*
X163344890Y-121890659D02*
X163236033Y-121836230D01*
X163236033Y-121836230D02*
X163018319Y-121836230D01*
X163018319Y-121836230D02*
X162909461Y-121890659D01*
X163399319Y-122543802D02*
X163290461Y-122598230D01*
X163290461Y-122598230D02*
X163018319Y-122598230D01*
X163018319Y-122598230D02*
X162909461Y-122543802D01*
X162909461Y-122543802D02*
X162855033Y-122434944D01*
X162855033Y-122434944D02*
X162855033Y-122326087D01*
X162855033Y-122326087D02*
X162909461Y-122217230D01*
X162909461Y-122217230D02*
X163018319Y-122162802D01*
X163018319Y-122162802D02*
X163290461Y-122162802D01*
X163290461Y-122162802D02*
X163399319Y-122108373D01*
X164760033Y-122271659D02*
X165304319Y-122271659D01*
X164651176Y-122598230D02*
X165032176Y-121455230D01*
X165032176Y-121455230D02*
X165413176Y-122598230D01*
X166284033Y-122543802D02*
X166175175Y-122598230D01*
X166175175Y-122598230D02*
X165957461Y-122598230D01*
X165957461Y-122598230D02*
X165848604Y-122543802D01*
X165848604Y-122543802D02*
X165794175Y-122489373D01*
X165794175Y-122489373D02*
X165739747Y-122380516D01*
X165739747Y-122380516D02*
X165739747Y-122053944D01*
X165739747Y-122053944D02*
X165794175Y-121945087D01*
X165794175Y-121945087D02*
X165848604Y-121890659D01*
X165848604Y-121890659D02*
X165957461Y-121836230D01*
X165957461Y-121836230D02*
X166175175Y-121836230D01*
X166175175Y-121836230D02*
X166284033Y-121890659D01*
X167263747Y-121836230D02*
X167263747Y-122979230D01*
X167263747Y-122543802D02*
X167154889Y-122598230D01*
X167154889Y-122598230D02*
X166937175Y-122598230D01*
X166937175Y-122598230D02*
X166828318Y-122543802D01*
X166828318Y-122543802D02*
X166773889Y-122489373D01*
X166773889Y-122489373D02*
X166719461Y-122380516D01*
X166719461Y-122380516D02*
X166719461Y-122053944D01*
X166719461Y-122053944D02*
X166773889Y-121945087D01*
X166773889Y-121945087D02*
X166828318Y-121890659D01*
X166828318Y-121890659D02*
X166937175Y-121836230D01*
X166937175Y-121836230D02*
X167154889Y-121836230D01*
X167154889Y-121836230D02*
X167263747Y-121890659D01*
X168297890Y-121836230D02*
X168297890Y-122598230D01*
X167808032Y-121836230D02*
X167808032Y-122434944D01*
X167808032Y-122434944D02*
X167862461Y-122543802D01*
X167862461Y-122543802D02*
X167971318Y-122598230D01*
X167971318Y-122598230D02*
X168134604Y-122598230D01*
X168134604Y-122598230D02*
X168243461Y-122543802D01*
X168243461Y-122543802D02*
X168297890Y-122489373D01*
X168842175Y-122598230D02*
X168842175Y-121836230D01*
X168842175Y-121455230D02*
X168787747Y-121509659D01*
X168787747Y-121509659D02*
X168842175Y-121564087D01*
X168842175Y-121564087D02*
X168896604Y-121509659D01*
X168896604Y-121509659D02*
X168842175Y-121455230D01*
X168842175Y-121455230D02*
X168842175Y-121564087D01*
X169332033Y-122543802D02*
X169440890Y-122598230D01*
X169440890Y-122598230D02*
X169658604Y-122598230D01*
X169658604Y-122598230D02*
X169767461Y-122543802D01*
X169767461Y-122543802D02*
X169821890Y-122434944D01*
X169821890Y-122434944D02*
X169821890Y-122380516D01*
X169821890Y-122380516D02*
X169767461Y-122271659D01*
X169767461Y-122271659D02*
X169658604Y-122217230D01*
X169658604Y-122217230D02*
X169495319Y-122217230D01*
X169495319Y-122217230D02*
X169386461Y-122162802D01*
X169386461Y-122162802D02*
X169332033Y-122053944D01*
X169332033Y-122053944D02*
X169332033Y-121999516D01*
X169332033Y-121999516D02*
X169386461Y-121890659D01*
X169386461Y-121890659D02*
X169495319Y-121836230D01*
X169495319Y-121836230D02*
X169658604Y-121836230D01*
X169658604Y-121836230D02*
X169767461Y-121890659D01*
X170311747Y-122598230D02*
X170311747Y-121836230D01*
X170311747Y-121455230D02*
X170257319Y-121509659D01*
X170257319Y-121509659D02*
X170311747Y-121564087D01*
X170311747Y-121564087D02*
X170366176Y-121509659D01*
X170366176Y-121509659D02*
X170311747Y-121455230D01*
X170311747Y-121455230D02*
X170311747Y-121564087D01*
X170692748Y-121836230D02*
X171128176Y-121836230D01*
X170856033Y-121455230D02*
X170856033Y-122434944D01*
X170856033Y-122434944D02*
X170910462Y-122543802D01*
X170910462Y-122543802D02*
X171019319Y-122598230D01*
X171019319Y-122598230D02*
X171128176Y-122598230D01*
X171509176Y-122598230D02*
X171509176Y-121836230D01*
X171509176Y-121455230D02*
X171454748Y-121509659D01*
X171454748Y-121509659D02*
X171509176Y-121564087D01*
X171509176Y-121564087D02*
X171563605Y-121509659D01*
X171563605Y-121509659D02*
X171509176Y-121455230D01*
X171509176Y-121455230D02*
X171509176Y-121564087D01*
X172216748Y-122598230D02*
X172107891Y-122543802D01*
X172107891Y-122543802D02*
X172053462Y-122489373D01*
X172053462Y-122489373D02*
X171999034Y-122380516D01*
X171999034Y-122380516D02*
X171999034Y-122053944D01*
X171999034Y-122053944D02*
X172053462Y-121945087D01*
X172053462Y-121945087D02*
X172107891Y-121890659D01*
X172107891Y-121890659D02*
X172216748Y-121836230D01*
X172216748Y-121836230D02*
X172380034Y-121836230D01*
X172380034Y-121836230D02*
X172488891Y-121890659D01*
X172488891Y-121890659D02*
X172543320Y-121945087D01*
X172543320Y-121945087D02*
X172597748Y-122053944D01*
X172597748Y-122053944D02*
X172597748Y-122380516D01*
X172597748Y-122380516D02*
X172543320Y-122489373D01*
X172543320Y-122489373D02*
X172488891Y-122543802D01*
X172488891Y-122543802D02*
X172380034Y-122598230D01*
X172380034Y-122598230D02*
X172216748Y-122598230D01*
X173087605Y-121836230D02*
X173087605Y-122598230D01*
X173087605Y-121945087D02*
X173142034Y-121890659D01*
X173142034Y-121890659D02*
X173250891Y-121836230D01*
X173250891Y-121836230D02*
X173414177Y-121836230D01*
X173414177Y-121836230D02*
X173523034Y-121890659D01*
X173523034Y-121890659D02*
X173577463Y-121999516D01*
X173577463Y-121999516D02*
X173577463Y-122598230D01*
D11*
X138859398Y-107865093D02*
X138375588Y-107865093D01*
X138375588Y-107865093D02*
X138375588Y-106849093D01*
X138375588Y-110965093D02*
X138375588Y-109949093D01*
X138375588Y-110432903D02*
X138956160Y-110432903D01*
X138956160Y-110965093D02*
X138956160Y-109949093D01*
X138575588Y-101165093D02*
X138575588Y-100149093D01*
X138575588Y-100632903D02*
X139156160Y-100632903D01*
X139156160Y-101165093D02*
X139156160Y-100149093D01*
X139059398Y-98065093D02*
X138575588Y-98065093D01*
X138575588Y-98065093D02*
X138575588Y-97049093D01*
X153275588Y-90178046D02*
X154049684Y-90178046D01*
X153662636Y-90565093D02*
X153662636Y-89790998D01*
X153275588Y-100978046D02*
X154049684Y-100978046D01*
X153662636Y-101365093D02*
X153662636Y-100590998D01*
X153275588Y-95578046D02*
X154049684Y-95578046D01*
X153662636Y-95965093D02*
X153662636Y-95190998D01*
X151975588Y-58478046D02*
X152749684Y-58478046D01*
X152362636Y-58865093D02*
X152362636Y-58090998D01*
D12*
X142304510Y-49229400D02*
X143447368Y-49229400D01*
X147804510Y-49229400D02*
X148947368Y-49229400D01*
X148375939Y-49800828D02*
X148375939Y-48657971D01*
X150375939Y-48300828D02*
X149661653Y-48300828D01*
X149661653Y-48300828D02*
X149590225Y-49015114D01*
X149590225Y-49015114D02*
X149661653Y-48943685D01*
X149661653Y-48943685D02*
X149804511Y-48872257D01*
X149804511Y-48872257D02*
X150161653Y-48872257D01*
X150161653Y-48872257D02*
X150304511Y-48943685D01*
X150304511Y-48943685D02*
X150375939Y-49015114D01*
X150375939Y-49015114D02*
X150447368Y-49157971D01*
X150447368Y-49157971D02*
X150447368Y-49515114D01*
X150447368Y-49515114D02*
X150375939Y-49657971D01*
X150375939Y-49657971D02*
X150304511Y-49729400D01*
X150304511Y-49729400D02*
X150161653Y-49800828D01*
X150161653Y-49800828D02*
X149804511Y-49800828D01*
X149804511Y-49800828D02*
X149661653Y-49729400D01*
X149661653Y-49729400D02*
X149590225Y-49657971D01*
X150875939Y-48300828D02*
X151375939Y-49800828D01*
X151375939Y-49800828D02*
X151875939Y-48300828D01*
D13*
X148394562Y-88259500D02*
X148817895Y-88259500D01*
X148817895Y-88259500D02*
X148394562Y-88894500D01*
X148394562Y-88894500D02*
X148817895Y-88894500D01*
X148666705Y-94011881D02*
X148757419Y-94042119D01*
X148757419Y-94042119D02*
X148787657Y-94072357D01*
X148787657Y-94072357D02*
X148817895Y-94132833D01*
X148817895Y-94132833D02*
X148817895Y-94223547D01*
X148817895Y-94223547D02*
X148787657Y-94284023D01*
X148787657Y-94284023D02*
X148757419Y-94314262D01*
X148757419Y-94314262D02*
X148696943Y-94344500D01*
X148696943Y-94344500D02*
X148455038Y-94344500D01*
X148455038Y-94344500D02*
X148455038Y-93709500D01*
X148455038Y-93709500D02*
X148666705Y-93709500D01*
X148666705Y-93709500D02*
X148727181Y-93739738D01*
X148727181Y-93739738D02*
X148757419Y-93769976D01*
X148757419Y-93769976D02*
X148787657Y-93830452D01*
X148787657Y-93830452D02*
X148787657Y-93890928D01*
X148787657Y-93890928D02*
X148757419Y-93951404D01*
X148757419Y-93951404D02*
X148727181Y-93981642D01*
X148727181Y-93981642D02*
X148666705Y-94011881D01*
X148666705Y-94011881D02*
X148455038Y-94011881D01*
X148424800Y-99563071D02*
X148727181Y-99563071D01*
X148364324Y-99744500D02*
X148575990Y-99109500D01*
X148575990Y-99109500D02*
X148787657Y-99744500D01*
X145163766Y-95776963D02*
X144952099Y-95776963D01*
X144952099Y-96109582D02*
X144952099Y-95474582D01*
X144952099Y-95474582D02*
X145254480Y-95474582D01*
X145768528Y-96109582D02*
X145768528Y-95776963D01*
X145768528Y-95776963D02*
X145738290Y-95716486D01*
X145738290Y-95716486D02*
X145677814Y-95686248D01*
X145677814Y-95686248D02*
X145556861Y-95686248D01*
X145556861Y-95686248D02*
X145496385Y-95716486D01*
X145768528Y-96079344D02*
X145708052Y-96109582D01*
X145708052Y-96109582D02*
X145556861Y-96109582D01*
X145556861Y-96109582D02*
X145496385Y-96079344D01*
X145496385Y-96079344D02*
X145466147Y-96018867D01*
X145466147Y-96018867D02*
X145466147Y-95958391D01*
X145466147Y-95958391D02*
X145496385Y-95897915D01*
X145496385Y-95897915D02*
X145556861Y-95867677D01*
X145556861Y-95867677D02*
X145708052Y-95867677D01*
X145708052Y-95867677D02*
X145768528Y-95837439D01*
X146343052Y-95686248D02*
X146343052Y-96109582D01*
X146070909Y-95686248D02*
X146070909Y-96018867D01*
X146070909Y-96018867D02*
X146101147Y-96079344D01*
X146101147Y-96079344D02*
X146161623Y-96109582D01*
X146161623Y-96109582D02*
X146252338Y-96109582D01*
X146252338Y-96109582D02*
X146312814Y-96079344D01*
X146312814Y-96079344D02*
X146343052Y-96049105D01*
X146736147Y-96109582D02*
X146675671Y-96079344D01*
X146675671Y-96079344D02*
X146645433Y-96018867D01*
X146645433Y-96018867D02*
X146645433Y-95474582D01*
X146887338Y-95686248D02*
X147129242Y-95686248D01*
X146978052Y-95474582D02*
X146978052Y-96018867D01*
X146978052Y-96018867D02*
X147008290Y-96079344D01*
X147008290Y-96079344D02*
X147068766Y-96109582D01*
X147068766Y-96109582D02*
X147129242Y-96109582D01*
X144029837Y-97131896D02*
X144029837Y-96496896D01*
X144332218Y-96708562D02*
X144332218Y-97131896D01*
X144332218Y-96769038D02*
X144362456Y-96738800D01*
X144362456Y-96738800D02*
X144422932Y-96708562D01*
X144422932Y-96708562D02*
X144513647Y-96708562D01*
X144513647Y-96708562D02*
X144574123Y-96738800D01*
X144574123Y-96738800D02*
X144604361Y-96799277D01*
X144604361Y-96799277D02*
X144604361Y-97131896D01*
X145178885Y-97131896D02*
X145178885Y-96496896D01*
X145178885Y-97101658D02*
X145118409Y-97131896D01*
X145118409Y-97131896D02*
X144997456Y-97131896D01*
X144997456Y-97131896D02*
X144936980Y-97101658D01*
X144936980Y-97101658D02*
X144906742Y-97071419D01*
X144906742Y-97071419D02*
X144876504Y-97010943D01*
X144876504Y-97010943D02*
X144876504Y-96829515D01*
X144876504Y-96829515D02*
X144906742Y-96769038D01*
X144906742Y-96769038D02*
X144936980Y-96738800D01*
X144936980Y-96738800D02*
X144997456Y-96708562D01*
X144997456Y-96708562D02*
X145118409Y-96708562D01*
X145118409Y-96708562D02*
X145178885Y-96738800D01*
X145481266Y-97131896D02*
X145481266Y-96708562D01*
X145481266Y-96496896D02*
X145451028Y-96527134D01*
X145451028Y-96527134D02*
X145481266Y-96557372D01*
X145481266Y-96557372D02*
X145511504Y-96527134D01*
X145511504Y-96527134D02*
X145481266Y-96496896D01*
X145481266Y-96496896D02*
X145481266Y-96557372D01*
X146055790Y-97101658D02*
X145995314Y-97131896D01*
X145995314Y-97131896D02*
X145874361Y-97131896D01*
X145874361Y-97131896D02*
X145813885Y-97101658D01*
X145813885Y-97101658D02*
X145783647Y-97071419D01*
X145783647Y-97071419D02*
X145753409Y-97010943D01*
X145753409Y-97010943D02*
X145753409Y-96829515D01*
X145753409Y-96829515D02*
X145783647Y-96769038D01*
X145783647Y-96769038D02*
X145813885Y-96738800D01*
X145813885Y-96738800D02*
X145874361Y-96708562D01*
X145874361Y-96708562D02*
X145995314Y-96708562D01*
X145995314Y-96708562D02*
X146055790Y-96738800D01*
X146600076Y-97131896D02*
X146600076Y-96799277D01*
X146600076Y-96799277D02*
X146569838Y-96738800D01*
X146569838Y-96738800D02*
X146509362Y-96708562D01*
X146509362Y-96708562D02*
X146388409Y-96708562D01*
X146388409Y-96708562D02*
X146327933Y-96738800D01*
X146600076Y-97101658D02*
X146539600Y-97131896D01*
X146539600Y-97131896D02*
X146388409Y-97131896D01*
X146388409Y-97131896D02*
X146327933Y-97101658D01*
X146327933Y-97101658D02*
X146297695Y-97041181D01*
X146297695Y-97041181D02*
X146297695Y-96980705D01*
X146297695Y-96980705D02*
X146327933Y-96920229D01*
X146327933Y-96920229D02*
X146388409Y-96889991D01*
X146388409Y-96889991D02*
X146539600Y-96889991D01*
X146539600Y-96889991D02*
X146600076Y-96859753D01*
X146811743Y-96708562D02*
X147053647Y-96708562D01*
X146902457Y-96496896D02*
X146902457Y-97041181D01*
X146902457Y-97041181D02*
X146932695Y-97101658D01*
X146932695Y-97101658D02*
X146993171Y-97131896D01*
X146993171Y-97131896D02*
X147053647Y-97131896D01*
X147356028Y-97131896D02*
X147295552Y-97101658D01*
X147295552Y-97101658D02*
X147265314Y-97071419D01*
X147265314Y-97071419D02*
X147235076Y-97010943D01*
X147235076Y-97010943D02*
X147235076Y-96829515D01*
X147235076Y-96829515D02*
X147265314Y-96769038D01*
X147265314Y-96769038D02*
X147295552Y-96738800D01*
X147295552Y-96738800D02*
X147356028Y-96708562D01*
X147356028Y-96708562D02*
X147446743Y-96708562D01*
X147446743Y-96708562D02*
X147507219Y-96738800D01*
X147507219Y-96738800D02*
X147537457Y-96769038D01*
X147537457Y-96769038D02*
X147567695Y-96829515D01*
X147567695Y-96829515D02*
X147567695Y-97010943D01*
X147567695Y-97010943D02*
X147537457Y-97071419D01*
X147537457Y-97071419D02*
X147507219Y-97101658D01*
X147507219Y-97101658D02*
X147446743Y-97131896D01*
X147446743Y-97131896D02*
X147356028Y-97131896D01*
X147839838Y-97131896D02*
X147839838Y-96708562D01*
X147839838Y-96829515D02*
X147870076Y-96769038D01*
X147870076Y-96769038D02*
X147900314Y-96738800D01*
X147900314Y-96738800D02*
X147960790Y-96708562D01*
X147960790Y-96708562D02*
X148021267Y-96708562D01*
X148202695Y-97101658D02*
X148263171Y-97131896D01*
X148263171Y-97131896D02*
X148384123Y-97131896D01*
X148384123Y-97131896D02*
X148444600Y-97101658D01*
X148444600Y-97101658D02*
X148474838Y-97041181D01*
X148474838Y-97041181D02*
X148474838Y-97010943D01*
X148474838Y-97010943D02*
X148444600Y-96950467D01*
X148444600Y-96950467D02*
X148384123Y-96920229D01*
X148384123Y-96920229D02*
X148293409Y-96920229D01*
X148293409Y-96920229D02*
X148232933Y-96889991D01*
X148232933Y-96889991D02*
X148202695Y-96829515D01*
X148202695Y-96829515D02*
X148202695Y-96799277D01*
X148202695Y-96799277D02*
X148232933Y-96738800D01*
X148232933Y-96738800D02*
X148293409Y-96708562D01*
X148293409Y-96708562D02*
X148384123Y-96708562D01*
X148384123Y-96708562D02*
X148444600Y-96738800D01*
D14*
X153518231Y-60144434D02*
X153518231Y-59144434D01*
X153518231Y-59144434D02*
X153756326Y-59144434D01*
X153756326Y-59144434D02*
X153899183Y-59192053D01*
X153899183Y-59192053D02*
X153994421Y-59287291D01*
X153994421Y-59287291D02*
X154042040Y-59382529D01*
X154042040Y-59382529D02*
X154089659Y-59573005D01*
X154089659Y-59573005D02*
X154089659Y-59715862D01*
X154089659Y-59715862D02*
X154042040Y-59906338D01*
X154042040Y-59906338D02*
X153994421Y-60001576D01*
X153994421Y-60001576D02*
X153899183Y-60096815D01*
X153899183Y-60096815D02*
X153756326Y-60144434D01*
X153756326Y-60144434D02*
X153518231Y-60144434D01*
X154946802Y-59477767D02*
X154946802Y-60144434D01*
X154708707Y-59096815D02*
X154470612Y-59811100D01*
X154470612Y-59811100D02*
X155089659Y-59811100D01*
X150982901Y-96766111D02*
X150982901Y-95766111D01*
X150982901Y-95766111D02*
X151220996Y-95766111D01*
X151220996Y-95766111D02*
X151363853Y-95813730D01*
X151363853Y-95813730D02*
X151459091Y-95908968D01*
X151459091Y-95908968D02*
X151506710Y-96004206D01*
X151506710Y-96004206D02*
X151554329Y-96194682D01*
X151554329Y-96194682D02*
X151554329Y-96337539D01*
X151554329Y-96337539D02*
X151506710Y-96528015D01*
X151506710Y-96528015D02*
X151459091Y-96623253D01*
X151459091Y-96623253D02*
X151363853Y-96718492D01*
X151363853Y-96718492D02*
X151220996Y-96766111D01*
X151220996Y-96766111D02*
X150982901Y-96766111D01*
X151887663Y-95766111D02*
X152506710Y-95766111D01*
X152506710Y-95766111D02*
X152173377Y-96147063D01*
X152173377Y-96147063D02*
X152316234Y-96147063D01*
X152316234Y-96147063D02*
X152411472Y-96194682D01*
X152411472Y-96194682D02*
X152459091Y-96242301D01*
X152459091Y-96242301D02*
X152506710Y-96337539D01*
X152506710Y-96337539D02*
X152506710Y-96575634D01*
X152506710Y-96575634D02*
X152459091Y-96670872D01*
X152459091Y-96670872D02*
X152411472Y-96718492D01*
X152411472Y-96718492D02*
X152316234Y-96766111D01*
X152316234Y-96766111D02*
X152030520Y-96766111D01*
X152030520Y-96766111D02*
X151935282Y-96718492D01*
X151935282Y-96718492D02*
X151887663Y-96670872D01*
X150982901Y-91366111D02*
X150982901Y-90366111D01*
X150982901Y-90366111D02*
X151220996Y-90366111D01*
X151220996Y-90366111D02*
X151363853Y-90413730D01*
X151363853Y-90413730D02*
X151459091Y-90508968D01*
X151459091Y-90508968D02*
X151506710Y-90604206D01*
X151506710Y-90604206D02*
X151554329Y-90794682D01*
X151554329Y-90794682D02*
X151554329Y-90937539D01*
X151554329Y-90937539D02*
X151506710Y-91128015D01*
X151506710Y-91128015D02*
X151459091Y-91223253D01*
X151459091Y-91223253D02*
X151363853Y-91318492D01*
X151363853Y-91318492D02*
X151220996Y-91366111D01*
X151220996Y-91366111D02*
X150982901Y-91366111D01*
X151935282Y-90461349D02*
X151982901Y-90413730D01*
X151982901Y-90413730D02*
X152078139Y-90366111D01*
X152078139Y-90366111D02*
X152316234Y-90366111D01*
X152316234Y-90366111D02*
X152411472Y-90413730D01*
X152411472Y-90413730D02*
X152459091Y-90461349D01*
X152459091Y-90461349D02*
X152506710Y-90556587D01*
X152506710Y-90556587D02*
X152506710Y-90651825D01*
X152506710Y-90651825D02*
X152459091Y-90794682D01*
X152459091Y-90794682D02*
X151887663Y-91366111D01*
X151887663Y-91366111D02*
X152506710Y-91366111D01*
X150982901Y-85966111D02*
X150982901Y-84966111D01*
X150982901Y-84966111D02*
X151220996Y-84966111D01*
X151220996Y-84966111D02*
X151363853Y-85013730D01*
X151363853Y-85013730D02*
X151459091Y-85108968D01*
X151459091Y-85108968D02*
X151506710Y-85204206D01*
X151506710Y-85204206D02*
X151554329Y-85394682D01*
X151554329Y-85394682D02*
X151554329Y-85537539D01*
X151554329Y-85537539D02*
X151506710Y-85728015D01*
X151506710Y-85728015D02*
X151459091Y-85823253D01*
X151459091Y-85823253D02*
X151363853Y-85918492D01*
X151363853Y-85918492D02*
X151220996Y-85966111D01*
X151220996Y-85966111D02*
X150982901Y-85966111D01*
X152506710Y-85966111D02*
X151935282Y-85966111D01*
X152220996Y-85966111D02*
X152220996Y-84966111D01*
X152220996Y-84966111D02*
X152125758Y-85108968D01*
X152125758Y-85108968D02*
X152030520Y-85204206D01*
X152030520Y-85204206D02*
X151935282Y-85251825D01*
X153944642Y-51804819D02*
X153611309Y-51328628D01*
X153373214Y-51804819D02*
X153373214Y-50804819D01*
X153373214Y-50804819D02*
X153754166Y-50804819D01*
X153754166Y-50804819D02*
X153849404Y-50852438D01*
X153849404Y-50852438D02*
X153897023Y-50900057D01*
X153897023Y-50900057D02*
X153944642Y-50995295D01*
X153944642Y-50995295D02*
X153944642Y-51138152D01*
X153944642Y-51138152D02*
X153897023Y-51233390D01*
X153897023Y-51233390D02*
X153849404Y-51281009D01*
X153849404Y-51281009D02*
X153754166Y-51328628D01*
X153754166Y-51328628D02*
X153373214Y-51328628D01*
X154897023Y-51804819D02*
X154325595Y-51804819D01*
X154611309Y-51804819D02*
X154611309Y-50804819D01*
X154611309Y-50804819D02*
X154516071Y-50947676D01*
X154516071Y-50947676D02*
X154420833Y-51042914D01*
X154420833Y-51042914D02*
X154325595Y-51090533D01*
X155516071Y-50804819D02*
X155611309Y-50804819D01*
X155611309Y-50804819D02*
X155706547Y-50852438D01*
X155706547Y-50852438D02*
X155754166Y-50900057D01*
X155754166Y-50900057D02*
X155801785Y-50995295D01*
X155801785Y-50995295D02*
X155849404Y-51185771D01*
X155849404Y-51185771D02*
X155849404Y-51423866D01*
X155849404Y-51423866D02*
X155801785Y-51614342D01*
X155801785Y-51614342D02*
X155754166Y-51709580D01*
X155754166Y-51709580D02*
X155706547Y-51757200D01*
X155706547Y-51757200D02*
X155611309Y-51804819D01*
X155611309Y-51804819D02*
X155516071Y-51804819D01*
X155516071Y-51804819D02*
X155420833Y-51757200D01*
X155420833Y-51757200D02*
X155373214Y-51709580D01*
X155373214Y-51709580D02*
X155325595Y-51614342D01*
X155325595Y-51614342D02*
X155277976Y-51423866D01*
X155277976Y-51423866D02*
X155277976Y-51185771D01*
X155277976Y-51185771D02*
X155325595Y-50995295D01*
X155325595Y-50995295D02*
X155373214Y-50900057D01*
X155373214Y-50900057D02*
X155420833Y-50852438D01*
X155420833Y-50852438D02*
X155516071Y-50804819D01*
X145416665Y-59812252D02*
X145416665Y-60526537D01*
X145416665Y-60526537D02*
X145369046Y-60669394D01*
X145369046Y-60669394D02*
X145273808Y-60764633D01*
X145273808Y-60764633D02*
X145130951Y-60812252D01*
X145130951Y-60812252D02*
X145035713Y-60812252D01*
X146369046Y-59812252D02*
X145892856Y-59812252D01*
X145892856Y-59812252D02*
X145845237Y-60288442D01*
X145845237Y-60288442D02*
X145892856Y-60240823D01*
X145892856Y-60240823D02*
X145988094Y-60193204D01*
X145988094Y-60193204D02*
X146226189Y-60193204D01*
X146226189Y-60193204D02*
X146321427Y-60240823D01*
X146321427Y-60240823D02*
X146369046Y-60288442D01*
X146369046Y-60288442D02*
X146416665Y-60383680D01*
X146416665Y-60383680D02*
X146416665Y-60621775D01*
X146416665Y-60621775D02*
X146369046Y-60717013D01*
X146369046Y-60717013D02*
X146321427Y-60764633D01*
X146321427Y-60764633D02*
X146226189Y-60812252D01*
X146226189Y-60812252D02*
X145988094Y-60812252D01*
X145988094Y-60812252D02*
X145892856Y-60764633D01*
X145892856Y-60764633D02*
X145845237Y-60717013D01*
X145292110Y-114838946D02*
X145292110Y-113838946D01*
X146339728Y-114743707D02*
X146292109Y-114791327D01*
X146292109Y-114791327D02*
X146149252Y-114838946D01*
X146149252Y-114838946D02*
X146054014Y-114838946D01*
X146054014Y-114838946D02*
X145911157Y-114791327D01*
X145911157Y-114791327D02*
X145815919Y-114696088D01*
X145815919Y-114696088D02*
X145768300Y-114600850D01*
X145768300Y-114600850D02*
X145720681Y-114410374D01*
X145720681Y-114410374D02*
X145720681Y-114267517D01*
X145720681Y-114267517D02*
X145768300Y-114077041D01*
X145768300Y-114077041D02*
X145815919Y-113981803D01*
X145815919Y-113981803D02*
X145911157Y-113886565D01*
X145911157Y-113886565D02*
X146054014Y-113838946D01*
X146054014Y-113838946D02*
X146149252Y-113838946D01*
X146149252Y-113838946D02*
X146292109Y-113886565D01*
X146292109Y-113886565D02*
X146339728Y-113934184D01*
X147292109Y-114838946D02*
X146720681Y-114838946D01*
X147006395Y-114838946D02*
X147006395Y-113838946D01*
X147006395Y-113838946D02*
X146911157Y-113981803D01*
X146911157Y-113981803D02*
X146815919Y-114077041D01*
X146815919Y-114077041D02*
X146720681Y-114124660D01*
X134666666Y-94054819D02*
X134666666Y-94769104D01*
X134666666Y-94769104D02*
X134619047Y-94911961D01*
X134619047Y-94911961D02*
X134523809Y-95007200D01*
X134523809Y-95007200D02*
X134380952Y-95054819D01*
X134380952Y-95054819D02*
X134285714Y-95054819D01*
X135047619Y-94054819D02*
X135666666Y-94054819D01*
X135666666Y-94054819D02*
X135333333Y-94435771D01*
X135333333Y-94435771D02*
X135476190Y-94435771D01*
X135476190Y-94435771D02*
X135571428Y-94483390D01*
X135571428Y-94483390D02*
X135619047Y-94531009D01*
X135619047Y-94531009D02*
X135666666Y-94626247D01*
X135666666Y-94626247D02*
X135666666Y-94864342D01*
X135666666Y-94864342D02*
X135619047Y-94959580D01*
X135619047Y-94959580D02*
X135571428Y-95007200D01*
X135571428Y-95007200D02*
X135476190Y-95054819D01*
X135476190Y-95054819D02*
X135190476Y-95054819D01*
X135190476Y-95054819D02*
X135095238Y-95007200D01*
X135095238Y-95007200D02*
X135047619Y-94959580D01*
X158082329Y-49832451D02*
X158082329Y-50546736D01*
X158082329Y-50546736D02*
X158034710Y-50689593D01*
X158034710Y-50689593D02*
X157939472Y-50784832D01*
X157939472Y-50784832D02*
X157796615Y-50832451D01*
X157796615Y-50832451D02*
X157701377Y-50832451D01*
X158558520Y-50832451D02*
X158558520Y-49832451D01*
X158558520Y-49832451D02*
X158939472Y-49832451D01*
X158939472Y-49832451D02*
X159034710Y-49880070D01*
X159034710Y-49880070D02*
X159082329Y-49927689D01*
X159082329Y-49927689D02*
X159129948Y-50022927D01*
X159129948Y-50022927D02*
X159129948Y-50165784D01*
X159129948Y-50165784D02*
X159082329Y-50261022D01*
X159082329Y-50261022D02*
X159034710Y-50308641D01*
X159034710Y-50308641D02*
X158939472Y-50356260D01*
X158939472Y-50356260D02*
X158558520Y-50356260D01*
X160082329Y-50832451D02*
X159510901Y-50832451D01*
X159796615Y-50832451D02*
X159796615Y-49832451D01*
X159796615Y-49832451D02*
X159701377Y-49975308D01*
X159701377Y-49975308D02*
X159606139Y-50070546D01*
X159606139Y-50070546D02*
X159510901Y-50118165D01*
X184579449Y-49832451D02*
X184579449Y-50546736D01*
X184579449Y-50546736D02*
X184531830Y-50689593D01*
X184531830Y-50689593D02*
X184436592Y-50784832D01*
X184436592Y-50784832D02*
X184293735Y-50832451D01*
X184293735Y-50832451D02*
X184198497Y-50832451D01*
X185055640Y-50832451D02*
X185055640Y-49832451D01*
X185055640Y-49832451D02*
X185436592Y-49832451D01*
X185436592Y-49832451D02*
X185531830Y-49880070D01*
X185531830Y-49880070D02*
X185579449Y-49927689D01*
X185579449Y-49927689D02*
X185627068Y-50022927D01*
X185627068Y-50022927D02*
X185627068Y-50165784D01*
X185627068Y-50165784D02*
X185579449Y-50261022D01*
X185579449Y-50261022D02*
X185531830Y-50308641D01*
X185531830Y-50308641D02*
X185436592Y-50356260D01*
X185436592Y-50356260D02*
X185055640Y-50356260D01*
X186008021Y-49927689D02*
X186055640Y-49880070D01*
X186055640Y-49880070D02*
X186150878Y-49832451D01*
X186150878Y-49832451D02*
X186388973Y-49832451D01*
X186388973Y-49832451D02*
X186484211Y-49880070D01*
X186484211Y-49880070D02*
X186531830Y-49927689D01*
X186531830Y-49927689D02*
X186579449Y-50022927D01*
X186579449Y-50022927D02*
X186579449Y-50118165D01*
X186579449Y-50118165D02*
X186531830Y-50261022D01*
X186531830Y-50261022D02*
X185960402Y-50832451D01*
X185960402Y-50832451D02*
X186579449Y-50832451D01*
X134666666Y-103954819D02*
X134666666Y-104669104D01*
X134666666Y-104669104D02*
X134619047Y-104811961D01*
X134619047Y-104811961D02*
X134523809Y-104907200D01*
X134523809Y-104907200D02*
X134380952Y-104954819D01*
X134380952Y-104954819D02*
X134285714Y-104954819D01*
X135095238Y-104050057D02*
X135142857Y-104002438D01*
X135142857Y-104002438D02*
X135238095Y-103954819D01*
X135238095Y-103954819D02*
X135476190Y-103954819D01*
X135476190Y-103954819D02*
X135571428Y-104002438D01*
X135571428Y-104002438D02*
X135619047Y-104050057D01*
X135619047Y-104050057D02*
X135666666Y-104145295D01*
X135666666Y-104145295D02*
X135666666Y-104240533D01*
X135666666Y-104240533D02*
X135619047Y-104383390D01*
X135619047Y-104383390D02*
X135047619Y-104954819D01*
X135047619Y-104954819D02*
X135666666Y-104954819D01*
X190150437Y-89093820D02*
X190150437Y-89808105D01*
X190150437Y-89808105D02*
X190102818Y-89950962D01*
X190102818Y-89950962D02*
X190007580Y-90046201D01*
X190007580Y-90046201D02*
X189864723Y-90093820D01*
X189864723Y-90093820D02*
X189769485Y-90093820D01*
X191055199Y-89427153D02*
X191055199Y-90093820D01*
X190817104Y-89046201D02*
X190579009Y-89760486D01*
X190579009Y-89760486D02*
X191198056Y-89760486D01*
X145732339Y-77798354D02*
X146446624Y-77798354D01*
X146446624Y-77798354D02*
X146589481Y-77845973D01*
X146589481Y-77845973D02*
X146684720Y-77941211D01*
X146684720Y-77941211D02*
X146732339Y-78084068D01*
X146732339Y-78084068D02*
X146732339Y-78179306D01*
X146732339Y-76798354D02*
X146732339Y-77369782D01*
X146732339Y-77084068D02*
X145732339Y-77084068D01*
X145732339Y-77084068D02*
X145875196Y-77179306D01*
X145875196Y-77179306D02*
X145970434Y-77274544D01*
X145970434Y-77274544D02*
X146018053Y-77369782D01*
D15*
%TO.C,G\u002A\u002A\u002A*%
G36*
X176807881Y-120927703D02*
G01*
X176807881Y-121303235D01*
X177163345Y-121300229D01*
X177518808Y-121297223D01*
X177521808Y-120924697D01*
X177524807Y-120552171D01*
X177854521Y-120552171D01*
X178184236Y-120552171D01*
X178184236Y-121621406D01*
X178184236Y-122690640D01*
X177854366Y-122690640D01*
X177524496Y-122690640D01*
X177524496Y-122258396D01*
X177524496Y-121826153D01*
X177166189Y-121826153D01*
X176807881Y-121826153D01*
X176807881Y-122258396D01*
X176807881Y-122690640D01*
X176472324Y-122690640D01*
X176136766Y-122690640D01*
X176136766Y-121621406D01*
X176136766Y-120552171D01*
X176472324Y-120552171D01*
X176807881Y-120552171D01*
X176807881Y-120927703D01*
G37*
G36*
X182207918Y-120554835D02*
G01*
X182523404Y-120557859D01*
X182916001Y-121135327D01*
X183308598Y-121712795D01*
X183311545Y-121132483D01*
X183314492Y-120552171D01*
X183627197Y-120552171D01*
X183939901Y-120552171D01*
X183939901Y-121621406D01*
X183939901Y-122690640D01*
X183629751Y-122690640D01*
X183319602Y-122690640D01*
X182927564Y-122115253D01*
X182857769Y-122012935D01*
X182791668Y-121916261D01*
X182730388Y-121826863D01*
X182675052Y-121746371D01*
X182626787Y-121676417D01*
X182586719Y-121618632D01*
X182555972Y-121574645D01*
X182535672Y-121546090D01*
X182526945Y-121534596D01*
X182526786Y-121534465D01*
X182525094Y-121544417D01*
X182523511Y-121575014D01*
X182522067Y-121624150D01*
X182520794Y-121689721D01*
X182519726Y-121769622D01*
X182518894Y-121861749D01*
X182518329Y-121963996D01*
X182518063Y-122074258D01*
X182518047Y-122109852D01*
X182518047Y-122690640D01*
X182212822Y-122690640D01*
X182131679Y-122690368D01*
X182058089Y-122689601D01*
X181995090Y-122688414D01*
X181945720Y-122686879D01*
X181913017Y-122685070D01*
X181900019Y-122683061D01*
X181900015Y-122683057D01*
X181898919Y-122670832D01*
X181897871Y-122637448D01*
X181896882Y-122584497D01*
X181895962Y-122513571D01*
X181895124Y-122426259D01*
X181894379Y-122324155D01*
X181893737Y-122208848D01*
X181893211Y-122081929D01*
X181892811Y-121944992D01*
X181892548Y-121799625D01*
X181892435Y-121647421D01*
X181892431Y-121613643D01*
X181892431Y-120551812D01*
X182207918Y-120554835D01*
G37*
G36*
X185415786Y-120555226D02*
G01*
X185557495Y-120556275D01*
X185678568Y-120557397D01*
X185781116Y-120558784D01*
X185867250Y-120560632D01*
X185939084Y-120563137D01*
X185998729Y-120566492D01*
X186048298Y-120570892D01*
X186089902Y-120576533D01*
X186125654Y-120583610D01*
X186157666Y-120592316D01*
X186188050Y-120602847D01*
X186218918Y-120615397D01*
X186252382Y-120630163D01*
X186258619Y-120632969D01*
X186373760Y-120696923D01*
X186474971Y-120778396D01*
X186561907Y-120876659D01*
X186634224Y-120990985D01*
X186691579Y-121120645D01*
X186733628Y-121264912D01*
X186760027Y-121423057D01*
X186770431Y-121594352D01*
X186768455Y-121712404D01*
X186756557Y-121864090D01*
X186734784Y-121997557D01*
X186702054Y-122115567D01*
X186657284Y-122220882D01*
X186599394Y-122316265D01*
X186527301Y-122404477D01*
X186478025Y-122453941D01*
X186396168Y-122523507D01*
X186315212Y-122575698D01*
X186228273Y-122614513D01*
X186169287Y-122633353D01*
X186122383Y-122645997D01*
X186077532Y-122656651D01*
X186032299Y-122665483D01*
X185984252Y-122672659D01*
X185930958Y-122678345D01*
X185869983Y-122682711D01*
X185798893Y-122685922D01*
X185715257Y-122688145D01*
X185616639Y-122689549D01*
X185500608Y-122690299D01*
X185364729Y-122690564D01*
X185336162Y-122690573D01*
X184804388Y-122690640D01*
X184804388Y-122204568D01*
X185464129Y-122204568D01*
X185637595Y-122198478D01*
X185733128Y-122193508D01*
X185808196Y-122186073D01*
X185861834Y-122176274D01*
X185871831Y-122173452D01*
X185940643Y-122140476D01*
X185997507Y-122088276D01*
X186042261Y-122017089D01*
X186074742Y-121927150D01*
X186089343Y-121857850D01*
X186095733Y-121800425D01*
X186099495Y-121727868D01*
X186100693Y-121646920D01*
X186099395Y-121564326D01*
X186095665Y-121486827D01*
X186089569Y-121421167D01*
X186084791Y-121390193D01*
X186063332Y-121302072D01*
X186035316Y-121232007D01*
X185998703Y-121175758D01*
X185964822Y-121140484D01*
X185925487Y-121108315D01*
X185886411Y-121084339D01*
X185843108Y-121067254D01*
X185791093Y-121055761D01*
X185725878Y-121048559D01*
X185642977Y-121044348D01*
X185631907Y-121043990D01*
X185464129Y-121038810D01*
X185464129Y-121621689D01*
X185464129Y-122204568D01*
X184804388Y-122204568D01*
X184804388Y-121621689D01*
X184804388Y-121620773D01*
X184804388Y-120550906D01*
X185415786Y-120555226D01*
G37*
G36*
X182887729Y-117610156D02*
G01*
X183048447Y-117626861D01*
X183201877Y-117659236D01*
X183345405Y-117706277D01*
X183476417Y-117766980D01*
X183592301Y-117840340D01*
X183679513Y-117914399D01*
X183753067Y-117995351D01*
X183818702Y-118084695D01*
X183874689Y-118178757D01*
X183919303Y-118273864D01*
X183950816Y-118366343D01*
X183967500Y-118452521D01*
X183967784Y-118527451D01*
X183946293Y-118623451D01*
X183905680Y-118722289D01*
X183848369Y-118819496D01*
X183776782Y-118910600D01*
X183738741Y-118950187D01*
X183710295Y-118975939D01*
X183677956Y-119000748D01*
X183638191Y-119026819D01*
X183587466Y-119056359D01*
X183522246Y-119091573D01*
X183462158Y-119122795D01*
X183357895Y-119175906D01*
X183250849Y-119229538D01*
X183143340Y-119282596D01*
X183037691Y-119333984D01*
X182936222Y-119382608D01*
X182841253Y-119427374D01*
X182755106Y-119467186D01*
X182680101Y-119500951D01*
X182618560Y-119527572D01*
X182572804Y-119545956D01*
X182546484Y-119554693D01*
X182487965Y-119569004D01*
X182448583Y-119578203D01*
X182425454Y-119582885D01*
X182415694Y-119583647D01*
X182415697Y-119581712D01*
X182427678Y-119573659D01*
X182453867Y-119557600D01*
X182488767Y-119536900D01*
X182491363Y-119535382D01*
X182558590Y-119489732D01*
X182604428Y-119442548D01*
X182630209Y-119391187D01*
X182637268Y-119333003D01*
X182627107Y-119266028D01*
X182594828Y-119168478D01*
X182545114Y-119060740D01*
X182479400Y-118945333D01*
X182399120Y-118824780D01*
X182307441Y-118703761D01*
X182234850Y-118608986D01*
X182178208Y-118524306D01*
X182135557Y-118445783D01*
X182104940Y-118369482D01*
X182084397Y-118291466D01*
X182075442Y-118237393D01*
X182071517Y-118150252D01*
X182108721Y-118150252D01*
X182116972Y-118254567D01*
X182142106Y-118354984D01*
X182185413Y-118454827D01*
X182248181Y-118557418D01*
X182287271Y-118610790D01*
X182374484Y-118726171D01*
X182447516Y-118827413D01*
X182507819Y-118916906D01*
X182556843Y-118997039D01*
X182596038Y-119070203D01*
X182626856Y-119138786D01*
X182650748Y-119205178D01*
X182653485Y-119213983D01*
X182671767Y-119289950D01*
X182675448Y-119353598D01*
X182664567Y-119410020D01*
X182655160Y-119433906D01*
X182642870Y-119462540D01*
X182640393Y-119475259D01*
X182647445Y-119476532D01*
X182652566Y-119474945D01*
X182666367Y-119468703D01*
X182698471Y-119453402D01*
X182746784Y-119430062D01*
X182809214Y-119399704D01*
X182883667Y-119363347D01*
X182968050Y-119322012D01*
X183060270Y-119276717D01*
X183153100Y-119231016D01*
X183274842Y-119170866D01*
X183378060Y-119119321D01*
X183464707Y-119075075D01*
X183536735Y-119036819D01*
X183596098Y-119003245D01*
X183644747Y-118973046D01*
X183684636Y-118944915D01*
X183717716Y-118917542D01*
X183745940Y-118889621D01*
X183771261Y-118859844D01*
X183795631Y-118826904D01*
X183821004Y-118789492D01*
X183827855Y-118779100D01*
X183882093Y-118682663D01*
X183914851Y-118589772D01*
X183926548Y-118497818D01*
X183917604Y-118404194D01*
X183899227Y-118336085D01*
X183841851Y-118198831D01*
X183766980Y-118075563D01*
X183675474Y-117966827D01*
X183568192Y-117873171D01*
X183445996Y-117795139D01*
X183309744Y-117733280D01*
X183160298Y-117688138D01*
X182998517Y-117660261D01*
X182825261Y-117650194D01*
X182819480Y-117650172D01*
X182674574Y-117656976D01*
X182544474Y-117677703D01*
X182429904Y-117711845D01*
X182331586Y-117758892D01*
X182250244Y-117818336D01*
X182186602Y-117889668D01*
X182141382Y-117972379D01*
X182115308Y-118065961D01*
X182108721Y-118150252D01*
X182071517Y-118150252D01*
X182070388Y-118125175D01*
X182085572Y-118022075D01*
X182120103Y-117928781D01*
X182173088Y-117845983D01*
X182243635Y-117774368D01*
X182330852Y-117714627D01*
X182433847Y-117667448D01*
X182551727Y-117633520D01*
X182683601Y-117613531D01*
X182828576Y-117608172D01*
X182887729Y-117610156D01*
G37*
G36*
X182168462Y-118632817D02*
G01*
X182188065Y-118642056D01*
X182202523Y-118652471D01*
X182222356Y-118672760D01*
X182251532Y-118708644D01*
X182287434Y-118756361D01*
X182327446Y-118812152D01*
X182368951Y-118872259D01*
X182409332Y-118932921D01*
X182445975Y-118990380D01*
X182476261Y-119040876D01*
X182489594Y-119064944D01*
X182519657Y-119127981D01*
X182546377Y-119195842D01*
X182567728Y-119262274D01*
X182581685Y-119321025D01*
X182586254Y-119363273D01*
X182585506Y-119383301D01*
X182582280Y-119401637D01*
X182575019Y-119419390D01*
X182562167Y-119437669D01*
X182542169Y-119457582D01*
X182513470Y-119480237D01*
X182474514Y-119506743D01*
X182423744Y-119538208D01*
X182359606Y-119575742D01*
X182280544Y-119620452D01*
X182185002Y-119673447D01*
X182071425Y-119735836D01*
X182036812Y-119754793D01*
X181931709Y-119812236D01*
X181844810Y-119859471D01*
X181774440Y-119897349D01*
X181718925Y-119926723D01*
X181676589Y-119948445D01*
X181645757Y-119963367D01*
X181624755Y-119972342D01*
X181611906Y-119976221D01*
X181605536Y-119975857D01*
X181604455Y-119974765D01*
X181600893Y-119959855D01*
X181596288Y-119929159D01*
X181591978Y-119892431D01*
X181574472Y-119808713D01*
X181538888Y-119730353D01*
X181483218Y-119653133D01*
X181471777Y-119640001D01*
X181415330Y-119585350D01*
X181345768Y-119530934D01*
X181271898Y-119483081D01*
X181207855Y-119450356D01*
X181169727Y-119429133D01*
X181151674Y-119403911D01*
X181151518Y-119382843D01*
X181187241Y-119382843D01*
X181196728Y-119394577D01*
X181221901Y-119412707D01*
X181257901Y-119433859D01*
X181269708Y-119440095D01*
X181363895Y-119496450D01*
X181447167Y-119561810D01*
X181517430Y-119633570D01*
X181572589Y-119709125D01*
X181610549Y-119785871D01*
X181629213Y-119861201D01*
X181630810Y-119889040D01*
X181630810Y-119927018D01*
X181679153Y-119902528D01*
X181702424Y-119890353D01*
X181742308Y-119869062D01*
X181795461Y-119840458D01*
X181858537Y-119806346D01*
X181928192Y-119768528D01*
X181983430Y-119738441D01*
X182102892Y-119673263D01*
X182203936Y-119617951D01*
X182288106Y-119571452D01*
X182356942Y-119532714D01*
X182411986Y-119500685D01*
X182454780Y-119474311D01*
X182486864Y-119452540D01*
X182509780Y-119434319D01*
X182525070Y-119418595D01*
X182534275Y-119404317D01*
X182538938Y-119390431D01*
X182540598Y-119375884D01*
X182540798Y-119359624D01*
X182540797Y-119357822D01*
X182534027Y-119296943D01*
X182515189Y-119224748D01*
X182486496Y-119147634D01*
X182450156Y-119071997D01*
X182429873Y-119036833D01*
X182391629Y-118976457D01*
X182350051Y-118913844D01*
X182307570Y-118852354D01*
X182266619Y-118795346D01*
X182229631Y-118746179D01*
X182199038Y-118708213D01*
X182177273Y-118684808D01*
X182171786Y-118680406D01*
X182159853Y-118673125D01*
X182148523Y-118669442D01*
X182135164Y-118670816D01*
X182117138Y-118678704D01*
X182091812Y-118694566D01*
X182056550Y-118719861D01*
X182008717Y-118756046D01*
X181945677Y-118804583D01*
X181941105Y-118808112D01*
X181888480Y-118847579D01*
X181821222Y-118896256D01*
X181743805Y-118951005D01*
X181660705Y-119008689D01*
X181576394Y-119066171D01*
X181503009Y-119115252D01*
X181415408Y-119173629D01*
X181345254Y-119221509D01*
X181290705Y-119260455D01*
X181249919Y-119292028D01*
X181221052Y-119317791D01*
X181202260Y-119339306D01*
X181191701Y-119358134D01*
X181187532Y-119375837D01*
X181187241Y-119382843D01*
X181151518Y-119382843D01*
X181151419Y-119369447D01*
X181159753Y-119339511D01*
X181166100Y-119322575D01*
X181174075Y-119307149D01*
X181185750Y-119291573D01*
X181203191Y-119274192D01*
X181228469Y-119253344D01*
X181263652Y-119227374D01*
X181310809Y-119194621D01*
X181372009Y-119153428D01*
X181449321Y-119102136D01*
X181486751Y-119077410D01*
X181567856Y-119023078D01*
X181655427Y-118963064D01*
X181743639Y-118901453D01*
X181826666Y-118842329D01*
X181898681Y-118789777D01*
X181922943Y-118771628D01*
X181992550Y-118719631D01*
X182047092Y-118680709D01*
X182089262Y-118653714D01*
X182121753Y-118637498D01*
X182147255Y-118630915D01*
X182168462Y-118632817D01*
G37*
G36*
X186884754Y-116090929D02*
G01*
X186885983Y-116097467D01*
X186875852Y-116106298D01*
X186846529Y-116123535D01*
X186799618Y-116148362D01*
X186736724Y-116179965D01*
X186659451Y-116217528D01*
X186569403Y-116260235D01*
X186524832Y-116281058D01*
X186417611Y-116330964D01*
X186300611Y-116385483D01*
X186175878Y-116443655D01*
X186045461Y-116504523D01*
X185911408Y-116567129D01*
X185775767Y-116630514D01*
X185640585Y-116693719D01*
X185507911Y-116755787D01*
X185379794Y-116815759D01*
X185258280Y-116872676D01*
X185145417Y-116925581D01*
X185043255Y-116973515D01*
X184953841Y-117015520D01*
X184879222Y-117050636D01*
X184821448Y-117077907D01*
X184787326Y-117094101D01*
X184729547Y-117122003D01*
X184690001Y-117142223D01*
X184666178Y-117156422D01*
X184655570Y-117166261D01*
X184655666Y-117173399D01*
X184660888Y-117177759D01*
X184777695Y-117253616D01*
X184875463Y-117326969D01*
X184957220Y-117400846D01*
X185025993Y-117478276D01*
X185084811Y-117562289D01*
X185134541Y-117651589D01*
X185193369Y-117792160D01*
X185229519Y-117933871D01*
X185243016Y-118076401D01*
X185233885Y-118219429D01*
X185202151Y-118362634D01*
X185147839Y-118505695D01*
X185070973Y-118648290D01*
X185055533Y-118672665D01*
X185009393Y-118743942D01*
X185040545Y-118736610D01*
X185096000Y-118721527D01*
X185168421Y-118698671D01*
X185253931Y-118669384D01*
X185348652Y-118635005D01*
X185448704Y-118596876D01*
X185477756Y-118585469D01*
X185521786Y-118568726D01*
X185581304Y-118547091D01*
X185654099Y-118521297D01*
X185737962Y-118492078D01*
X185830684Y-118460169D01*
X185930057Y-118426303D01*
X186033871Y-118391214D01*
X186139916Y-118355637D01*
X186245983Y-118320304D01*
X186349864Y-118285951D01*
X186449349Y-118253310D01*
X186542228Y-118223116D01*
X186626294Y-118196104D01*
X186699336Y-118173006D01*
X186759145Y-118154557D01*
X186803512Y-118141490D01*
X186830227Y-118134541D01*
X186837348Y-118133781D01*
X186840299Y-118140239D01*
X186836075Y-118147915D01*
X186823189Y-118157386D01*
X186800152Y-118169226D01*
X186765475Y-118184012D01*
X186717670Y-118202320D01*
X186655249Y-118224727D01*
X186576722Y-118251807D01*
X186480602Y-118284136D01*
X186365399Y-118322292D01*
X186264579Y-118355406D01*
X186148961Y-118393524D01*
X186034422Y-118431738D01*
X185923848Y-118469053D01*
X185820127Y-118504477D01*
X185726147Y-118537016D01*
X185644794Y-118565676D01*
X185578956Y-118589465D01*
X185531520Y-118607389D01*
X185527018Y-118609172D01*
X185423270Y-118649507D01*
X185324379Y-118685959D01*
X185232404Y-118717916D01*
X185149405Y-118744769D01*
X185077440Y-118765908D01*
X185018568Y-118780722D01*
X184974850Y-118788603D01*
X184948345Y-118788940D01*
X184940886Y-118782794D01*
X184946868Y-118769978D01*
X184962970Y-118742938D01*
X184986424Y-118706197D01*
X185003496Y-118680452D01*
X185082934Y-118546285D01*
X185143948Y-118408537D01*
X185168701Y-118333314D01*
X185185358Y-118257403D01*
X185196070Y-118170640D01*
X185200514Y-118080720D01*
X185198368Y-117995338D01*
X185189309Y-117922188D01*
X185186494Y-117909084D01*
X185140648Y-117762493D01*
X185074992Y-117626677D01*
X184990227Y-117502565D01*
X184887052Y-117391087D01*
X184766167Y-117293171D01*
X184682401Y-117239548D01*
X184636952Y-117212374D01*
X184599752Y-117188876D01*
X184574656Y-117171575D01*
X184565517Y-117163016D01*
X184565741Y-117161278D01*
X184567295Y-117159126D01*
X184571496Y-117155925D01*
X184579667Y-117151044D01*
X184593125Y-117143849D01*
X184613191Y-117133706D01*
X184641185Y-117119983D01*
X184678427Y-117102045D01*
X184726236Y-117079260D01*
X184785932Y-117050994D01*
X184858835Y-117016614D01*
X184946265Y-116975486D01*
X185049542Y-116926978D01*
X185169984Y-116870455D01*
X185308913Y-116805285D01*
X185401567Y-116761828D01*
X185628789Y-116655328D01*
X185837646Y-116557585D01*
X186027940Y-116468689D01*
X186199473Y-116388732D01*
X186352047Y-116317806D01*
X186485464Y-116256003D01*
X186599527Y-116203413D01*
X186694037Y-116160127D01*
X186768798Y-116126239D01*
X186823610Y-116101838D01*
X186858276Y-116087017D01*
X186872599Y-116081867D01*
X186872709Y-116081862D01*
X186884754Y-116090929D01*
G37*
G36*
X181019389Y-119463669D02*
G01*
X181078039Y-119468177D01*
X181129530Y-119475807D01*
X181154356Y-119481905D01*
X181207861Y-119505345D01*
X181267461Y-119545220D01*
X181335114Y-119602938D01*
X181371573Y-119637937D01*
X181437086Y-119708185D01*
X181488926Y-119775111D01*
X181525274Y-119836020D01*
X181544307Y-119888218D01*
X181545627Y-119895601D01*
X181546160Y-119957953D01*
X181532598Y-120026348D01*
X181507100Y-120090910D01*
X181500168Y-120103509D01*
X181486525Y-120120797D01*
X181458377Y-120151763D01*
X181417724Y-120194426D01*
X181366563Y-120246806D01*
X181306893Y-120306922D01*
X181240714Y-120372792D01*
X181170022Y-120442438D01*
X181096817Y-120513876D01*
X181023097Y-120585128D01*
X180950862Y-120654211D01*
X180882109Y-120719146D01*
X180830770Y-120766948D01*
X180764517Y-120828163D01*
X180696528Y-120821998D01*
X180610273Y-120802845D01*
X180525017Y-120761326D01*
X180441544Y-120697825D01*
X180439933Y-120696365D01*
X180410512Y-120670246D01*
X180389856Y-120653129D01*
X180381448Y-120647858D01*
X180381742Y-120648858D01*
X180388625Y-120660218D01*
X180406413Y-120689415D01*
X180434144Y-120734874D01*
X180470857Y-120795020D01*
X180515590Y-120868280D01*
X180567383Y-120953079D01*
X180625274Y-121047843D01*
X180688302Y-121150999D01*
X180755505Y-121260972D01*
X180810509Y-121350968D01*
X180880171Y-121465064D01*
X180946246Y-121573521D01*
X181007790Y-121674775D01*
X181063859Y-121767260D01*
X181113508Y-121849411D01*
X181155794Y-121919665D01*
X181189771Y-121976457D01*
X181214495Y-122018220D01*
X181229023Y-122043392D01*
X181232669Y-122050520D01*
X181222043Y-122054063D01*
X181192390Y-122061161D01*
X181147039Y-122071151D01*
X181089318Y-122083366D01*
X181022555Y-122097143D01*
X180950079Y-122111816D01*
X180875217Y-122126721D01*
X180801298Y-122141191D01*
X180731650Y-122154563D01*
X180669602Y-122166171D01*
X180618481Y-122175351D01*
X180581616Y-122181437D01*
X180568228Y-122183270D01*
X180559690Y-122174124D01*
X180542786Y-122148080D01*
X180519515Y-122108490D01*
X180491872Y-122058711D01*
X180472380Y-122022239D01*
X180437251Y-121956963D01*
X180410381Y-121910522D01*
X180390555Y-121881065D01*
X180376561Y-121866743D01*
X180369042Y-121864853D01*
X180353751Y-121868095D01*
X180318973Y-121874970D01*
X180267585Y-121884926D01*
X180202462Y-121897412D01*
X180126477Y-121911874D01*
X180042507Y-121927759D01*
X180004209Y-121934974D01*
X179918617Y-121951107D01*
X179840606Y-121965859D01*
X179772879Y-121978717D01*
X179718137Y-121989166D01*
X179679082Y-121996690D01*
X179658416Y-122000776D01*
X179655824Y-122001361D01*
X179654248Y-122012434D01*
X179650830Y-122042324D01*
X179645984Y-122087210D01*
X179640127Y-122143270D01*
X179636024Y-122183407D01*
X179629641Y-122244783D01*
X179623849Y-122297582D01*
X179619095Y-122337935D01*
X179615828Y-122361978D01*
X179614727Y-122367019D01*
X179603198Y-122369824D01*
X179572528Y-122376210D01*
X179525927Y-122385538D01*
X179466610Y-122397169D01*
X179397787Y-122410463D01*
X179361531Y-122417397D01*
X179283490Y-122432282D01*
X179208013Y-122446687D01*
X179139691Y-122459736D01*
X179083119Y-122470552D01*
X179042888Y-122478257D01*
X179034505Y-122479866D01*
X178993911Y-122487143D01*
X178970759Y-122489262D01*
X178960287Y-122486012D01*
X178957730Y-122477179D01*
X178957725Y-122476441D01*
X178959612Y-122462462D01*
X178965067Y-122427905D01*
X178973780Y-122374608D01*
X178985443Y-122304410D01*
X178999746Y-122219150D01*
X179016379Y-122120667D01*
X179035034Y-122010799D01*
X179055401Y-121891384D01*
X179077171Y-121764263D01*
X179094223Y-121665027D01*
X179116821Y-121533442D01*
X179119665Y-121516818D01*
X179706212Y-121516818D01*
X179789806Y-121500778D01*
X179836969Y-121491817D01*
X179897474Y-121480447D01*
X179962287Y-121468362D01*
X180004209Y-121460599D01*
X180056933Y-121450488D01*
X180101844Y-121441163D01*
X180133958Y-121433705D01*
X180147949Y-121429404D01*
X180146487Y-121417377D01*
X180134034Y-121386229D01*
X180110891Y-121336587D01*
X180077364Y-121269075D01*
X180033756Y-121184321D01*
X179980369Y-121082952D01*
X179977537Y-121077626D01*
X179934494Y-120997091D01*
X179894890Y-120923755D01*
X179859958Y-120859839D01*
X179830928Y-120807564D01*
X179809032Y-120769151D01*
X179795501Y-120746820D01*
X179791511Y-120742068D01*
X179789703Y-120755300D01*
X179785893Y-120788279D01*
X179780394Y-120838122D01*
X179773518Y-120901943D01*
X179765580Y-120976859D01*
X179756890Y-121059985D01*
X179754112Y-121086789D01*
X179745013Y-121174191D01*
X179736352Y-121256362D01*
X179728487Y-121329973D01*
X179721777Y-121391695D01*
X179716583Y-121438199D01*
X179713262Y-121466158D01*
X179712806Y-121469582D01*
X179706212Y-121516818D01*
X179119665Y-121516818D01*
X179138234Y-121408269D01*
X179158153Y-121291335D01*
X179176270Y-121184468D01*
X179192279Y-121089498D01*
X179205872Y-121008252D01*
X179216741Y-120942559D01*
X179224579Y-120894247D01*
X179229080Y-120865144D01*
X179230079Y-120857013D01*
X179226611Y-120856575D01*
X179218753Y-120873614D01*
X179215860Y-120881631D01*
X179193767Y-120918586D01*
X179153989Y-120957279D01*
X179145712Y-120963722D01*
X179100695Y-120992903D01*
X179048554Y-121019355D01*
X178995281Y-121040773D01*
X178946870Y-121054850D01*
X178909311Y-121059282D01*
X178900182Y-121058205D01*
X178868702Y-121043092D01*
X178831641Y-121012923D01*
X178794178Y-120972683D01*
X178761495Y-120927359D01*
X178757677Y-120921029D01*
X178748909Y-120901537D01*
X178734125Y-120863364D01*
X178714171Y-120809022D01*
X178689894Y-120741028D01*
X178662142Y-120661895D01*
X178631760Y-120574137D01*
X178599596Y-120480268D01*
X178566497Y-120382804D01*
X178533308Y-120284257D01*
X178500879Y-120187143D01*
X178470054Y-120093976D01*
X178441681Y-120007270D01*
X178416607Y-119929539D01*
X178395679Y-119863297D01*
X178379743Y-119811060D01*
X178371862Y-119783178D01*
X178414820Y-119783178D01*
X178417176Y-119794792D01*
X178426166Y-119825904D01*
X178441130Y-119874467D01*
X178461413Y-119938428D01*
X178486356Y-120015738D01*
X178515301Y-120104348D01*
X178547589Y-120202207D01*
X178582565Y-120307264D01*
X178592885Y-120338094D01*
X178636229Y-120467085D01*
X178673288Y-120576337D01*
X178704845Y-120667738D01*
X178731684Y-120743173D01*
X178754590Y-120804528D01*
X178774346Y-120853688D01*
X178791735Y-120892539D01*
X178807542Y-120922967D01*
X178822551Y-120946858D01*
X178837545Y-120966098D01*
X178853309Y-120982572D01*
X178865344Y-120993577D01*
X178897009Y-121011423D01*
X178936731Y-121014527D01*
X178987287Y-121002595D01*
X179051453Y-120975336D01*
X179055046Y-120973576D01*
X179096904Y-120949847D01*
X179134595Y-120923150D01*
X179157529Y-120901832D01*
X179188115Y-120865482D01*
X179182306Y-120660484D01*
X179179027Y-120575947D01*
X179173750Y-120476796D01*
X179166920Y-120369193D01*
X179158984Y-120259296D01*
X179150389Y-120153266D01*
X179141581Y-120057262D01*
X179133006Y-119977444D01*
X179132478Y-119973049D01*
X179115378Y-119919708D01*
X179079767Y-119878052D01*
X179027983Y-119850664D01*
X179019390Y-119848064D01*
X178993745Y-119843138D01*
X178950007Y-119837088D01*
X178892769Y-119830450D01*
X178826626Y-119823762D01*
X178764353Y-119818233D01*
X178692112Y-119811902D01*
X178622749Y-119805202D01*
X178561443Y-119798678D01*
X178513371Y-119792878D01*
X178487332Y-119789021D01*
X178450903Y-119783665D01*
X178424363Y-119781779D01*
X178414820Y-119783178D01*
X178371862Y-119783178D01*
X178369647Y-119775340D01*
X178366233Y-119758843D01*
X178367178Y-119745758D01*
X178372507Y-119737780D01*
X178385964Y-119734656D01*
X178411292Y-119736131D01*
X178452235Y-119741950D01*
X178499883Y-119749751D01*
X178548821Y-119756759D01*
X178612911Y-119764312D01*
X178684595Y-119771598D01*
X178756316Y-119777804D01*
X178771893Y-119778984D01*
X178875820Y-119787714D01*
X178959396Y-119797867D01*
X179025017Y-119810700D01*
X179075083Y-119827471D01*
X179111991Y-119849435D01*
X179138138Y-119877851D01*
X179155922Y-119913975D01*
X179167740Y-119959064D01*
X179172707Y-119989117D01*
X179177726Y-120030526D01*
X179183792Y-120090614D01*
X179190588Y-120165349D01*
X179197791Y-120250703D01*
X179205084Y-120342645D01*
X179212145Y-120437145D01*
X179218655Y-120530172D01*
X179224294Y-120617698D01*
X179228671Y-120694319D01*
X179236408Y-120842153D01*
X179275564Y-120612306D01*
X180358663Y-120612306D01*
X180361430Y-120618663D01*
X180372883Y-120630874D01*
X180379468Y-120628369D01*
X180379579Y-120626779D01*
X180371499Y-120617158D01*
X180366446Y-120613647D01*
X180358663Y-120612306D01*
X179275564Y-120612306D01*
X179287595Y-120541685D01*
X179338782Y-120241217D01*
X179685293Y-120174598D01*
X179771392Y-120158267D01*
X179850486Y-120143691D01*
X179919763Y-120131355D01*
X179976413Y-120121742D01*
X180017623Y-120115338D01*
X180040584Y-120112627D01*
X180044208Y-120112738D01*
X180053372Y-120123433D01*
X180072424Y-120150896D01*
X180099579Y-120192370D01*
X180133051Y-120245097D01*
X180171056Y-120306317D01*
X180197158Y-120349053D01*
X180236971Y-120414494D01*
X180273058Y-120473521D01*
X180303686Y-120523323D01*
X180327122Y-120561088D01*
X180341632Y-120584005D01*
X180345440Y-120589588D01*
X180345893Y-120584314D01*
X180339996Y-120562144D01*
X180328986Y-120527628D01*
X180326859Y-120521339D01*
X180315581Y-120484841D01*
X180307983Y-120449684D01*
X180303377Y-120409887D01*
X180301118Y-120360318D01*
X180338402Y-120360318D01*
X180351624Y-120463095D01*
X180379922Y-120550815D01*
X180423936Y-120624998D01*
X180484308Y-120687160D01*
X180546311Y-120730136D01*
X180599868Y-120756810D01*
X180654035Y-120775755D01*
X180702023Y-120784998D01*
X180731716Y-120784014D01*
X180756157Y-120773136D01*
X180787690Y-120751948D01*
X180805652Y-120737204D01*
X180824394Y-120719900D01*
X180857265Y-120688837D01*
X180902080Y-120646108D01*
X180956653Y-120593809D01*
X181018798Y-120534033D01*
X181086329Y-120468875D01*
X181152035Y-120405299D01*
X181238032Y-120321658D01*
X181308903Y-120251708D01*
X181366097Y-120193555D01*
X181411063Y-120145306D01*
X181445250Y-120105070D01*
X181470105Y-120070951D01*
X181487078Y-120041058D01*
X181497617Y-120013498D01*
X181503170Y-119986377D01*
X181505187Y-119957802D01*
X181505326Y-119943618D01*
X181498669Y-119886640D01*
X181477569Y-119830865D01*
X181439905Y-119771691D01*
X181407405Y-119731399D01*
X181332586Y-119650718D01*
X181262857Y-119589571D01*
X181195603Y-119546085D01*
X181128207Y-119518391D01*
X181099396Y-119511053D01*
X181033106Y-119498986D01*
X180977937Y-119494871D01*
X180928984Y-119500124D01*
X180881341Y-119516162D01*
X180830102Y-119544400D01*
X180770363Y-119586254D01*
X180729115Y-119617930D01*
X180625486Y-119703123D01*
X180541041Y-119782356D01*
X180473997Y-119858485D01*
X180422565Y-119934367D01*
X180384961Y-120012859D01*
X180359398Y-120096817D01*
X180344091Y-120189099D01*
X180339614Y-120240968D01*
X180338402Y-120360318D01*
X180301118Y-120360318D01*
X180301079Y-120359468D01*
X180300403Y-120292446D01*
X180300401Y-120290550D01*
X180300765Y-120225555D01*
X180302540Y-120177045D01*
X180306545Y-120138764D01*
X180313595Y-120104457D01*
X180324509Y-120067866D01*
X180332597Y-120044092D01*
X180366552Y-119957689D01*
X180404384Y-119886132D01*
X180450773Y-119821529D01*
X180492531Y-119774437D01*
X180531207Y-119736267D01*
X180579566Y-119692480D01*
X180633963Y-119645965D01*
X180690754Y-119599615D01*
X180746293Y-119556320D01*
X180796937Y-119518971D01*
X180839041Y-119490460D01*
X180868961Y-119473677D01*
X180874279Y-119471597D01*
X180910130Y-119465108D01*
X180960960Y-119462555D01*
X181019389Y-119463669D01*
G37*
G36*
X181240259Y-116997244D02*
G01*
X181369189Y-117002868D01*
X181443159Y-117006668D01*
X181532678Y-117011120D01*
X181630566Y-117015876D01*
X181729645Y-117020587D01*
X181822736Y-117024906D01*
X181835557Y-117025490D01*
X181992577Y-117032677D01*
X182132755Y-117039229D01*
X182260268Y-117045370D01*
X182379290Y-117051328D01*
X182493999Y-117057326D01*
X182608568Y-117063592D01*
X182727175Y-117070350D01*
X182853995Y-117077827D01*
X182993204Y-117086248D01*
X183148978Y-117095838D01*
X183228974Y-117100806D01*
X183426507Y-117113114D01*
X183602624Y-117124136D01*
X183758616Y-117133980D01*
X183895774Y-117142756D01*
X184015389Y-117150571D01*
X184118753Y-117157533D01*
X184207155Y-117163752D01*
X184281888Y-117169334D01*
X184344243Y-117174389D01*
X184395510Y-117179024D01*
X184436980Y-117183349D01*
X184469944Y-117187470D01*
X184495694Y-117191498D01*
X184515521Y-117195539D01*
X184530715Y-117199702D01*
X184542568Y-117204095D01*
X184552370Y-117208827D01*
X184558567Y-117212319D01*
X184602939Y-117240329D01*
X184658512Y-117278333D01*
X184718998Y-117321773D01*
X184778110Y-117366094D01*
X184829561Y-117406739D01*
X184847212Y-117421480D01*
X184934021Y-117510165D01*
X185008421Y-117616619D01*
X185069239Y-117738830D01*
X185115304Y-117874786D01*
X185118526Y-117887008D01*
X185131434Y-117940450D01*
X185139426Y-117985083D01*
X185143289Y-118029140D01*
X185143814Y-118080854D01*
X185142296Y-118135020D01*
X185135814Y-118224631D01*
X185122142Y-118305303D01*
X185099361Y-118383768D01*
X185065556Y-118466758D01*
X185023635Y-118551815D01*
X184972692Y-118641984D01*
X184924915Y-118711034D01*
X184879342Y-118760216D01*
X184843847Y-118786088D01*
X184763027Y-118823184D01*
X184668861Y-118851675D01*
X184567969Y-118870599D01*
X184466973Y-118878993D01*
X184372497Y-118875898D01*
X184305272Y-118864301D01*
X184252790Y-118848592D01*
X184195746Y-118828214D01*
X184163087Y-118814797D01*
X184114527Y-118796165D01*
X184069498Y-118786937D01*
X184015440Y-118784615D01*
X184011604Y-118784640D01*
X183929747Y-118785353D01*
X183956982Y-118738870D01*
X183995475Y-118651117D01*
X184014856Y-118553641D01*
X184015461Y-118448521D01*
X183997628Y-118337836D01*
X183961692Y-118223667D01*
X183907990Y-118108093D01*
X183836857Y-117993194D01*
X183836276Y-117992364D01*
X183774630Y-117919252D01*
X183693214Y-117846205D01*
X183594913Y-117775393D01*
X183482610Y-117708988D01*
X183413014Y-117673739D01*
X183270712Y-117616840D01*
X183118442Y-117577672D01*
X182954509Y-117555929D01*
X182777221Y-117551305D01*
X182739856Y-117552413D01*
X182589606Y-117565738D01*
X182456236Y-117593360D01*
X182340028Y-117635024D01*
X182241262Y-117690474D01*
X182160220Y-117759456D01*
X182097184Y-117841713D01*
X182052434Y-117936991D01*
X182026252Y-118045033D01*
X182018918Y-118165586D01*
X182020522Y-118205550D01*
X182027343Y-118270679D01*
X182039723Y-118321805D01*
X182054908Y-118358304D01*
X182083350Y-118415775D01*
X182047609Y-118409457D01*
X181943807Y-118392350D01*
X181849335Y-118379821D01*
X181757180Y-118371304D01*
X181660332Y-118366233D01*
X181551777Y-118364042D01*
X181482937Y-118363863D01*
X181390431Y-118364437D01*
X181314167Y-118366030D01*
X181247642Y-118369104D01*
X181184357Y-118374118D01*
X181117809Y-118381534D01*
X181041497Y-118391812D01*
X180996663Y-118398312D01*
X180927439Y-118408288D01*
X180866540Y-118416654D01*
X180817293Y-118422986D01*
X180783026Y-118426863D01*
X180767064Y-118427861D01*
X180766323Y-118427599D01*
X180772610Y-118416425D01*
X180787865Y-118395599D01*
X180789073Y-118394057D01*
X180798403Y-118379894D01*
X180804797Y-118362445D01*
X180808793Y-118337404D01*
X180810928Y-118300462D01*
X180811742Y-118247311D01*
X180811822Y-118212053D01*
X180801546Y-118033479D01*
X180770650Y-117864280D01*
X180719031Y-117704003D01*
X180674070Y-117603900D01*
X180643929Y-117552334D01*
X180609620Y-117507009D01*
X180574871Y-117471895D01*
X180543409Y-117450963D01*
X180526621Y-117446842D01*
X180511523Y-117447925D01*
X180510515Y-117453656D01*
X180525079Y-117467757D01*
X180539883Y-117480114D01*
X180578653Y-117522779D01*
X180616725Y-117584292D01*
X180652996Y-117660754D01*
X180686360Y-117748268D01*
X180715713Y-117842934D01*
X180739951Y-117940855D01*
X180757969Y-118038133D01*
X180768663Y-118130868D01*
X180770929Y-118215163D01*
X180765515Y-118276574D01*
X180751166Y-118343892D01*
X180730832Y-118394520D01*
X180701382Y-118434337D01*
X180664896Y-118465497D01*
X180629414Y-118489770D01*
X180578384Y-118522589D01*
X180514745Y-118562231D01*
X180441433Y-118606970D01*
X180361388Y-118655081D01*
X180277548Y-118704840D01*
X180192852Y-118754523D01*
X180110236Y-118802404D01*
X180032640Y-118846758D01*
X179963002Y-118885862D01*
X179904260Y-118917989D01*
X179859352Y-118941416D01*
X179833587Y-118953475D01*
X179748161Y-118984648D01*
X179679438Y-119001202D01*
X179626802Y-119003268D01*
X179612620Y-119000735D01*
X179587510Y-118986033D01*
X179553843Y-118953988D01*
X179513490Y-118907477D01*
X179468322Y-118849377D01*
X179420209Y-118782564D01*
X179371022Y-118709915D01*
X179322632Y-118634307D01*
X179276910Y-118558616D01*
X179235725Y-118485718D01*
X179200949Y-118418491D01*
X179174453Y-118359810D01*
X179158107Y-118312554D01*
X179154677Y-118296540D01*
X179153957Y-118278654D01*
X179189294Y-118278654D01*
X179191077Y-118291469D01*
X179203373Y-118324969D01*
X179224360Y-118372765D01*
X179251397Y-118429428D01*
X179281846Y-118489527D01*
X179313065Y-118547633D01*
X179330694Y-118578638D01*
X179365492Y-118635185D01*
X179405644Y-118695388D01*
X179448826Y-118756279D01*
X179492709Y-118814891D01*
X179534969Y-118868256D01*
X179573280Y-118913405D01*
X179605314Y-118947370D01*
X179628746Y-118967185D01*
X179638260Y-118971070D01*
X179650679Y-118968442D01*
X179678763Y-118961587D01*
X179712509Y-118952996D01*
X179759717Y-118938466D01*
X179814832Y-118918143D01*
X179863115Y-118897672D01*
X179892331Y-118882759D01*
X179937870Y-118857720D01*
X179996685Y-118824361D01*
X180065730Y-118784486D01*
X180141959Y-118739902D01*
X180222324Y-118692415D01*
X180303780Y-118643829D01*
X180383280Y-118595950D01*
X180457776Y-118550583D01*
X180524224Y-118509535D01*
X180579576Y-118474611D01*
X180607075Y-118456765D01*
X180656858Y-118419612D01*
X180690894Y-118381654D01*
X180712413Y-118336971D01*
X180724641Y-118279645D01*
X180729128Y-118232935D01*
X180729409Y-118158266D01*
X180721591Y-118073997D01*
X180706793Y-117983876D01*
X180686131Y-117891651D01*
X180660725Y-117801069D01*
X180631691Y-117715878D01*
X180600150Y-117639824D01*
X180567217Y-117576657D01*
X180534012Y-117530122D01*
X180513832Y-117511307D01*
X180493479Y-117498051D01*
X180476113Y-117494703D01*
X180452198Y-117500805D01*
X180434206Y-117507485D01*
X180400057Y-117522784D01*
X180349499Y-117548529D01*
X180284873Y-117583322D01*
X180208524Y-117625765D01*
X180122796Y-117674460D01*
X180030032Y-117728009D01*
X179932576Y-117785013D01*
X179832771Y-117844075D01*
X179732961Y-117903797D01*
X179635489Y-117962779D01*
X179542700Y-118019624D01*
X179456937Y-118072935D01*
X179380543Y-118121312D01*
X179315862Y-118163358D01*
X179265238Y-118197675D01*
X179231014Y-118222864D01*
X179221437Y-118230987D01*
X179197157Y-118257379D01*
X179189294Y-118278654D01*
X179153957Y-118278654D01*
X179153657Y-118271192D01*
X179160466Y-118247344D01*
X179177324Y-118222635D01*
X179206453Y-118194709D01*
X179250075Y-118161205D01*
X179310410Y-118119765D01*
X179338782Y-118101053D01*
X179382790Y-118072920D01*
X179443178Y-118035290D01*
X179516674Y-117990127D01*
X179600004Y-117939394D01*
X179689896Y-117885054D01*
X179783076Y-117829070D01*
X179876272Y-117773404D01*
X179966211Y-117720020D01*
X180049621Y-117670881D01*
X180123227Y-117627949D01*
X180183758Y-117593188D01*
X180212184Y-117577212D01*
X180312097Y-117521748D01*
X180304503Y-117362016D01*
X180300989Y-117302444D01*
X180296613Y-117249786D01*
X180291867Y-117208850D01*
X180287245Y-117184445D01*
X180285995Y-117181141D01*
X180278098Y-117170551D01*
X180264710Y-117165081D01*
X180240549Y-117164004D01*
X180200331Y-117166593D01*
X180187988Y-117167654D01*
X180112001Y-117175758D01*
X180018950Y-117187965D01*
X179913058Y-117203535D01*
X179798550Y-117221726D01*
X179679651Y-117241799D01*
X179560583Y-117263013D01*
X179445572Y-117284628D01*
X179338841Y-117305903D01*
X179244615Y-117326097D01*
X179167118Y-117344471D01*
X179142750Y-117350872D01*
X179032368Y-117381852D01*
X178925022Y-117413690D01*
X178823033Y-117445570D01*
X178728720Y-117476675D01*
X178644403Y-117506188D01*
X178572402Y-117533293D01*
X178515037Y-117557174D01*
X178474629Y-117577013D01*
X178453496Y-117591994D01*
X178451975Y-117594018D01*
X178455725Y-117606792D01*
X178470687Y-117634379D01*
X178494706Y-117673189D01*
X178525622Y-117719631D01*
X178539325Y-117739382D01*
X178579477Y-117800102D01*
X178625821Y-117876035D01*
X178675153Y-117961676D01*
X178724266Y-118051519D01*
X178752187Y-118104941D01*
X178787376Y-118172236D01*
X178820514Y-118233180D01*
X178849804Y-118284657D01*
X178873448Y-118323548D01*
X178889649Y-118346737D01*
X178894373Y-118351454D01*
X178924417Y-118366240D01*
X178948067Y-118374071D01*
X178964724Y-118376278D01*
X178977994Y-118370606D01*
X178992029Y-118353159D01*
X179010987Y-118320046D01*
X179016316Y-118310112D01*
X179041077Y-118267969D01*
X179061430Y-118241577D01*
X179075780Y-118232433D01*
X179082533Y-118242032D01*
X179082848Y-118247727D01*
X179088356Y-118268617D01*
X179103731Y-118305854D01*
X179127249Y-118356210D01*
X179157185Y-118416457D01*
X179191816Y-118483367D01*
X179229417Y-118553712D01*
X179268264Y-118624264D01*
X179306634Y-118691794D01*
X179342801Y-118753074D01*
X179375043Y-118804877D01*
X179400384Y-118842258D01*
X179455725Y-118917431D01*
X179500486Y-118975381D01*
X179536440Y-119017989D01*
X179565360Y-119047134D01*
X179589020Y-119064699D01*
X179609194Y-119072562D01*
X179618432Y-119073443D01*
X179641985Y-119075680D01*
X179651589Y-119080952D01*
X179646225Y-119094941D01*
X179631588Y-119124599D01*
X179609862Y-119165939D01*
X179583231Y-119214978D01*
X179553879Y-119267729D01*
X179523991Y-119320206D01*
X179495749Y-119368424D01*
X179478057Y-119397626D01*
X179421272Y-119485370D01*
X179369627Y-119554776D01*
X179319885Y-119608657D01*
X179268807Y-119649827D01*
X179213158Y-119681098D01*
X179149699Y-119705284D01*
X179111285Y-119716325D01*
X179062304Y-119725525D01*
X178996756Y-119732626D01*
X178920744Y-119737394D01*
X178840374Y-119739598D01*
X178761751Y-119739005D01*
X178690980Y-119735384D01*
X178667666Y-119733193D01*
X178598502Y-119724293D01*
X178531408Y-119713232D01*
X178470675Y-119700950D01*
X178420597Y-119688390D01*
X178385465Y-119676491D01*
X178371104Y-119668180D01*
X178365108Y-119660620D01*
X178361527Y-119650966D01*
X178360998Y-119637791D01*
X178362717Y-119627936D01*
X178402517Y-119627936D01*
X178416199Y-119642385D01*
X178449285Y-119655753D01*
X178498444Y-119667774D01*
X178560346Y-119678177D01*
X178631658Y-119686694D01*
X178709051Y-119693056D01*
X178789192Y-119696996D01*
X178868752Y-119698243D01*
X178944399Y-119696530D01*
X179012802Y-119691588D01*
X179070630Y-119683149D01*
X179075281Y-119682192D01*
X179164837Y-119657619D01*
X179236192Y-119624946D01*
X179293044Y-119582247D01*
X179317772Y-119555837D01*
X179355197Y-119507355D01*
X179399071Y-119444612D01*
X179445507Y-119373611D01*
X179490617Y-119300358D01*
X179530516Y-119230856D01*
X179542418Y-119208742D01*
X179586808Y-119124512D01*
X179525356Y-119061360D01*
X179460771Y-118988003D01*
X179391788Y-118896998D01*
X179321051Y-118792329D01*
X179251208Y-118677982D01*
X179184903Y-118557939D01*
X179163964Y-118517187D01*
X179061132Y-118313127D01*
X178965284Y-118497069D01*
X178904650Y-118613889D01*
X178843659Y-118732247D01*
X178783197Y-118850363D01*
X178724152Y-118966458D01*
X178667407Y-119078752D01*
X178613850Y-119185464D01*
X178564365Y-119284814D01*
X178519839Y-119375023D01*
X178481158Y-119454310D01*
X178449207Y-119520895D01*
X178424872Y-119573000D01*
X178409038Y-119608842D01*
X178402593Y-119626643D01*
X178402517Y-119627936D01*
X178362717Y-119627936D01*
X178364160Y-119619664D01*
X178371650Y-119595155D01*
X178384107Y-119562836D01*
X178402169Y-119521276D01*
X178426473Y-119469047D01*
X178457658Y-119404717D01*
X178496362Y-119326859D01*
X178543222Y-119234043D01*
X178598877Y-119124839D01*
X178663964Y-118997817D01*
X178712199Y-118903916D01*
X178761672Y-118807536D01*
X178807811Y-118717401D01*
X178849601Y-118635514D01*
X178886024Y-118563879D01*
X178916065Y-118504501D01*
X178938705Y-118459383D01*
X178952930Y-118430528D01*
X178957725Y-118419968D01*
X178948288Y-118414626D01*
X178937819Y-118413661D01*
X178900282Y-118402968D01*
X178861454Y-118373071D01*
X178824797Y-118327012D01*
X178809386Y-118300802D01*
X178790092Y-118266363D01*
X178774450Y-118241636D01*
X178765749Y-118231805D01*
X178765611Y-118231794D01*
X178753647Y-118242270D01*
X178742572Y-118269232D01*
X178734191Y-118306435D01*
X178730311Y-118347635D01*
X178730228Y-118354157D01*
X178728088Y-118393162D01*
X178722624Y-118425453D01*
X178718473Y-118437163D01*
X178698552Y-118459025D01*
X178661139Y-118481342D01*
X178604601Y-118504896D01*
X178527308Y-118530467D01*
X178517436Y-118533447D01*
X178412705Y-118564803D01*
X178309221Y-118688693D01*
X178249147Y-118757557D01*
X178195914Y-118812412D01*
X178151011Y-118851915D01*
X178115928Y-118874726D01*
X178096835Y-118880071D01*
X178081539Y-118871054D01*
X178062862Y-118848603D01*
X178057756Y-118840513D01*
X178037293Y-118814137D01*
X178007013Y-118784308D01*
X177972748Y-118755769D01*
X177940327Y-118733263D01*
X177915580Y-118721533D01*
X177910617Y-118720824D01*
X177911581Y-118726537D01*
X177928028Y-118741543D01*
X177956432Y-118762642D01*
X177957640Y-118763479D01*
X178017112Y-118815829D01*
X178056798Y-118877791D01*
X178077721Y-118951396D01*
X178081751Y-119010078D01*
X178078710Y-119067512D01*
X178068208Y-119114459D01*
X178053518Y-119150914D01*
X178010502Y-119229466D01*
X177953274Y-119313444D01*
X177886808Y-119396050D01*
X177828456Y-119458438D01*
X177759352Y-119523411D01*
X177697754Y-119571903D01*
X177638258Y-119606164D01*
X177575458Y-119628444D01*
X177503949Y-119640993D01*
X177418326Y-119646060D01*
X177376623Y-119646499D01*
X177307962Y-119645231D01*
X177249817Y-119641581D01*
X177206963Y-119635921D01*
X177191584Y-119632067D01*
X177150596Y-119608351D01*
X177125400Y-119570013D01*
X177115899Y-119516516D01*
X177116449Y-119510266D01*
X177154024Y-119510266D01*
X177158901Y-119540350D01*
X177160357Y-119545061D01*
X177178253Y-119578254D01*
X177198353Y-119590560D01*
X177230042Y-119597611D01*
X177245812Y-119601326D01*
X177265593Y-119603208D01*
X177302851Y-119604293D01*
X177352326Y-119604504D01*
X177408757Y-119603766D01*
X177411164Y-119603714D01*
X177474001Y-119601804D01*
X177519832Y-119598703D01*
X177554400Y-119593517D01*
X177583446Y-119585352D01*
X177612713Y-119573315D01*
X177615911Y-119571846D01*
X177680677Y-119534492D01*
X177747478Y-119482837D01*
X177813641Y-119420314D01*
X177876492Y-119350358D01*
X177933357Y-119276401D01*
X177981564Y-119201876D01*
X178018439Y-119130217D01*
X178041308Y-119064858D01*
X178047738Y-119017278D01*
X178038378Y-118938430D01*
X178009905Y-118871353D01*
X177961729Y-118815121D01*
X177893263Y-118768811D01*
X177887378Y-118765755D01*
X177857456Y-118752338D01*
X177832180Y-118747961D01*
X177800832Y-118751617D01*
X177781129Y-118755786D01*
X177686989Y-118765928D01*
X177595354Y-118754433D01*
X177513054Y-118723511D01*
X177469474Y-118703961D01*
X177443337Y-118698844D01*
X177434908Y-118707679D01*
X177444452Y-118729982D01*
X177472235Y-118765273D01*
X177483368Y-118777468D01*
X177509990Y-118807803D01*
X177528882Y-118832906D01*
X177535871Y-118847077D01*
X177530314Y-118860263D01*
X177513067Y-118884940D01*
X177483259Y-118922168D01*
X177440023Y-118973003D01*
X177382491Y-119038504D01*
X177336066Y-119090506D01*
X177294152Y-119138490D01*
X177264324Y-119176760D01*
X177242550Y-119211659D01*
X177224800Y-119249532D01*
X177209592Y-119289565D01*
X177183075Y-119366869D01*
X177165429Y-119427062D01*
X177155972Y-119473683D01*
X177154024Y-119510266D01*
X177116449Y-119510266D01*
X177121992Y-119447325D01*
X177142474Y-119365475D01*
X177169943Y-119276449D01*
X177107937Y-119344969D01*
X177028008Y-119420381D01*
X176937785Y-119483138D01*
X176841658Y-119531080D01*
X176744014Y-119562047D01*
X176649244Y-119573880D01*
X176642619Y-119573936D01*
X176570923Y-119566844D01*
X176487103Y-119546670D01*
X176396365Y-119515072D01*
X176303915Y-119473704D01*
X176267149Y-119454535D01*
X176211015Y-119422582D01*
X176172569Y-119396269D01*
X176148677Y-119372073D01*
X176136202Y-119346470D01*
X176132012Y-119315939D01*
X176131951Y-119305436D01*
X176170891Y-119305436D01*
X176173792Y-119329306D01*
X176184408Y-119350459D01*
X176205606Y-119371300D01*
X176240253Y-119394231D01*
X176291215Y-119421656D01*
X176335826Y-119443698D01*
X176407696Y-119475706D01*
X176480144Y-119502992D01*
X176547577Y-119523763D01*
X176604405Y-119536222D01*
X176632596Y-119539004D01*
X176660567Y-119536575D01*
X176702141Y-119529417D01*
X176749029Y-119518992D01*
X176756043Y-119517228D01*
X176804867Y-119503287D01*
X176849915Y-119486643D01*
X176893170Y-119465650D01*
X176936616Y-119438662D01*
X176982234Y-119404032D01*
X177032010Y-119360115D01*
X177087925Y-119305264D01*
X177151962Y-119237833D01*
X177226105Y-119156176D01*
X177312337Y-119058645D01*
X177322693Y-119046823D01*
X177371143Y-118991091D01*
X177414105Y-118940938D01*
X177449440Y-118898923D01*
X177475008Y-118867603D01*
X177488670Y-118849536D01*
X177490371Y-118846321D01*
X177482380Y-118835779D01*
X177460514Y-118813267D01*
X177427934Y-118781896D01*
X177387798Y-118744772D01*
X177379467Y-118737223D01*
X177293789Y-118659138D01*
X177223752Y-118593632D01*
X177167445Y-118538806D01*
X177122957Y-118492765D01*
X177088379Y-118453609D01*
X177067967Y-118427845D01*
X177043537Y-118396060D01*
X177027373Y-118379599D01*
X177014260Y-118375456D01*
X176998984Y-118380629D01*
X176992078Y-118384129D01*
X176976711Y-118396052D01*
X176947672Y-118422322D01*
X176907028Y-118460856D01*
X176856843Y-118509572D01*
X176799182Y-118566387D01*
X176736111Y-118629218D01*
X176669695Y-118695983D01*
X176601999Y-118764599D01*
X176535088Y-118832984D01*
X176471027Y-118899056D01*
X176411883Y-118960731D01*
X176359719Y-119015927D01*
X176316601Y-119062562D01*
X176291583Y-119090506D01*
X176242779Y-119148214D01*
X176208487Y-119194338D01*
X176186530Y-119232752D01*
X176174733Y-119267331D01*
X176170917Y-119301953D01*
X176170891Y-119305436D01*
X176131951Y-119305436D01*
X176131935Y-119302573D01*
X176135220Y-119264907D01*
X176145199Y-119229098D01*
X176163992Y-119191397D01*
X176193719Y-119148056D01*
X176236502Y-119095327D01*
X176272643Y-119053875D01*
X176311297Y-119011249D01*
X176360270Y-118958696D01*
X176417364Y-118898454D01*
X176480378Y-118832758D01*
X176547113Y-118763844D01*
X176615369Y-118693948D01*
X176682946Y-118625307D01*
X176747646Y-118560155D01*
X176807268Y-118500729D01*
X176859612Y-118449266D01*
X176902479Y-118408000D01*
X176933670Y-118379168D01*
X176948930Y-118366417D01*
X176988176Y-118342069D01*
X177019402Y-118335221D01*
X177047671Y-118346876D01*
X177078045Y-118378040D01*
X177090716Y-118394561D01*
X177115250Y-118424279D01*
X177152235Y-118464744D01*
X177197309Y-118511375D01*
X177246114Y-118559591D01*
X177264424Y-118577085D01*
X177313341Y-118623040D01*
X177348501Y-118654944D01*
X177372463Y-118674600D01*
X177387783Y-118683810D01*
X177397021Y-118684378D01*
X177402735Y-118678106D01*
X177404013Y-118675459D01*
X177406008Y-118665255D01*
X177402094Y-118652325D01*
X177390342Y-118634242D01*
X177368823Y-118608577D01*
X177335605Y-118572902D01*
X177288761Y-118524791D01*
X177265717Y-118501461D01*
X177203831Y-118437896D01*
X177157775Y-118387275D01*
X177126559Y-118347228D01*
X177109187Y-118315387D01*
X177107254Y-118304259D01*
X177146588Y-118304259D01*
X177154528Y-118321380D01*
X177168221Y-118339687D01*
X177195421Y-118370331D01*
X177232977Y-118410194D01*
X177277739Y-118456159D01*
X177326556Y-118505108D01*
X177376278Y-118553923D01*
X177423753Y-118599488D01*
X177465831Y-118638683D01*
X177499361Y-118668392D01*
X177521193Y-118685497D01*
X177524496Y-118687460D01*
X177580110Y-118710333D01*
X177640082Y-118726099D01*
X177685983Y-118731437D01*
X177707183Y-118728406D01*
X177747063Y-118719461D01*
X177802569Y-118705411D01*
X177809683Y-118703494D01*
X177970752Y-118703494D01*
X177977382Y-118710774D01*
X177997678Y-118726536D01*
X178013866Y-118738061D01*
X178045953Y-118764265D01*
X178072299Y-118792510D01*
X178079086Y-118802312D01*
X178094674Y-118825855D01*
X178108233Y-118832418D01*
X178127251Y-118822887D01*
X178144133Y-118810019D01*
X178162686Y-118792893D01*
X178189338Y-118765175D01*
X178220653Y-118730829D01*
X178253197Y-118693818D01*
X178283534Y-118658107D01*
X178308231Y-118627657D01*
X178323851Y-118606435D01*
X178327381Y-118598556D01*
X178316207Y-118600635D01*
X178287734Y-118608082D01*
X178246409Y-118619588D01*
X178196682Y-118633844D01*
X178142999Y-118649541D01*
X178089810Y-118665371D01*
X178041562Y-118680024D01*
X178002704Y-118692191D01*
X177977684Y-118700564D01*
X177970752Y-118703494D01*
X177809683Y-118703494D01*
X177870650Y-118687066D01*
X177948251Y-118665236D01*
X178032320Y-118640730D01*
X178067040Y-118630371D01*
X178199793Y-118590501D01*
X178312435Y-118556514D01*
X178406617Y-118527658D01*
X178483988Y-118503182D01*
X178546199Y-118482337D01*
X178594900Y-118464370D01*
X178631741Y-118448532D01*
X178658374Y-118434071D01*
X178676447Y-118420236D01*
X178687611Y-118406278D01*
X178693517Y-118391444D01*
X178695814Y-118374985D01*
X178696154Y-118356149D01*
X178696104Y-118344175D01*
X178693968Y-118314220D01*
X178686309Y-118282778D01*
X178671248Y-118244506D01*
X178646907Y-118194063D01*
X178635550Y-118171969D01*
X178611655Y-118127654D01*
X178581167Y-118073659D01*
X178545900Y-118012945D01*
X178507666Y-117948467D01*
X178468280Y-117883186D01*
X178429555Y-117820058D01*
X178393304Y-117762043D01*
X178361342Y-117712098D01*
X178335482Y-117673182D01*
X178317536Y-117648253D01*
X178309556Y-117640214D01*
X178297391Y-117645439D01*
X178268088Y-117660129D01*
X178224459Y-117682812D01*
X178169313Y-117712016D01*
X178105460Y-117746267D01*
X178051711Y-117775379D01*
X177972402Y-117818512D01*
X177878986Y-117869317D01*
X177777340Y-117924599D01*
X177673343Y-117981159D01*
X177572872Y-118035802D01*
X177496059Y-118077578D01*
X177418427Y-118120114D01*
X177346359Y-118160199D01*
X177282551Y-118196287D01*
X177229697Y-118226832D01*
X177190493Y-118250289D01*
X177167633Y-118265111D01*
X177163838Y-118268116D01*
X177147161Y-118287070D01*
X177146588Y-118304259D01*
X177107254Y-118304259D01*
X177104669Y-118289382D01*
X177112011Y-118266843D01*
X177130220Y-118245402D01*
X177151151Y-118228049D01*
X177168273Y-118217170D01*
X177203402Y-118196635D01*
X177254512Y-118167571D01*
X177319579Y-118131105D01*
X177396577Y-118088365D01*
X177483482Y-118040478D01*
X177578268Y-117988570D01*
X177678910Y-117933769D01*
X177717868Y-117912637D01*
X178246798Y-117626037D01*
X178282504Y-117589028D01*
X178332991Y-117589028D01*
X178484350Y-117835431D01*
X178528255Y-117907368D01*
X178570376Y-117977243D01*
X178608526Y-118041358D01*
X178640514Y-118096014D01*
X178664150Y-118137513D01*
X178674196Y-118156063D01*
X178693248Y-118191261D01*
X178708286Y-118216176D01*
X178716460Y-118226140D01*
X178716936Y-118226040D01*
X178717899Y-118213354D01*
X178715803Y-118185351D01*
X178712974Y-118162064D01*
X178699543Y-118109641D01*
X178672483Y-118043162D01*
X178633318Y-117965543D01*
X178583567Y-117879698D01*
X178524755Y-117788543D01*
X178496943Y-117748275D01*
X178462872Y-117699018D01*
X178434080Y-117655672D01*
X178412914Y-117621907D01*
X178401723Y-117601395D01*
X178400563Y-117597630D01*
X178409527Y-117582466D01*
X178432953Y-117560933D01*
X178465186Y-117537285D01*
X178500568Y-117515773D01*
X178525544Y-117503690D01*
X178551840Y-117486488D01*
X178556657Y-117468642D01*
X178540717Y-117454471D01*
X178516388Y-117448930D01*
X178496257Y-117449105D01*
X178477088Y-117455893D01*
X178454075Y-117472268D01*
X178422408Y-117501202D01*
X178406018Y-117517179D01*
X178332991Y-117589028D01*
X178282504Y-117589028D01*
X178343484Y-117525823D01*
X178391502Y-117477772D01*
X178428921Y-117444723D01*
X178459290Y-117423862D01*
X178486160Y-117412374D01*
X178486835Y-117412178D01*
X178534892Y-117406091D01*
X178570623Y-117418859D01*
X178593612Y-117450334D01*
X178593651Y-117450430D01*
X178601139Y-117466306D01*
X178603977Y-117461541D01*
X178604384Y-117454249D01*
X178606575Y-117444832D01*
X178651445Y-117444832D01*
X178661199Y-117454408D01*
X178670510Y-117452990D01*
X178688129Y-117446999D01*
X178723029Y-117435739D01*
X178770746Y-117420628D01*
X178826817Y-117403087D01*
X178849664Y-117395994D01*
X178974919Y-117357921D01*
X179085803Y-117326063D01*
X179188482Y-117298962D01*
X179289120Y-117275161D01*
X179393882Y-117253201D01*
X179508933Y-117231624D01*
X179640215Y-117209008D01*
X179728397Y-117194383D01*
X179812450Y-117180630D01*
X179888863Y-117168310D01*
X179954129Y-117157982D01*
X180004737Y-117150207D01*
X180037180Y-117145545D01*
X180041454Y-117145001D01*
X180077945Y-117139562D01*
X180095304Y-117133653D01*
X180097123Y-117125687D01*
X180094341Y-117121615D01*
X180083455Y-117111804D01*
X180068049Y-117104606D01*
X180046482Y-117100221D01*
X180017117Y-117098850D01*
X179978312Y-117100692D01*
X179928430Y-117105949D01*
X179865831Y-117114820D01*
X179788876Y-117127505D01*
X179695925Y-117144206D01*
X179585339Y-117165121D01*
X179455479Y-117190451D01*
X179334919Y-117214366D01*
X179198711Y-117241718D01*
X179083051Y-117265454D01*
X178986112Y-117286081D01*
X178906069Y-117304108D01*
X178841097Y-117320040D01*
X178789369Y-117334387D01*
X178749060Y-117347654D01*
X178718344Y-117360349D01*
X178695397Y-117372981D01*
X178678391Y-117386055D01*
X178665502Y-117400079D01*
X178665184Y-117400488D01*
X178652554Y-117424691D01*
X178651445Y-117444832D01*
X178606575Y-117444832D01*
X178615280Y-117407412D01*
X178645130Y-117366686D01*
X178694830Y-117331422D01*
X178765274Y-117300971D01*
X178849664Y-117276530D01*
X178935362Y-117256401D01*
X179031930Y-117234947D01*
X179136578Y-117212687D01*
X179246518Y-117190142D01*
X179358961Y-117167832D01*
X179471119Y-117146275D01*
X179580202Y-117125991D01*
X179683423Y-117107501D01*
X179777992Y-117091324D01*
X179861121Y-117077980D01*
X179930021Y-117067988D01*
X179981904Y-117061868D01*
X180010994Y-117060098D01*
X180052994Y-117061132D01*
X180080214Y-117065895D01*
X180100588Y-117076880D01*
X180119743Y-117094258D01*
X180141578Y-117113651D01*
X180162818Y-117123659D01*
X180192060Y-117127018D01*
X180222171Y-117126875D01*
X180268557Y-117128309D01*
X180297594Y-117135797D01*
X180308804Y-117143696D01*
X180321093Y-117167739D01*
X180331265Y-117211430D01*
X180338901Y-117271730D01*
X180343578Y-117345599D01*
X180344870Y-117404187D01*
X180346015Y-117450518D01*
X180349817Y-117477766D01*
X180357965Y-117489576D01*
X180372145Y-117489595D01*
X180382753Y-117486045D01*
X180392259Y-117477279D01*
X180393858Y-117457606D01*
X180389369Y-117427320D01*
X180385387Y-117392819D01*
X180382811Y-117343645D01*
X180381975Y-117287851D01*
X180382356Y-117258155D01*
X180383264Y-117204866D01*
X180382362Y-117169092D01*
X180378772Y-117145617D01*
X180371616Y-117129224D01*
X180360015Y-117114699D01*
X180357793Y-117112311D01*
X180352995Y-117107204D01*
X180407864Y-117107204D01*
X180409657Y-117115521D01*
X180413217Y-117133464D01*
X180416702Y-117169197D01*
X180419741Y-117217763D01*
X180421959Y-117274205D01*
X180422169Y-117281907D01*
X180424160Y-117350975D01*
X180426452Y-117399935D01*
X180429721Y-117431427D01*
X180434642Y-117448088D01*
X180441891Y-117452560D01*
X180452142Y-117447479D01*
X180462343Y-117438866D01*
X180498068Y-117413725D01*
X180531852Y-117407746D01*
X180565906Y-117417105D01*
X180610756Y-117446769D01*
X180654753Y-117496256D01*
X180696890Y-117562638D01*
X180736157Y-117642989D01*
X180771549Y-117734381D01*
X180802056Y-117833889D01*
X180826670Y-117938585D01*
X180844385Y-118045543D01*
X180854192Y-118151836D01*
X180855083Y-118254536D01*
X180854999Y-118256636D01*
X180853702Y-118306405D01*
X180854093Y-118346505D01*
X180856032Y-118372317D01*
X180858691Y-118379579D01*
X180872568Y-118377998D01*
X180904608Y-118373662D01*
X180950475Y-118367176D01*
X181005831Y-118359147D01*
X181024476Y-118356404D01*
X181202994Y-118333648D01*
X181367735Y-118320716D01*
X181525410Y-118317540D01*
X181682727Y-118324051D01*
X181846396Y-118340178D01*
X181901113Y-118347346D01*
X181944740Y-118352702D01*
X181978972Y-118355657D01*
X181998209Y-118355772D01*
X182000335Y-118355090D01*
X182000784Y-118341936D01*
X181995569Y-118315390D01*
X181992789Y-118305003D01*
X181985144Y-118261938D01*
X181981036Y-118203987D01*
X181980431Y-118138732D01*
X181983295Y-118073754D01*
X181989597Y-118016636D01*
X181994156Y-117992834D01*
X182030095Y-117887284D01*
X182085321Y-117791259D01*
X182157571Y-117707782D01*
X182244580Y-117639872D01*
X182269960Y-117624792D01*
X182369956Y-117579586D01*
X182486304Y-117545248D01*
X182615182Y-117522132D01*
X182752771Y-117510591D01*
X182895248Y-117510977D01*
X183038794Y-117523643D01*
X183153569Y-117543220D01*
X183316301Y-117588865D01*
X183470491Y-117655116D01*
X183614228Y-117740936D01*
X183745598Y-117845285D01*
X183792028Y-117889732D01*
X183876831Y-117987898D01*
X183946126Y-118094525D01*
X183999154Y-118206808D01*
X184035161Y-118321942D01*
X184053388Y-118437122D01*
X184053079Y-118549543D01*
X184033477Y-118656401D01*
X184013988Y-118712292D01*
X184012174Y-118726849D01*
X184026802Y-118731930D01*
X184036307Y-118732198D01*
X184061601Y-118736708D01*
X184099572Y-118748584D01*
X184142390Y-118765347D01*
X184146139Y-118766977D01*
X184264876Y-118811302D01*
X184376867Y-118836086D01*
X184486375Y-118841699D01*
X184597662Y-118828511D01*
X184666055Y-118812011D01*
X184757902Y-118781023D01*
X184829145Y-118745449D01*
X184881644Y-118704296D01*
X184894666Y-118689934D01*
X184923435Y-118648964D01*
X184956412Y-118591993D01*
X184990927Y-118524709D01*
X185024307Y-118452796D01*
X185053883Y-118381940D01*
X185076984Y-118317827D01*
X185088544Y-118277205D01*
X185105056Y-118188759D01*
X185110095Y-118106134D01*
X185103704Y-118020263D01*
X185090039Y-117941446D01*
X185050532Y-117799693D01*
X184993525Y-117671710D01*
X184919387Y-117558137D01*
X184828489Y-117459617D01*
X184797159Y-117432393D01*
X184748023Y-117393374D01*
X184694100Y-117353027D01*
X184639298Y-117314013D01*
X184587528Y-117278989D01*
X184542699Y-117250617D01*
X184508720Y-117231556D01*
X184492054Y-117224816D01*
X184474035Y-117222635D01*
X184435184Y-117219262D01*
X184377380Y-117214814D01*
X184302500Y-117209408D01*
X184212426Y-117203162D01*
X184109036Y-117196191D01*
X183994209Y-117188612D01*
X183869824Y-117180543D01*
X183737761Y-117172101D01*
X183599899Y-117163402D01*
X183458117Y-117154563D01*
X183314294Y-117145701D01*
X183170310Y-117136933D01*
X183028043Y-117128376D01*
X182889374Y-117120146D01*
X182756180Y-117112361D01*
X182630342Y-117105137D01*
X182513738Y-117098591D01*
X182408247Y-117092841D01*
X182315750Y-117088002D01*
X182238125Y-117084192D01*
X182210927Y-117082950D01*
X182118417Y-117078748D01*
X182010465Y-117073689D01*
X181894347Y-117068123D01*
X181777337Y-117062401D01*
X181666711Y-117056874D01*
X181608061Y-117053881D01*
X181480357Y-117048046D01*
X181350717Y-117043499D01*
X181222243Y-117040259D01*
X181098037Y-117038340D01*
X180981203Y-117037760D01*
X180874843Y-117038534D01*
X180782058Y-117040680D01*
X180705952Y-117044213D01*
X180652276Y-117048828D01*
X180594588Y-117056893D01*
X180533460Y-117067318D01*
X180481482Y-117077942D01*
X180478426Y-117078657D01*
X180437593Y-117089263D01*
X180415350Y-117098093D01*
X180407864Y-117107204D01*
X180352995Y-117107204D01*
X180330448Y-117083204D01*
X180369232Y-117067155D01*
X180440612Y-117044163D01*
X180532616Y-117025316D01*
X180643482Y-117010729D01*
X180771443Y-117000515D01*
X180914736Y-116994787D01*
X181071596Y-116993659D01*
X181240259Y-116997244D01*
G37*
D16*
%TO.C,D4*%
X155816326Y-57965615D02*
X155816326Y-57809615D01*
X155816326Y-55649615D02*
X155816326Y-55493615D01*
X155816326Y-57965131D02*
G75*
G02*
X152584889Y-57809615I-1560000J1235516D01*
G01*
X155297287Y-57809615D02*
G75*
G02*
X153215365Y-57809615I-1040961J1080000D01*
G01*
X153215365Y-55649615D02*
G75*
G02*
X155297287Y-55649615I1040961J-1080000D01*
G01*
X152584889Y-55649615D02*
G75*
G02*
X155816326Y-55494099I1671437J-1080000D01*
G01*
%TO.C,D3*%
X150160996Y-98035292D02*
X150160996Y-98191292D01*
X150160996Y-100351292D02*
X150160996Y-100507292D01*
X150160996Y-98035776D02*
G75*
G02*
X153392433Y-98191292I1560000J-1235516D01*
G01*
X150680035Y-98191292D02*
G75*
G02*
X152761957Y-98191292I1040961J-1080000D01*
G01*
X152761957Y-100351292D02*
G75*
G02*
X150680035Y-100351292I-1040961J1080000D01*
G01*
X153392433Y-100351292D02*
G75*
G02*
X150160996Y-100506808I-1671437J1080000D01*
G01*
%TO.C,D2*%
X150160996Y-92635292D02*
X150160996Y-92791292D01*
X150160996Y-94951292D02*
X150160996Y-95107292D01*
X150160996Y-92635776D02*
G75*
G02*
X153392433Y-92791292I1560000J-1235516D01*
G01*
X150680035Y-92791292D02*
G75*
G02*
X152761957Y-92791292I1040961J-1080000D01*
G01*
X152761957Y-94951292D02*
G75*
G02*
X150680035Y-94951292I-1040961J1080000D01*
G01*
X153392433Y-94951292D02*
G75*
G02*
X150160996Y-95106808I-1671437J1080000D01*
G01*
%TO.C,D1*%
X150160996Y-87235292D02*
X150160996Y-87391292D01*
X150160996Y-89551292D02*
X150160996Y-89707292D01*
X150160996Y-87235776D02*
G75*
G02*
X153392433Y-87391292I1560000J-1235516D01*
G01*
X150680035Y-87391292D02*
G75*
G02*
X152761957Y-87391292I1040961J-1080000D01*
G01*
X152761957Y-89551292D02*
G75*
G02*
X150680035Y-89551292I-1040961J1080000D01*
G01*
X153392433Y-89551292D02*
G75*
G02*
X150160996Y-89706808I-1671437J1080000D01*
G01*
%TO.C,R10*%
X154360436Y-52265000D02*
X154814564Y-52265000D01*
X154360436Y-53735000D02*
X154814564Y-53735000D01*
%TO.C,J5*%
X151119999Y-59357433D02*
X140379999Y-59357433D01*
X151119999Y-55737433D02*
X149879999Y-55737433D01*
X151119999Y-54737433D02*
X149879999Y-54737433D01*
X151119999Y-53437433D02*
X149879999Y-53437433D01*
X151119999Y-51317433D02*
X151119999Y-59357433D01*
X148299999Y-51317433D02*
X151119999Y-51317433D01*
X146119999Y-55737433D02*
X144811999Y-55737433D01*
X146119999Y-54737433D02*
X144811999Y-54737433D01*
X146119999Y-53437433D02*
X143542999Y-53437433D01*
X142456999Y-53437433D02*
X140379999Y-53437433D01*
X141187999Y-55737433D02*
X140379999Y-55737433D01*
X141187999Y-54737433D02*
X140379999Y-54737433D01*
X140379999Y-59357433D02*
X140379999Y-51317433D01*
X140379999Y-51317433D02*
X147699999Y-51317433D01*
X147999999Y-51317433D02*
X147559999Y-50707433D01*
X148439999Y-50707433D01*
X147999999Y-51317433D01*
G36*
X147999999Y-51317433D02*
G01*
X147559999Y-50707433D01*
X148439999Y-50707433D01*
X147999999Y-51317433D01*
G37*
%TO.C,IC1*%
X143618300Y-103104127D02*
X143618300Y-113384127D01*
X143618300Y-113384127D02*
X145268300Y-113384127D01*
X147268300Y-113384127D02*
X148918300Y-113384127D01*
X148918300Y-103104127D02*
X143618300Y-103104127D01*
X148918300Y-113384127D02*
X148918300Y-103104127D01*
X145268300Y-113384127D02*
G75*
G02*
X147268300Y-113384127I1000000J0D01*
G01*
D13*
%TO.C,J3*%
X132103300Y-95469127D02*
X137853300Y-95469127D01*
X132103300Y-102869127D02*
X132103300Y-95469127D01*
X137853300Y-95469127D02*
X137853300Y-102869127D01*
X137853300Y-102869127D02*
X132103300Y-102869127D01*
D17*
X134553300Y-103609127D02*
G75*
G02*
X134353300Y-103609127I-100000J0D01*
G01*
X134353300Y-103609127D02*
G75*
G02*
X134553300Y-103609127I100000J0D01*
G01*
D16*
%TO.C,JP1*%
X160295663Y-54027632D02*
X160295663Y-112557632D01*
X157535663Y-112557632D02*
X160295663Y-112557632D01*
X157535663Y-54027632D02*
X160295663Y-54027632D01*
X157535663Y-54027632D02*
X157535663Y-112557632D01*
X157535663Y-52757632D02*
X157535663Y-51377632D01*
X157535663Y-51377632D02*
X158915663Y-51377632D01*
%TO.C,JP2*%
X186792783Y-54027632D02*
X186792783Y-112557632D01*
X184032783Y-112557632D02*
X186792783Y-112557632D01*
X184032783Y-54027632D02*
X186792783Y-54027632D01*
X184032783Y-54027632D02*
X184032783Y-112557632D01*
X184032783Y-52757632D02*
X184032783Y-51377632D01*
X184032783Y-51377632D02*
X185412783Y-51377632D01*
D13*
%TO.C,J2*%
X132103300Y-105351627D02*
X137853300Y-105351627D01*
X132103300Y-112751627D02*
X132103300Y-105351627D01*
X137853300Y-105351627D02*
X137853300Y-112751627D01*
X137853300Y-112751627D02*
X132103300Y-112751627D01*
D17*
X134553300Y-113491627D02*
G75*
G02*
X134353300Y-113491627I-100000J0D01*
G01*
X134353300Y-113491627D02*
G75*
G02*
X134553300Y-113491627I100000J0D01*
G01*
D16*
%TO.C,U$1*%
X181169223Y-54027632D02*
X181169223Y-112557632D01*
X178409223Y-112557632D02*
X181169223Y-112557632D01*
X178409223Y-54027632D02*
X181169223Y-54027632D01*
X178409223Y-54027632D02*
X178409223Y-112557632D01*
X178409223Y-52757632D02*
X178409223Y-51377632D01*
X178409223Y-51377632D02*
X179789223Y-51377632D01*
X165929223Y-54027632D02*
X165929223Y-112557632D01*
X163169223Y-112557632D02*
X165929223Y-112557632D01*
X163169223Y-54027632D02*
X165929223Y-54027632D01*
X163169223Y-54027632D02*
X163169223Y-112557632D01*
X163169223Y-52757632D02*
X163169223Y-51377632D01*
X163169223Y-51377632D02*
X164549223Y-51377632D01*
%TO.C,J4*%
X191863771Y-88639001D02*
X190483771Y-88639001D01*
X191863771Y-87259001D02*
X191863771Y-88639001D01*
X191863771Y-85989001D02*
X191863771Y-73179001D01*
X191863771Y-85989001D02*
X189103771Y-85989001D01*
X191863771Y-73179001D02*
X189103771Y-73179001D01*
X189103771Y-85989001D02*
X189103771Y-73179001D01*
%TO.C,J1*%
X145277520Y-91890021D02*
G75*
G02*
X144217520Y-92950021I-1060000J0D01*
G01*
X144217520Y-61980021D02*
G75*
G02*
X145277520Y-63040021I-1J-1060001D01*
G01*
X142977520Y-83696710D02*
G75*
G02*
X141029262Y-85331502I-1660000J-11D01*
G01*
X141029264Y-69598551D02*
G75*
G02*
X142977520Y-71233332I288256J-1634781D01*
G01*
X136329264Y-84502754D02*
G75*
G02*
X134957518Y-82867973I288256J1634783D01*
G01*
X134957520Y-72062069D02*
G75*
G02*
X136329264Y-70427288I1659999J1D01*
G01*
X133717520Y-92950021D02*
G75*
G02*
X132657520Y-91890021I0J1060000D01*
G01*
X132657520Y-63040021D02*
G75*
G02*
X133717520Y-61980021I1060001J-1D01*
G01*
X146171858Y-83255021D02*
X145738845Y-83005021D01*
X146171858Y-82755021D02*
X146171858Y-83255021D01*
X145738845Y-83005021D02*
X146171858Y-82755021D01*
X145277520Y-63040021D02*
X145277520Y-91890021D01*
X144217520Y-92950021D02*
X133717520Y-92950021D01*
X142977520Y-71233332D02*
X142977520Y-83696710D01*
X141029264Y-85331491D02*
X136329264Y-84502754D01*
X136329264Y-70427288D02*
X141029264Y-69598551D01*
X134957520Y-82867973D02*
X134957520Y-72062069D01*
X133717520Y-61980021D02*
X144217520Y-61980021D01*
X132657520Y-91890021D02*
X132657520Y-63040021D01*
%TD*%
M02*
