%TF.GenerationSoftware,KiCad,Pcbnew,9.0.5*%
%TF.CreationDate,2025-10-06T18:32:33-05:00*%
%TF.ProjectId,ATO-Encoder-PCB,41544f2d-456e-4636-9f64-65722d504342,rev?*%
%TF.SameCoordinates,Original*%
%TF.FileFunction,Paste,Bot*%
%TF.FilePolarity,Positive*%
%FSLAX46Y46*%
G04 Gerber Fmt 4.6, Leading zero omitted, Abs format (unit mm)*
G04 Created by KiCad (PCBNEW 9.0.5) date 2025-10-06 18:32:33*
%MOMM*%
%LPD*%
G01*
G04 APERTURE LIST*
G04 Aperture macros list*
%AMRoundRect*
0 Rectangle with rounded corners*
0 $1 Rounding radius*
0 $2 $3 $4 $5 $6 $7 $8 $9 X,Y pos of 4 corners*
0 Add a 4 corners polygon primitive as box body*
4,1,4,$2,$3,$4,$5,$6,$7,$8,$9,$2,$3,0*
0 Add four circle primitives for the rounded corners*
1,1,$1+$1,$2,$3*
1,1,$1+$1,$4,$5*
1,1,$1+$1,$6,$7*
1,1,$1+$1,$8,$9*
0 Add four rect primitives between the rounded corners*
20,1,$1+$1,$2,$3,$4,$5,0*
20,1,$1+$1,$4,$5,$6,$7,0*
20,1,$1+$1,$6,$7,$8,$9,0*
20,1,$1+$1,$8,$9,$2,$3,0*%
%AMFreePoly0*
4,1,14,0.394194,0.106694,0.412500,0.062500,0.412500,-0.009112,0.394194,-0.053306,0.340806,-0.106694,0.296612,-0.125000,-0.350000,-0.125000,-0.394194,-0.106694,-0.412500,-0.062500,-0.412500,0.062500,-0.394194,0.106694,-0.350000,0.125000,0.350000,0.125000,0.394194,0.106694,0.394194,0.106694,$1*%
%AMFreePoly1*
4,1,14,0.340806,0.106694,0.394194,0.053306,0.412500,0.009112,0.412500,-0.062500,0.394194,-0.106694,0.350000,-0.125000,-0.350000,-0.125000,-0.394194,-0.106694,-0.412500,-0.062500,-0.412500,0.062500,-0.394194,0.106694,-0.350000,0.125000,0.296612,0.125000,0.340806,0.106694,0.340806,0.106694,$1*%
%AMFreePoly2*
4,1,14,0.106694,0.394194,0.125000,0.350000,0.125000,-0.350000,0.106694,-0.394194,0.062500,-0.412500,-0.009112,-0.412500,-0.053306,-0.394194,-0.106694,-0.340806,-0.125000,-0.296612,-0.125000,0.350000,-0.106694,0.394194,-0.062500,0.412500,0.062500,0.412500,0.106694,0.394194,0.106694,0.394194,$1*%
%AMFreePoly3*
4,1,14,0.106694,0.394194,0.125000,0.350000,0.125000,-0.296612,0.106694,-0.340806,0.053306,-0.394194,0.009112,-0.412500,-0.062500,-0.412500,-0.106694,-0.394194,-0.125000,-0.350000,-0.125000,0.350000,-0.106694,0.394194,-0.062500,0.412500,0.062500,0.412500,0.106694,0.394194,0.106694,0.394194,$1*%
%AMFreePoly4*
4,1,14,0.394194,0.106694,0.412500,0.062500,0.412500,-0.062500,0.394194,-0.106694,0.350000,-0.125000,-0.350000,-0.125000,-0.394194,-0.106694,-0.412500,-0.062500,-0.412500,0.009112,-0.394194,0.053306,-0.340806,0.106694,-0.296612,0.125000,0.350000,0.125000,0.394194,0.106694,0.394194,0.106694,$1*%
%AMFreePoly5*
4,1,14,0.394194,0.106694,0.412500,0.062500,0.412500,-0.062500,0.394194,-0.106694,0.350000,-0.125000,-0.296612,-0.125000,-0.340806,-0.106694,-0.394194,-0.053306,-0.412500,-0.009112,-0.412500,0.062500,-0.394194,0.106694,-0.350000,0.125000,0.350000,0.125000,0.394194,0.106694,0.394194,0.106694,$1*%
%AMFreePoly6*
4,1,14,0.053306,0.394194,0.106694,0.340806,0.125000,0.296612,0.125000,-0.350000,0.106694,-0.394194,0.062500,-0.412500,-0.062500,-0.412500,-0.106694,-0.394194,-0.125000,-0.350000,-0.125000,0.350000,-0.106694,0.394194,-0.062500,0.412500,0.009112,0.412500,0.053306,0.394194,0.053306,0.394194,$1*%
%AMFreePoly7*
4,1,14,0.106694,0.394194,0.125000,0.350000,0.125000,-0.350000,0.106694,-0.394194,0.062500,-0.412500,-0.062500,-0.412500,-0.106694,-0.394194,-0.125000,-0.350000,-0.125000,0.296612,-0.106694,0.340806,-0.053306,0.394194,-0.009112,0.412500,0.062500,0.412500,0.106694,0.394194,0.106694,0.394194,$1*%
G04 Aperture macros list end*
%ADD10RoundRect,0.250000X0.262500X0.450000X-0.262500X0.450000X-0.262500X-0.450000X0.262500X-0.450000X0*%
%ADD11RoundRect,0.250000X0.475000X-0.250000X0.475000X0.250000X-0.475000X0.250000X-0.475000X-0.250000X0*%
%ADD12RoundRect,0.250000X-0.475000X0.250000X-0.475000X-0.250000X0.475000X-0.250000X0.475000X0.250000X0*%
%ADD13RoundRect,0.250000X0.450000X-0.262500X0.450000X0.262500X-0.450000X0.262500X-0.450000X-0.262500X0*%
%ADD14RoundRect,0.250000X0.250000X0.475000X-0.250000X0.475000X-0.250000X-0.475000X0.250000X-0.475000X0*%
%ADD15RoundRect,0.250000X-0.250000X-0.475000X0.250000X-0.475000X0.250000X0.475000X-0.250000X0.475000X0*%
%ADD16RoundRect,0.250000X-0.450000X0.262500X-0.450000X-0.262500X0.450000X-0.262500X0.450000X0.262500X0*%
%ADD17RoundRect,0.250000X-0.262500X-0.450000X0.262500X-0.450000X0.262500X0.450000X-0.262500X0.450000X0*%
%ADD18RoundRect,0.250000X-0.375000X0.375000X-0.375000X-0.375000X0.375000X-0.375000X0.375000X0.375000X0*%
%ADD19FreePoly0,270.000000*%
%ADD20RoundRect,0.062500X-0.062500X0.350000X-0.062500X-0.350000X0.062500X-0.350000X0.062500X0.350000X0*%
%ADD21FreePoly1,270.000000*%
%ADD22FreePoly2,270.000000*%
%ADD23RoundRect,0.062500X-0.350000X0.062500X-0.350000X-0.062500X0.350000X-0.062500X0.350000X0.062500X0*%
%ADD24FreePoly3,270.000000*%
%ADD25FreePoly4,270.000000*%
%ADD26FreePoly5,270.000000*%
%ADD27FreePoly6,270.000000*%
%ADD28FreePoly7,270.000000*%
G04 APERTURE END LIST*
D10*
%TO.C,R6*%
X152825000Y-91400000D03*
X151000000Y-91400000D03*
%TD*%
D11*
%TO.C,C2*%
X139239618Y-114450424D03*
X139239618Y-112550424D03*
%TD*%
D12*
%TO.C,C1*%
X147258300Y-107284127D03*
X147258300Y-109184127D03*
%TD*%
D13*
%TO.C,R8*%
X139358300Y-106934127D03*
X139358300Y-105109127D03*
%TD*%
D14*
%TO.C,C4*%
X170450000Y-88250000D03*
X168550000Y-88250000D03*
%TD*%
D15*
%TO.C,C3*%
X171100000Y-55750000D03*
X173000000Y-55750000D03*
%TD*%
D10*
%TO.C,R9*%
X152825000Y-96800000D03*
X151000000Y-96800000D03*
%TD*%
D13*
%TO.C,R2*%
X145562635Y-78966425D03*
X145562635Y-77141425D03*
%TD*%
D10*
%TO.C,R4*%
X152825000Y-86000000D03*
X151000000Y-86000000D03*
%TD*%
%TO.C,R5*%
X142458300Y-101484127D03*
X140633300Y-101484127D03*
%TD*%
D16*
%TO.C,R1*%
X145537380Y-81787306D03*
X145537380Y-83612306D03*
%TD*%
D17*
%TO.C,R7*%
X137683300Y-109484127D03*
X139508300Y-109484127D03*
%TD*%
D18*
%TO.C,U1*%
X152487927Y-78653453D03*
X150937927Y-78653453D03*
X152487927Y-80203453D03*
X150937927Y-80203453D03*
D19*
X149962927Y-76990953D03*
D20*
X150462927Y-76990953D03*
X150962927Y-76990953D03*
X151462927Y-76990953D03*
X151962927Y-76990953D03*
X152462927Y-76990953D03*
X152962927Y-76990953D03*
D21*
X153462927Y-76990953D03*
D22*
X154150427Y-77678453D03*
D23*
X154150427Y-78178453D03*
X154150427Y-78678453D03*
X154150427Y-79178453D03*
X154150427Y-79678453D03*
X154150427Y-80178453D03*
X154150427Y-80678453D03*
D24*
X154150427Y-81178453D03*
D25*
X153462927Y-81865953D03*
D20*
X152962927Y-81865953D03*
X152462927Y-81865953D03*
X151962927Y-81865953D03*
X151462927Y-81865953D03*
X150962927Y-81865953D03*
X150462927Y-81865953D03*
D26*
X149962927Y-81865953D03*
D27*
X149275427Y-81178453D03*
D23*
X149275427Y-80678453D03*
X149275427Y-80178453D03*
X149275427Y-79678453D03*
X149275427Y-79178453D03*
X149275427Y-78678453D03*
X149275427Y-78178453D03*
D28*
X149275427Y-77678453D03*
%TD*%
D16*
%TO.C,R3*%
X145562635Y-72916425D03*
X145562635Y-74741425D03*
%TD*%
M02*
